<svg width="40" height="40" viewBox="0 0 40 40" fill="none" xmlns="http://www.w3.org/2000/svg">
<rect width="40" height="40" rx="20" fill="#2D2D2D"/>
<path d="M16.4578 9.20093L16.2937 9.78827L22.6171 11.4889L22.8234 10.8706L16.4578 9.20093ZM23.8312 10.5594L23.4281 11.7655C24.1124 12.395 24.8156 12.4489 25.6359 12.3781L25.9171 11.0103C25.3265 10.6864 24.614 10.5767 23.8312 10.5594ZM29.8312 11.8376L28.4437 12.2169L28.2234 13.025L29.339 14.1031L31.7812 13.5547L29.8312 11.8376ZM26.6203 11.8648L26.4843 12.5267L27.4031 12.7766L27.5812 12.117L26.6203 11.8648ZM18.4359 12.2145C18.0937 12.223 17.7609 12.3837 17.4656 12.6809C17.1374 13.0203 16.8843 13.5359 16.814 14.1359C16.7437 14.7359 16.8796 15.2937 17.1281 15.6969C17.3812 16.0906 17.7234 16.3297 18.1171 16.3719C18.5109 16.4094 18.8999 16.25 19.2328 15.9078C19.5609 15.5703 19.8187 15.0547 19.889 14.45C19.9546 13.8547 19.8187 13.2969 19.5703 12.8984C19.3171 12.4976 18.9749 12.2605 18.5859 12.2201C18.539 12.215 18.4874 12.2131 18.4359 12.2145ZM23.7468 12.9828C23.5312 14.5578 23.1937 15.8 22.7156 17.1219L21.4265 16.9531C21.4078 17.6562 21.314 18.3594 21.0749 19.0719C22.0406 19.0484 22.9593 18.9406 23.8546 18.5422C24.3843 16.7703 24.7171 15.0125 24.9937 13.25C24.5765 13.2312 24.1593 13.1609 23.7468 12.9828ZM15.5859 16.5875C15.1781 16.5875 14.8593 16.6203 14.339 16.7797C13.0912 17.5391 12.1959 18.6641 11.8546 19.4937C11.4609 20.4734 11.3076 21.6969 11.3268 22.7984L12.5287 22.9484C12.6885 21.8234 12.7593 20.9937 13.0363 20.0984L15.2531 18.5047L15.1171 20.6562L15.4687 20.5484C16.3124 20.1219 16.8984 19.5781 17.4046 18.95C17.8453 18.4062 18.2156 17.8016 18.6093 17.1922C18.4171 17.2297 18.2249 17.2391 18.0234 17.2203C17.5312 17.1734 17.1046 16.9437 16.7624 16.6062C16.2515 16.6062 15.8859 16.5875 15.5859 16.5875ZM20.5593 16.8125L19.9171 16.8219C19.3124 17.6187 18.8249 18.5328 18.1406 19.4C18.4406 19.5078 18.6749 19.7937 18.6796 20.0516C18.6374 20.5344 18.1828 20.7547 17.789 20.7594C17.5031 20.7406 17.2734 20.6656 17.0859 20.4969C16.5187 20.9656 15.8296 21.3781 14.9578 21.6781C14.9671 21.7906 14.9812 21.9078 14.9859 22.0203C15.1312 21.9734 15.2812 21.95 15.4453 21.95C15.9843 21.9641 16.5281 22.2969 16.5374 22.7984C16.4765 23.3797 15.914 23.6422 15.4453 23.6469C15.2718 23.6469 15.1078 23.6187 14.9624 23.5625C14.9203 23.9141 14.8453 24.2703 14.7234 24.6266L15.989 24.7437L16.2609 26.1219L17.4281 25.0437L18.014 26.5578C18.2671 26.0797 18.5296 25.6016 18.8203 25.1328C18.2906 25.1234 17.714 24.8281 17.6999 24.35C17.7609 23.7641 18.3703 23.5672 18.8249 23.5625C19.1671 23.5812 19.4718 23.6469 19.7156 23.8531C20.0812 23.3937 20.4937 22.9578 20.9531 22.55C20.8921 22.3906 20.8124 22.2219 20.714 22.0531C20.5734 22.0906 20.414 22.1094 20.2499 22.1094C19.7718 22.0578 19.1859 21.9453 19.1765 21.4297C19.1953 21.1344 19.4062 20.9516 19.6406 20.8531C19.7015 20.8297 19.7671 20.8109 19.8328 20.7969C19.7062 20.6328 19.5937 20.4922 19.4671 20.3234L19.6406 20.0656C20.3671 18.9781 20.5499 17.9422 20.5593 16.8125ZM20.7562 23.9375C20.3812 24.3547 20.0531 24.7953 19.7437 25.2641C19.9546 25.4422 20.1843 25.6297 20.4093 25.8219C20.8499 26.1969 21.3093 26.6187 21.4265 27.2422L22.1015 30.8L23.4046 30.3125C23.2359 28.9625 23.1562 28.0203 22.8093 26.5016V26.4875L22.8046 26.4734C22.7296 26.0047 22.3218 25.5172 21.7828 24.9922C21.4499 24.6641 21.0749 24.3219 20.7562 23.9375ZM14.9062 25.5031L13.9687 27.8516C12.8085 28.1047 11.5579 27.8984 10.5637 27.6922L10.2173 28.8031C11.7281 29.0891 13.7296 29.2812 14.8031 29.0797L15.6843 27.6219L15.2718 25.5359L14.9062 25.5031Z" fill="#EFEFF0"/>
</svg>
