<svg width="41" height="40" viewBox="0 0 41 40" fill="none" xmlns="http://www.w3.org/2000/svg">
<rect x="0.5" width="40" height="40" rx="20" fill="#2D2D2D"/>
<path d="M29.2862 10.9554L25.1119 12.2237L26.802 11.0286C25.735 11.2805 24.3871 11.7731 22.6929 12.5683L19.9278 15.58L20.9092 13.4762C19.9603 14.0276 18.9545 14.7504 17.9852 15.597L17.3418 18.3326L17.2033 16.3075C16.2463 17.2265 15.3463 18.2475 14.601 19.3239C13.8179 20.4513 13.2058 21.6425 12.8992 22.8295L11.754 22.0297C11.8566 23.038 12.1739 23.9144 12.6943 24.7185L11.3252 24.2803C11.6363 25.2801 12.145 25.9267 13.0051 26.45C12.5233 27.8667 12.2973 29.3473 12.0546 30.8236L12.8039 30.9554C13.6729 21.9063 19.8056 16.1373 25.3481 13.5813L25.6291 14.3207C20.673 16.6393 16.8205 20.5534 14.8047 26.1948C15.5418 26.199 16.2626 26.1054 16.9305 25.9267L17.13 23.3358L17.6635 25.697C18.1074 25.5268 18.5146 25.3226 18.8771 25.0844L18.0341 23.2337L19.3698 24.7142C19.6956 24.4419 19.9644 24.1356 20.168 23.7995C21.406 21.7787 22.7011 19.7706 25.2504 18.0901L23.3893 17.4009L26.2441 17.4902C26.7083 17.2435 27.197 16.9414 27.5676 16.6564L25.5436 16.4862L28.5857 15.7374C28.8219 15.4906 29.0418 15.2311 29.2414 14.9716C29.9459 14.0382 30.4224 13.0665 30.3083 12.1828C30.2554 11.7408 30.0029 11.3252 29.5916 11.0924C29.4898 11.0371 29.3798 10.9882 29.2862 10.9554Z" fill="#EFEFF0"/>
</svg>
