<svg width="41" height="40" viewBox="0 0 41 40" fill="none" xmlns="http://www.w3.org/2000/svg">
<rect x="0.5" width="40" height="40" rx="20" fill="#2D2D2D"/>
<path d="M13.2391 9.16626L14.8516 15.3594L18.9813 15.5844L18.8406 14.7781L18.7516 14.2531L24.5313 14.6L24.7609 15.9031L28.3188 16.1L26.7953 10.2584L13.2391 9.16626ZM12.3569 9.24126C10.9272 9.79907 9.74594 11.7303 10.0225 12.7719L10.1772 13.325C10.2053 13.2406 10.2381 13.1609 10.2756 13.0766C10.7397 11.9647 11.5178 10.8819 12.6334 10.3147L12.3569 9.24126ZM12.8631 11.1913C12.0803 11.66 11.4616 12.5084 11.0819 13.4141C10.8381 14 10.7069 14.6141 10.6741 15.125L11.4925 18.1016C12.0925 17.1078 12.9077 16.1188 14.0219 15.6453L12.8631 11.1913ZM19.7641 15.1625L20.7109 20.6656L24.7891 20.8672L23.8188 15.4063L19.7641 15.1625ZM21.9578 16.1563C21.995 16.1546 22.0325 16.1546 22.0703 16.1563C22.2204 16.1627 22.3726 16.195 22.518 16.2513C22.6634 16.3076 22.7992 16.3868 22.9177 16.4843C23.0362 16.5819 23.1349 16.6959 23.2083 16.8198C23.2817 16.9437 23.3283 17.075 23.3453 17.2063C23.372 17.4094 23.3271 17.6045 23.2165 17.7653C23.1059 17.9262 22.935 18.0451 22.7266 18.1063L23.7016 19.8641L21.4188 19.7609L21.9297 18.0688C21.7025 17.9884 21.4976 17.8528 21.3426 17.6802C21.1877 17.5077 21.0899 17.3063 21.0625 17.1031C21.0295 16.8558 21.1028 16.6218 21.2683 16.4468C21.4337 16.2718 21.6795 16.1683 21.9578 16.1563ZM15.0766 16.2172L15.7797 18.9172L19.5859 19.0766L19.1266 16.4422L15.0766 16.2172ZM14.2375 16.4797C13.2156 16.9766 12.385 18.1813 11.8127 19.2641L12.3967 21.3875C12.8781 20.6516 13.5203 19.85 14.9078 19.0484L14.2375 16.4797ZM24.9156 16.7563L25.3703 19.3203L29.2 19.4844L28.5391 16.9578L24.9156 16.7563ZM16 19.7703L17.4625 25.3766L31.0188 26.4641L29.425 20.3422L25.5203 20.1781L25.8016 21.7672L19.9984 21.4719L19.7313 19.9297L16 19.7703ZM15.1281 19.8969C13.6281 20.8063 13.2672 21.5797 12.7005 22.4938L13.7078 26.1547C13.7219 26.1313 13.7359 26.1031 13.75 26.0797C14.2469 25.175 15.0531 24.3125 16.1453 23.8063L15.1281 19.8969ZM16.375 24.6734C15.5453 25.1 14.9125 25.7844 14.5188 26.5016C14.3078 26.8813 14.1766 27.2656 14.1109 27.6125L14.6594 29.6L14.7344 29.6094C14.5563 28.3156 15.2688 26.7734 16.6703 25.8078L16.375 24.6734ZM17.6078 26.2672C16.0797 27.0781 15.4281 28.7234 15.6484 29.6844L29.2328 30.8328C28.9844 30.4672 28.825 29.9938 28.8297 29.4969L27.7797 29.075L29.95 28.7328L29.3172 28.1328C29.5797 27.8047 29.9594 27.5188 30.4844 27.3031L17.6078 26.2672Z" fill="#CBCBCC"/>
</svg>
