<svg width="39" height="37" viewBox="0 0 39 37" fill="none" xmlns="http://www.w3.org/2000/svg">
<rect x="0.575928" width="37.8483" height="36.2998" rx="18.1499" fill="#2D2D2D"/>
<path d="M24.036 8L22.4847 11.9082L27.6951 17.1244L30.4242 14.3925L24.036 8ZM16.5198 8.24459C11.9144 11.384 8.6978 15.803 8.57593 21.7871C11.4939 16.1706 16.1911 11.2359 20.5394 9.14253L16.5198 8.24459ZM12.0828 8.96966L10.6971 10.3555C11.0381 10.6817 11.3782 11.0067 11.7196 11.3325C12.1361 10.8455 12.5806 10.3786 13.0467 9.93059L12.0828 8.96966ZM28.6678 8.96966L27.4549 10.1811L28.8011 11.5287C29.2187 11.1369 29.6365 10.7446 30.0536 10.3525L28.6678 8.96966ZM16.2957 13.1767C15.8532 13.5776 15.4133 14.0015 14.9803 14.4453C16.1645 15.5764 17.3487 16.7104 18.5281 17.8554L19.7557 16.6308L16.2957 13.1766V13.1767ZM23.4823 14.1479L10.6883 26.9227L12.0623 28.2924C15.9755 23.7863 20.301 19.5503 24.7098 15.3769L23.4822 14.1478L23.4823 14.1479ZM22.1581 19.0302C21.7506 19.4249 21.3448 19.8202 20.9407 20.2168C23.5608 22.8127 26.1516 25.4833 28.6824 28.2998L30.0624 26.9229L22.1581 19.0302V19.0302Z" fill="#EFEFF0"/>
</svg>
