<svg width="40" height="40" viewBox="0 0 40 40" fill="none" xmlns="http://www.w3.org/2000/svg">
<rect width="40" height="40" rx="20" fill="#2D2D2D"/>
<path d="M19.9999 9.17188C18.2046 9.17188 17.4733 9.80938 17.0749 10.6236C16.8124 11.1523 16.7233 11.7772 16.6905 12.3594H23.3046C23.2671 11.7795 23.1686 11.1556 22.9014 10.6264C22.4936 9.80937 21.7624 9.17188 19.9999 9.17188ZM15.3639 13.2031L15.7905 14.3281H24.5796L24.7577 13.2031H15.3639ZM12.2889 13.6484C12.1788 13.6531 12.0752 13.6672 11.9819 13.6953C11.7354 13.7609 11.5413 13.8969 11.3763 14.1922C11.3524 14.2438 11.3496 14.2766 11.395 14.3891C11.4414 14.5109 11.5497 14.6797 11.6786 14.8672C11.8075 15.0547 11.9557 15.2609 12.0663 15.5047C12.1769 15.7484 12.2514 16.0578 12.153 16.3766C12.0194 16.8031 11.703 17.0938 11.3711 17.2953C11.0393 17.4922 10.676 17.6281 10.3394 17.7547C10.0033 17.8859 9.69489 18.0078 9.49004 18.1484C9.28567 18.2844 9.1966 18.3969 9.1666 18.5703C9.12067 18.8422 9.2491 19.1187 9.52707 19.4469C9.80551 19.775 10.2072 20.1125 10.5485 20.45C10.8466 20.75 10.8499 21.1391 10.8344 21.4203C10.8194 21.7062 10.7922 21.9594 10.8096 22.0578C10.8166 22.1047 10.826 22.1047 10.8213 22.1C10.8166 22.0953 10.8279 22.1141 10.9216 22.1281C11.0833 22.1516 11.4733 22.1047 12.0789 21.9313V21.875C12.0789 19.1047 13.0113 16.5828 14.5254 14.7875C14.1129 14.3422 13.4847 13.9109 12.8941 13.7375C12.7207 13.6906 12.5566 13.6625 12.4029 13.6531C12.3644 13.6484 12.3269 13.6484 12.2899 13.6484H12.2889ZM27.5983 13.6531C27.4436 13.6625 27.2796 13.6906 27.1061 13.7422C26.5155 13.9156 25.8874 14.3422 25.4749 14.7875C26.9889 16.5828 27.9218 19.1047 27.9218 21.875V21.9313C28.5264 22.1047 28.9202 22.1516 29.0796 22.1281C29.1733 22.1141 29.1827 22.0953 29.178 22.1C29.178 22.1047 29.1827 22.1047 29.1921 22.0578C29.2061 21.9594 29.1827 21.7062 29.1639 21.4203C29.1499 21.1391 29.1546 20.75 29.4499 20.45C29.7921 20.1125 30.1952 19.775 30.4718 19.4469C30.753 19.1187 30.8796 18.8422 30.8327 18.5703C30.8046 18.3969 30.7155 18.2844 30.5093 18.1484C30.303 18.0078 29.9983 17.8859 29.6608 17.7547C29.3233 17.6281 28.9624 17.4922 28.6296 17.2953C28.2968 17.0938 27.9827 16.8031 27.8468 16.3766C27.7483 16.0578 27.8233 15.7484 27.9358 15.5047C28.0436 15.2609 28.1936 15.0547 28.3202 14.8672C28.4514 14.6797 28.5593 14.5109 28.6061 14.3891C28.6483 14.2766 28.6483 14.2438 28.6249 14.1922C28.4608 13.8969 28.2639 13.7656 28.0202 13.6953C27.9264 13.6672 27.8233 13.6531 27.7108 13.6531H27.5983ZM15.3124 15.1719C13.8546 16.8031 12.9218 19.1891 12.9218 21.875C12.9218 22.9578 13.0718 23.9938 13.353 24.95C13.9202 24.2563 14.7968 23.8906 15.7811 23.8906C16.3999 23.8906 17.0702 24.0219 17.7593 24.275C17.8036 23.8504 17.9678 23.4472 18.2327 23.1125C17.6796 22.9391 17.3233 22.8594 16.9999 22.8594C16.5311 22.8594 16.0061 23.0234 14.8811 23.3984L14.328 23.5859V23C14.328 22.7422 14.3796 22.3297 14.4733 21.7906C14.5718 21.2469 14.7171 20.6 14.9093 19.9719C15.1014 19.3391 15.3452 18.725 15.6593 18.2375C15.8139 17.9984 15.9968 17.7781 16.2077 17.6141L16.9999 15.875L17.7921 17.6141C18.003 17.7781 18.1858 17.9984 18.3405 18.2375C18.6546 18.725 18.8983 19.3391 19.0905 19.9719C19.2827 20.6 19.428 21.2469 19.5264 21.7906C19.5593 21.9688 19.5827 22.1328 19.6061 22.2875C19.736 22.2635 19.8678 22.2509 19.9999 22.25C20.132 22.2509 20.2637 22.2635 20.3936 22.2875C20.4171 22.1375 20.4405 21.9688 20.4733 21.7906C20.5718 21.2469 20.7171 20.6 20.9093 19.9719C21.1014 19.3391 21.3452 18.725 21.6593 18.2375C21.8139 17.9984 21.9968 17.7781 22.2077 17.6141L22.9999 15.875L23.7921 17.6141C24.003 17.7781 24.1858 17.9984 24.3405 18.2375C24.6546 18.725 24.8983 19.3391 25.0905 19.9719C25.2827 20.6 25.428 21.2469 25.5264 21.7906C25.6202 22.3297 25.6718 22.7422 25.6718 23V23.5859L25.1186 23.3984C23.9936 23.0234 23.4686 22.8594 22.9999 22.8594C22.6764 22.8594 22.3249 22.9391 21.7671 23.1125C22.0303 23.4478 22.1928 23.8509 22.2358 24.275C22.9296 24.0219 23.5952 23.8906 24.2186 23.8906C25.203 23.8906 26.0796 24.2563 26.6468 24.95C26.928 23.9938 27.078 22.9578 27.078 21.875C27.078 19.1891 26.1452 16.8031 24.6874 15.1719H15.3124ZM16.9999 18.1719C16.8358 18.1719 16.6155 18.3172 16.3718 18.6922C16.1233 19.0719 15.8983 19.6297 15.7155 20.2156C15.5327 20.8063 15.3968 21.425 15.3077 21.9359C15.2749 22.1094 15.2561 22.25 15.2374 22.3953C15.7436 22.2313 16.1327 22.1141 16.4983 22.0578C16.4201 21.9875 16.3576 21.9014 16.3148 21.8053C16.272 21.7092 16.2499 21.6052 16.2499 21.5C16.2499 21.3011 16.3289 21.1103 16.4696 20.9697C16.6102 20.829 16.801 20.75 16.9999 20.75C17.1988 20.75 17.3896 20.829 17.5302 20.9697C17.6709 21.1103 17.7499 21.3011 17.7499 21.5C17.7499 21.6052 17.7278 21.7092 17.685 21.8053C17.6422 21.9014 17.5797 21.9875 17.5014 22.0578C17.8671 22.1141 18.2561 22.2313 18.7624 22.3953C18.7436 22.25 18.7249 22.1094 18.6921 21.9359C18.603 21.425 18.4671 20.8063 18.2843 20.2156C18.1014 19.6297 17.8764 19.0719 17.628 18.6922C17.3843 18.3172 17.1639 18.1719 16.9999 18.1719ZM22.9999 18.1719C22.8358 18.1719 22.6155 18.3172 22.3718 18.6922C22.1233 19.0719 21.8983 19.6297 21.7155 20.2156C21.5327 20.8063 21.3968 21.425 21.3077 21.9359C21.2749 22.1094 21.2561 22.25 21.2374 22.3953C21.7436 22.2313 22.1327 22.1141 22.4983 22.0578C22.4201 21.9875 22.3576 21.9014 22.3148 21.8053C22.272 21.7092 22.2499 21.6052 22.2499 21.5C22.2499 21.3011 22.3289 21.1103 22.4696 20.9697C22.6102 20.829 22.801 20.75 22.9999 20.75C23.1988 20.75 23.3896 20.829 23.5302 20.9697C23.6709 21.1103 23.7499 21.3011 23.7499 21.5C23.7499 21.6052 23.7278 21.7092 23.685 21.8053C23.6422 21.9014 23.5797 21.9875 23.5014 22.0578C23.8671 22.1141 24.2561 22.2313 24.7624 22.3953C24.7436 22.25 24.7249 22.1094 24.6921 21.9359C24.603 21.425 24.4671 20.8063 24.2843 20.2156C24.1014 19.6297 23.8764 19.0719 23.628 18.6922C23.3843 18.3172 23.1639 18.1719 22.9999 18.1719ZM19.9999 23C19.6021 23 19.2205 23.158 18.9392 23.4393C18.6579 23.7206 18.4999 24.1022 18.4999 24.5C18.5012 24.8171 18.6029 25.1256 18.7905 25.3812C18.8266 24.8382 19.0584 24.3267 19.4428 23.9414C19.8272 23.5562 20.3382 23.3233 20.8811 23.2859C20.6249 23.1 20.3164 22.9999 19.9999 23ZM15.7811 24.7344C14.7546 24.7344 14.0514 25.1234 13.7046 25.9766C14.8905 28.8734 17.2858 30.8281 19.9999 30.8281C22.7139 30.8281 25.1093 28.8734 26.2952 25.9766C25.9483 25.1234 25.2452 24.7344 24.2186 24.7344C23.6093 24.7344 22.8921 24.8984 22.1233 25.2313C21.9712 25.6738 21.685 26.0579 21.3044 26.3301C20.9238 26.6023 20.4678 26.7491 19.9999 26.75C19.532 26.7491 19.076 26.6023 18.6954 26.3301C18.3148 26.0579 18.0285 25.6738 17.8764 25.2313C17.1077 24.8984 16.3905 24.7344 15.7811 24.7344ZM15.8608 25.7844C16.9249 27.5516 18.4671 28.3906 19.9999 28.3906C21.5327 28.3906 23.0749 27.5516 24.1389 25.7844L24.8608 26.2156C23.6749 28.1984 21.8421 29.2344 19.9999 29.2344C18.1577 29.2344 16.3249 28.1984 15.1389 26.2156L15.8608 25.7844Z" fill="#EFEFF0"/>
</svg>
