<svg width="40" height="40" viewBox="0 0 40 40" fill="none" xmlns="http://www.w3.org/2000/svg">
<rect width="40" height="40" rx="20" fill="#2D2D2D"/>
<path d="M20 8.9375C17 13.4375 14 13.0625 11 13.8125C11 25.8125 14 28.8125 20 31.0625C26 28.8125 29 25.8125 29 13.8125C26 13.0625 23 13.4375 20 8.9375ZM20 10.4375C20.1119 10.4375 20.2192 10.4819 20.2983 10.5611C20.3774 10.6402 20.4219 10.7475 20.4219 10.8594C20.4219 10.9713 20.3774 11.0786 20.2983 11.1577C20.2192 11.2368 20.1119 11.2812 20 11.2812C19.8881 11.2812 19.7808 11.2368 19.7017 11.1577C19.6226 11.0786 19.5781 10.9713 19.5781 10.8594C19.5781 10.7475 19.6226 10.6402 19.7017 10.5611C19.7808 10.4819 19.8881 10.4375 20 10.4375ZM20.0136 11.8509C20.2217 12.0798 20.4381 12.3011 20.6624 12.5142C22.3006 14.1728 24.5514 14.6651 26.7882 15.1592C26.9163 15.2147 27.0986 15.183 27.2038 15.251C27.078 18.2904 26.9449 21.422 25.689 24.2391C25.0944 25.7138 23.9893 26.9392 22.6716 27.8083C21.9473 28.3176 21.1319 28.6627 20.3333 29.0325C20.0246 29.2468 19.6913 29.0115 19.3845 28.9172C17.3385 28.0806 15.4262 26.6382 14.46 24.5922C13.0976 21.6851 12.9155 18.413 12.7812 15.2457C15.4729 14.8328 18.0582 13.9425 19.9268 11.9448L20.0136 11.8509ZM20 13.8125L18.7104 17.0366C17.9013 16.8625 16.9273 16.5383 15.5 16.0625C15.5 17.5625 14.75 18.3125 14 19.0625C14 19.8125 17 20.5625 17.75 20.5625C18.3675 20.1508 18.815 19.8529 19.1865 19.6672C18.9777 21.005 18.2492 23.8133 17 25.0625C18.5 25.8125 19.25 26.5625 20 27.3125C20.75 26.5625 21.5 25.8125 23 25.0625C21.7508 23.8133 21.0223 21.005 20.8135 19.6672C21.185 19.8529 21.6325 20.1508 22.25 20.5625C23 20.5625 26 19.8125 26 19.0625C25.25 18.3125 24.5 17.5625 24.5 16.0625C23.0727 16.5383 22.0987 16.8626 21.2896 17.0366L20 13.8125ZM11.9375 14.1875C11.9929 14.1875 12.0478 14.1984 12.0989 14.2196C12.1501 14.2408 12.1966 14.2719 12.2358 14.3111C12.275 14.3502 12.3061 14.3967 12.3273 14.4479C12.3485 14.4991 12.3594 14.554 12.3594 14.6094C12.3594 14.6648 12.3485 14.7196 12.3273 14.7708C12.3061 14.822 12.275 14.8685 12.2358 14.9077C12.1966 14.9469 12.1501 14.9779 12.0989 14.9991C12.0478 15.0203 11.9929 15.0312 11.9375 15.0312C11.8256 15.0312 11.7183 14.9868 11.6392 14.9077C11.5601 14.8286 11.5156 14.7213 11.5156 14.6094C11.5156 14.4975 11.5601 14.3902 11.6392 14.3111C11.7183 14.2319 11.8256 14.1875 11.9375 14.1875ZM28.0625 14.1875C28.1179 14.1875 28.1728 14.1984 28.2239 14.2196C28.2751 14.2408 28.3216 14.2719 28.3608 14.3111C28.4 14.3502 28.4311 14.3967 28.4523 14.4479C28.4735 14.4991 28.4844 14.554 28.4844 14.6094C28.4844 14.6648 28.4735 14.7196 28.4523 14.7708C28.4311 14.822 28.4 14.8685 28.3608 14.9077C28.3216 14.9469 28.2751 14.9779 28.2239 14.9991C28.1728 15.0203 28.1179 15.0312 28.0625 15.0312C27.9506 15.0312 27.8433 14.9868 27.7642 14.9077C27.6851 14.8286 27.6406 14.7213 27.6406 14.6094C27.6406 14.4975 27.6851 14.3902 27.7642 14.3111C27.8433 14.2319 27.9506 14.1875 28.0625 14.1875ZM12.5 21.2188C12.5554 21.2188 12.6103 21.2297 12.6614 21.2509C12.7126 21.2721 12.7591 21.3031 12.7983 21.3423C12.8375 21.3815 12.8686 21.428 12.8898 21.4792C12.911 21.5304 12.9219 21.5852 12.9219 21.6406C12.9219 21.696 12.911 21.7509 12.8898 21.8021C12.8686 21.8533 12.8375 21.8998 12.7983 21.9389C12.7591 21.9781 12.7126 22.0092 12.6614 22.0304C12.6103 22.0516 12.5554 22.0625 12.5 22.0625C12.3881 22.0625 12.2808 22.0181 12.2017 21.9389C12.1226 21.8598 12.0781 21.7525 12.0781 21.6406C12.0781 21.5287 12.1226 21.4214 12.2017 21.3423C12.2808 21.2632 12.3881 21.2188 12.5 21.2188ZM27.5 21.2188C27.5554 21.2188 27.6103 21.2297 27.6614 21.2509C27.7126 21.2721 27.7591 21.3031 27.7983 21.3423C27.8375 21.3815 27.8686 21.428 27.8898 21.4792C27.911 21.5304 27.9219 21.5852 27.9219 21.6406C27.9219 21.696 27.911 21.7509 27.8898 21.8021C27.8686 21.8533 27.8375 21.8998 27.7983 21.9389C27.7591 21.9781 27.7126 22.0092 27.6614 22.0304C27.6103 22.0516 27.5554 22.0625 27.5 22.0625C27.3881 22.0625 27.2808 22.0181 27.2017 21.9389C27.1226 21.8598 27.0781 21.7525 27.0781 21.6406C27.0781 21.5287 27.1226 21.4214 27.2017 21.3423C27.2808 21.2632 27.3881 21.2188 27.5 21.2188ZM15.5 27.2188C15.6119 27.2188 15.7192 27.2632 15.7983 27.3423C15.8774 27.4214 15.9219 27.5287 15.9219 27.6406C15.9219 27.7525 15.8774 27.8598 15.7983 27.9389C15.7192 28.0181 15.6119 28.0625 15.5 28.0625C15.3881 28.0625 15.2808 28.0181 15.2017 27.9389C15.1226 27.8598 15.0781 27.7525 15.0781 27.6406C15.0781 27.5287 15.1226 27.4214 15.2017 27.3423C15.2808 27.2632 15.3881 27.2188 15.5 27.2188ZM24.5 27.2188C24.6119 27.2188 24.7192 27.2632 24.7983 27.3423C24.8774 27.4214 24.9219 27.5287 24.9219 27.6406C24.9219 27.7525 24.8774 27.8598 24.7983 27.9389C24.7192 28.0181 24.6119 28.0625 24.5 28.0625C24.3881 28.0625 24.2808 28.0181 24.2017 27.9389C24.1226 27.8598 24.0781 27.7525 24.0781 27.6406C24.0781 27.5287 24.1226 27.4214 24.2017 27.3423C24.2808 27.2632 24.3881 27.2188 24.5 27.2188ZM20 29.5625C20.1119 29.5625 20.2192 29.6069 20.2983 29.6861C20.3774 29.7652 20.4219 29.8725 20.4219 29.9844C20.4219 30.0963 20.3774 30.2036 20.2983 30.2827C20.2192 30.3618 20.1119 30.4062 20 30.4062C19.8881 30.4062 19.7808 30.3618 19.7017 30.2827C19.6226 30.2036 19.5781 30.0963 19.5781 29.9844C19.5781 29.8725 19.6226 29.7652 19.7017 29.6861C19.7808 29.6069 19.8881 29.5625 20 29.5625Z" fill="#EFEFF0"/>
</svg>
