<svg width="41" height="40" viewBox="0 0 41 40" fill="none" xmlns="http://www.w3.org/2000/svg">
<rect x="0.5" width="40" height="40" rx="20" fill="#2D2D2D"/>
<path d="M12.6133 9.43999C12.374 9.4414 12.1289 9.45452 11.8764 9.48096C12.1137 12.6969 13.9329 13.9518 17.8647 12.5864C16.6295 10.5647 14.926 9.42625 12.6133 9.43999ZM28.7339 9.43999C26.4211 9.42621 24.719 10.5647 23.4839 12.5864C27.4156 13.9518 29.2349 12.6969 29.4721 9.48096C29.2197 9.45457 28.9731 9.4414 28.7339 9.43999ZM9.14891 14.8642C9.1102 15.0773 9.09473 15.2958 9.09473 15.5146C9.09473 17.6751 11.0255 19.579 13.9755 20.7206C15.0761 21.331 15.4277 24.6553 14.8984 26.2123C14.7826 26.5527 14.2934 27.4662 14.2934 27.8823C14.2934 28.4463 14.7505 28.9121 15.3144 28.9121C15.8784 28.9121 16.3339 28.4463 16.3339 27.8823C16.3339 27.4637 15.8159 26.5609 15.7202 26.2124C15.3091 24.7165 15.2331 21.3911 16.5713 21.4693C17.7633 21.7098 19.0486 21.8417 20.3887 21.8443H20.3931C21.2839 21.9271 21.5455 23.271 21.1357 24.4766C21.0481 24.7342 20.6949 25.4184 20.6948 25.7335C20.6948 26.1604 21.0398 26.5054 21.4668 26.5054C21.8938 26.5054 22.2388 26.1604 22.2388 25.7335C22.2388 25.4165 21.8484 24.7405 21.7759 24.4766C21.5012 23.2335 21.5595 22.6145 22.3763 22.524C23.312 22.4204 23.7336 26.151 23.1865 27.7609C23.041 28.1886 22.4365 29.3546 22.4365 29.8775C22.4365 30.5863 23.0066 31.1564 23.7152 31.1563C24.424 31.1562 24.994 30.5863 24.9941 29.8775C24.9941 29.3513 24.3425 28.1986 24.222 27.7608C23.7035 25.874 23.8973 21.6509 25.0908 21.2876C25.0917 21.2873 25.0926 21.2864 25.0937 21.2861C25.1118 21.2816 25.1298 21.2776 25.1479 21.273C25.1485 21.2725 25.1488 21.2719 25.1493 21.2715C25.2563 21.2441 25.3621 21.2157 25.4672 21.1865C27.9157 20.6349 27.1523 22.0302 28.095 22.0302C28.858 22.0302 28.363 20.4016 29.5629 19.2632C30.9443 18.2144 31.7616 16.919 31.7616 15.5146C31.7616 15.2958 31.7447 15.0774 31.7059 14.8642C31.093 17.4277 26.2748 19.3848 20.4281 19.3848C14.5814 19.3848 9.76171 17.4277 9.14877 14.8642H9.14891ZM28.0937 24.0283C27.5308 24.0283 27.0742 24.4849 27.0742 25.0479C27.0742 25.6108 27.5308 26.0659 28.0937 26.0659C28.6567 26.0659 29.1119 25.6107 29.1119 25.0478C29.1119 24.4849 28.6567 24.0283 28.0937 24.0283Z" fill="#CBCBCC"/>
</svg>
