<svg width="41" height="40" viewBox="0 0 41 40" fill="none" xmlns="http://www.w3.org/2000/svg">
<rect x="0.5" width="40" height="40" rx="20" fill="#2D2D2D"/>
<path d="M17.8208 11.0351C17.7746 11.0351 17.7283 11.0365 17.6816 11.0395C16.9356 11.0871 16.1794 11.5802 15.9106 12.3022C14.3135 16.5928 13.516 18.3428 13.0278 22.7495C13.7137 23.3819 14.5105 23.9894 15.3833 24.5366L18.4961 15.3273L19.3252 15.607L16.1537 24.9922C17.0683 25.502 18.0489 25.9406 19.06 26.2709L22.5947 16.8242L23.415 17.1303L19.9023 26.5185C20.8142 26.7574 21.7401 26.9029 22.6576 26.9345L26.3755 18.5703L27.1768 18.9263L23.6202 26.9258C24.643 26.8678 25.6454 26.6554 26.5938 26.2564C28.6243 23.7325 29.9985 21.1103 30.5547 18.1615C30.7934 16.8963 29.8627 15.6714 28.0132 15.5923L27.7246 15.5791L27.6221 15.3096C27.226 14.2601 26.6963 13.899 26.1455 13.7875C25.5947 13.6762 24.9611 13.8595 24.483 14.1333L23.8706 14.4835L23.8281 13.7803C23.7817 13.0118 23.3433 12.393 22.6884 12.1104C22.0336 11.8277 21.1386 11.8651 20.1191 12.5747L19.6298 12.9145L19.4512 12.3462C19.1457 11.3728 18.5133 11.0344 17.8208 11.0351L17.8208 11.0351ZM13.3412 16.8286C11.8348 18.9429 10.7372 22.0419 10.9097 24.8589C12.2006 25.8826 13.4695 26.4382 14.6626 26.52C15.3262 26.5655 15.9723 26.4692 16.6035 26.2182C14.942 25.4103 13.446 24.3651 12.2632 23.2403L12.1065 23.0923L12.1299 22.8769C12.4015 20.3157 12.7836 18.5878 13.3413 16.8286H13.3412Z" fill="#EFEFF0"/>
</svg>
