<svg width="40" height="40" viewBox="0 0 40 40" fill="none" xmlns="http://www.w3.org/2000/svg">
<rect width="40" height="40" rx="20" fill="#2D2D2D"/>
<path d="M16.3111 10.944C15.4603 10.952 14.7705 11.2962 14.2215 11.8606C13.5739 12.5263 13.1419 13.5144 13.01 14.5944C12.7461 16.7546 13.6478 19.2174 16.1739 20.2453L15.9029 20.9125C13.4314 19.9068 12.3081 17.646 12.25 15.4784C11.5809 15.8972 11.186 16.5209 11.0035 17.2681C10.7827 18.1718 10.8984 19.2544 11.3082 20.2682C12.1277 22.2957 14.0588 24.001 16.6435 23.644L16.7422 24.3582C14.8617 24.6179 13.2666 23.912 12.1211 22.7769C11.8069 23.4018 11.8319 24.0203 12.0957 24.6388C12.4223 25.404 13.1555 26.1516 14.1335 26.7043C15.9482 27.7298 18.5579 28.0745 20.8082 26.9006C20.5989 26.0917 20.706 25.1635 21.2453 24.2293C22.1206 22.7135 23.5878 22.3089 24.6513 22.7383C25.183 22.953 25.6179 23.3763 25.8026 23.9391C25.9875 24.5018 25.9119 25.184 25.5184 25.8781C25.0637 26.6801 24.2025 26.9525 23.5433 26.7344C23.2137 26.6254 22.9181 26.3707 22.8158 26.007C22.7136 25.6431 22.8104 25.2221 23.088 24.8002L23.689 25.1964C23.4871 25.503 23.477 25.7005 23.5083 25.8118C23.5396 25.9231 23.6177 26.0004 23.7684 26.0503C24.0699 26.15 24.5964 26.0444 24.8921 25.5227C25.2077 24.9662 25.2321 24.5137 25.1173 24.1642C25.0026 23.8148 24.7379 23.5494 24.3815 23.4055C23.6688 23.1177 22.6033 23.3179 21.8692 24.5894C21.3287 25.5256 21.3153 26.3382 21.6102 27.0342L21.7187 27.2028C21.7111 27.2079 21.7034 27.2125 21.6958 27.2173C21.7057 27.2365 21.7156 27.2562 21.7258 27.2751C21.8008 27.4125 21.8884 27.5452 21.9885 27.6713C21.9923 27.6763 21.9965 27.681 22.0005 27.6859C22.0157 27.7047 22.0317 27.7238 22.0475 27.7424C22.491 28.2688 23.1404 28.682 23.8709 28.9095C24.8059 29.2008 25.8594 29.1849 26.7553 28.765C27.6513 28.345 28.41 27.5328 28.786 26.1299C28.914 25.6517 28.9817 25.2135 28.9979 24.8075C28.9983 24.7913 28.9988 24.7754 28.9991 24.7593C29.0024 24.5627 28.9957 24.3644 28.9774 24.1655C28.976 24.1499 28.9742 24.1342 28.9726 24.1185C28.9713 24.1081 28.9703 24.0976 28.969 24.0872C28.842 23.0932 28.3592 22.3082 27.6453 21.6038C26.5032 20.4769 24.728 19.6137 22.9146 18.7471C21.1012 17.8804 19.249 17.0089 17.9478 15.7542C16.7268 14.5767 16.0237 13.0108 16.3942 10.9439C16.3664 10.9435 16.3385 10.9437 16.3111 10.9439V10.944Z" fill="#EFEFF0"/>
</svg>
