<svg width="41" height="40" viewBox="0 0 41 40" fill="none" xmlns="http://www.w3.org/2000/svg">
<rect x="0.5" width="40" height="40" rx="20" fill="#2D2D2D"/>
<path d="M24.1044 9.14658C22.7549 9.15079 21.3703 9.79781 20.4037 11.165C19.1942 9.57408 17.2918 8.95987 15.6231 9.28687C13.7615 9.65165 12.1825 11.2475 12.242 13.732C12.2984 16.0874 13.9129 17.642 15.6059 19.1249C16.6143 20.0081 17.6619 20.8833 18.515 21.9022C19.0559 23.0177 19.3689 24.2107 19.4795 25.4152C18.1017 25.2839 16.7772 24.8696 15.5331 24.1799V28.4878C16.7761 27.7989 18.1092 27.3796 19.4795 27.2528C19.3525 28.6229 18.9632 29.9864 18.2745 31.2292H22.5823C21.8991 29.9812 21.4826 28.6288 21.3473 27.2528C22.7176 27.3798 24.0809 27.7989 25.3237 28.4878V24.1799C24.0825 24.8594 22.7157 25.2773 21.3473 25.4152C21.4661 24.1222 21.8326 22.8757 22.4433 21.6983C23.2953 20.8055 24.2901 20.0287 25.2402 19.2349C26.1094 18.5087 26.9383 17.7679 27.5554 16.8829C28.1726 15.9979 28.5679 14.9561 28.5387 13.7114C28.484 11.3742 26.966 9.72801 25.1501 9.27351C24.8095 9.18829 24.4582 9.14554 24.1043 9.14662L24.1044 9.14658ZM24.1035 10.0161C24.1923 10.0169 24.2808 10.0214 24.3691 10.0289C23.2763 10.3952 22.4886 11.4267 22.4886 12.6428C22.4886 14.1655 23.7229 15.3998 25.2456 15.3998C26.2868 15.3998 27.193 14.8225 27.662 13.9706C27.6373 14.9119 27.3321 15.6717 26.837 16.3819C26.3005 17.1511 25.5318 17.8499 24.6787 18.5626C23.1854 19.8103 21.425 21.1011 20.3372 23.0347C19.3275 21.093 17.6436 19.745 16.1831 18.4658C14.5113 17.0016 13.1648 15.6758 13.1178 13.7111C13.067 11.5898 14.2904 10.4407 15.7915 10.1466C16.092 10.0877 16.403 10.0663 16.7163 10.0823C15.6998 10.4885 14.9814 11.4815 14.9814 12.6428C14.9814 14.1655 16.2158 15.3998 17.7384 15.3998C19.2249 15.3998 20.4361 14.2233 20.4927 12.7506L20.8012 12.1773C21.5635 10.761 22.692 10.1094 23.8214 10.0253C23.9155 10.0184 24.0096 10.0154 24.1036 10.0162L24.1035 10.0161Z" fill="#EFEFF0"/>
</svg>
