<svg width="41" height="40" viewBox="0 0 41 40" fill="none" xmlns="http://www.w3.org/2000/svg">
<rect x="0.5" width="40" height="40" rx="20" fill="#2D2D2D"/>
<path d="M18.4296 9.83093C17.7255 10.5486 17.6846 10.9011 17.3293 11.8889C17.4554 12.3173 17.5709 12.6823 17.7581 13.0662C17.9999 13.0795 18.2627 13.0883 18.4773 13.0864C18.1909 12.6079 18.0894 12.1808 18.2554 11.4329C18.457 12.3259 18.8576 12.8389 19.2493 13.0422C19.3915 13.0266 19.5286 13.0088 19.6607 12.9885C19.3675 12.504 19.2625 12.0759 19.4304 11.3203C19.613 12.1299 19.9594 12.627 20.3144 12.8644C20.5328 12.8155 20.7496 12.7593 20.9672 12.6987C20.7086 12.2445 20.6222 11.8226 20.7812 11.107C20.9385 11.8043 21.2174 12.27 21.5186 12.5375C21.7574 12.4639 21.9543 12.4016 22.1679 12.3337C22.1358 12.0627 22.1484 11.7624 22.2178 11.4377L22.306 11.0252L23.1312 11.2014L23.0431 11.6141C22.8726 12.4114 23.1051 12.7588 23.3855 12.9578C23.6658 13.1568 24.0741 13.12 24.1369 13.0797L24.4921 12.8519L24.9477 13.562C24.7669 13.6717 24.5774 13.817 24.3935 13.893C25.2677 15.1904 25.9021 16.7742 25.554 18.2781C25.4431 18.7222 25.2713 19.1333 25.0048 19.4494C25.6013 20.018 25.9993 20.4818 26.4595 21.0665C26.2854 20.9547 26.1039 20.8395 25.9114 20.7211C25.3772 20.3925 24.7943 20.0548 24.2717 19.7929C23.5211 19.4272 22.8014 18.9395 22.0344 18.8308C20.9772 18.6918 19.8655 19.0557 18.5975 19.818C18.9665 20.2268 19.2201 20.5434 19.5496 20.9565C19.2224 20.7532 18.8628 20.5314 18.464 20.2895C16.938 19.4701 15.3988 18.0289 13.756 17.9462C12.3235 17.895 10.9457 18.6472 9.55234 19.7541L9.34375 19.92V31.1562H10.842C12.96 30.3389 14.6055 28.4537 15.3903 26.7256L15.402 26.6992L15.4172 26.6748C15.8608 25.9599 15.9398 25.2832 16.2043 24.578C16.4689 23.8728 16.9968 23.185 18.1676 22.7613C18.3716 22.6601 18.4052 22.695 18.5723 22.8267C20.0005 23.9522 21.2577 24.3276 22.4741 24.3431C24.0027 24.2701 25.2136 23.8799 26.4905 23.4347C26.3046 23.6 26.0794 23.7726 25.8349 23.9391C25.1166 24.4283 24.231 24.8733 23.6644 25.1016C22.9746 25.1957 22.335 25.2149 21.6972 25.1305C21.2303 25.6972 20.4984 26.0848 19.9464 26.3808C22.9427 27.0381 25.3783 26.4235 27.7926 25.3076C27.3463 25.2224 26.9016 25.1345 26.4804 25.0535C27.9632 24.8462 29.5265 24.877 30.9197 24.888C31.1111 24.8871 31.2578 24.8668 31.3275 24.8465C31.9916 22.4525 31.1356 20.2578 29.72 18.0395C28.3014 15.8164 26.3365 13.6282 24.9436 11.3345C23.9545 10.5256 22.6655 9.86004 21.3098 9.17004C20.3542 9.36926 19.3867 9.60762 18.4296 9.83093ZM22.432 13.1352C21.8846 13.3039 21.3206 13.4832 20.8452 13.6045C20.9637 13.8356 21.0203 14.1043 21.0044 14.3639C21.5213 14.405 21.9926 14.2693 22.3621 14.066C22.5892 13.941 22.7718 13.7825 22.8971 13.646C22.7165 13.5178 22.5568 13.3455 22.432 13.1351L22.432 13.1352ZM19.8908 13.8241C19.3396 13.8777 18.7382 13.9348 18.2474 13.9289C18.3594 14.1526 18.4246 14.4946 18.6463 14.6246C19.1703 14.6791 19.6119 14.7182 20.0483 14.5427C20.3031 14.3921 20.1335 13.8369 19.8908 13.8241ZM18.2511 23.6366C17.4265 23.9756 17.1924 24.3462 16.9943 24.8743C16.8069 25.374 16.7024 26.0498 16.3155 26.7969C17.8291 26.4978 19.5792 25.8017 20.7148 24.9177C19.9172 24.6788 19.0952 24.2684 18.2512 23.6366H18.2511ZM18.6879 26.9827C17.8103 27.322 16.7737 27.7395 15.8897 27.6419C15.2394 28.9381 14.3131 30.2202 12.8013 31.1562H16.7707C17.7815 29.7595 18.5551 28.5043 18.6879 26.9827Z" fill="#CBCBCC"/>
</svg>
