<svg width="40" height="40" viewBox="0 0 40 40" fill="none" xmlns="http://www.w3.org/2000/svg">
<rect width="40" height="40" rx="20" fill="#2D2D2D"/>
<path d="M20.0169 9.9767C19.962 9.97699 19.9071 9.9778 19.8522 9.97898C19.4809 9.98723 19.1111 10.0164 18.7445 10.0658L19.3346 10.8575L20.8904 12.0427L18.8408 11.5488L17.8859 10.2202C16.8697 10.4491 15.8908 10.8368 14.9887 11.3727L15.1862 12.1908L17.6555 12.6352L17.5568 14.7836L16.8159 13.2774L14.5443 12.8822L14.2879 11.83C13.646 12.289 13.053 12.8293 12.5257 13.4463L13.112 15.3514L15.4331 15.6971L12.544 16.2651L11.9253 14.2235C11.7638 14.4553 11.6108 14.6959 11.4669 14.9451C10.9575 15.8274 10.599 16.755 10.3828 17.6982L12.4701 18.7095L14.5444 18.685L12.4701 19.5986L11.7046 19.2261V20.3147H12.9887L10.9145 21.1049V18.8418L10.2325 18.51C9.98512 20.2455 10.2058 22.0048 10.8475 23.607L11.754 22.6111L12.277 23.0973L13.7189 22.548L12.8118 23.5945L13.5071 24.2408L11.8033 23.7222L11.2042 24.3948C11.5999 25.1779 12.1014 25.9127 12.7026 26.5759L14.4317 26.5692L13.2459 27.13C13.7972 27.6495 14.4167 28.1142 15.1016 28.5096C19.8551 31.254 25.9217 29.6284 28.6661 24.875C31.4106 20.1215 29.785 14.0549 25.0316 11.3104C24.1364 10.7936 23.1946 10.4321 22.2372 10.217L22.6265 11.3046L21.3974 10.0661C20.9377 10.0038 20.4765 9.97408 20.017 9.97666L20.0169 9.9767ZM23.4449 15.3094C24.3398 15.3197 25.229 15.547 26.0422 16.0163C28.8177 17.6184 29.5925 21.3991 27.8415 24.4313C26.0907 27.4632 22.4287 28.6828 19.6532 27.0807C16.8777 25.4785 16.1029 21.6979 17.8538 18.6657C19.0575 16.5811 21.1646 15.3534 23.2658 15.3102C23.3255 15.3089 23.3852 15.3086 23.4448 15.3093L23.4449 15.3094ZM23.4199 16.0987C23.3685 16.0982 23.317 16.0986 23.2654 16.0997C22.4871 16.1171 21.704 16.3234 20.9785 16.6995L22.4249 18.959C22.1977 19.0867 21.9815 19.2407 21.7811 19.4187L20.3035 17.1106C19.6136 17.5989 19.0034 18.2551 18.5381 19.0609C18.505 19.1183 18.4732 19.176 18.4421 19.2339L21.0664 20.2699C21.0465 20.302 21.0271 20.3344 21.0081 20.3673C20.8923 20.5672 20.7972 20.7735 20.721 20.9831L18.1114 19.9528C17.6637 21.1145 17.5964 22.3282 17.8652 23.4166L20.5035 22.519C20.5231 22.7879 20.5727 23.0513 20.6521 23.303L18.1122 24.1672C18.4971 25.0881 19.1482 25.872 20.0333 26.3874L21.3326 24.4848C21.51 24.676 21.7147 24.8457 21.9456 24.9881L20.7584 26.7267C21.6247 27.0408 22.5612 27.0764 23.4663 26.8632L23.4794 25.4278C23.7445 25.4305 24.01 25.3993 24.2705 25.3362L24.2588 26.6097C24.8004 26.3888 25.3184 26.076 25.7888 25.679L25.2937 24.9057C25.5159 24.7681 25.7262 24.6051 25.9198 24.4182L26.3685 25.1191C26.6615 24.796 26.9272 24.4344 27.1572 24.0361C27.238 23.8963 27.3124 23.7548 27.381 23.6123L26.7006 23.3436C26.8193 23.1022 26.9114 22.8539 26.9756 22.6028L27.6788 22.8804C27.9093 22.1909 28.0083 21.4879 27.9854 20.8079L27.0473 21.1271C27.0053 20.8635 26.9331 20.6078 26.8321 20.3656L27.8995 20.0025C27.7473 19.1676 27.4027 18.3938 26.8845 17.7565L25.9273 19.158C25.814 19.0679 25.6928 18.985 25.5636 18.9105C25.4601 18.851 25.3544 18.7988 25.2471 18.753L26.3221 17.1789C26.115 17.0014 25.8901 16.8408 25.6473 16.7007C25.2369 16.4638 24.8014 16.2991 24.354 16.2025L24.3328 18.5263C24.2263 18.5172 24.1193 18.5136 24.0123 18.5158C23.8552 18.5189 23.6982 18.5342 23.5424 18.5606L23.5649 16.1026C23.5167 16.1006 23.4685 16.0993 23.4201 16.0988L23.4199 16.0987ZM24.0874 19.3049C24.2154 19.306 24.3426 19.3179 24.4682 19.3404C24.1572 19.6413 23.9537 20.1411 23.9537 20.7072C23.9537 21.6269 24.4906 22.3724 25.1531 22.3724C25.6677 22.3724 26.1065 21.9222 26.2768 21.2901C26.3655 21.8973 26.2491 22.5661 25.8933 23.1809C25.1201 24.5168 23.5589 25.007 22.4161 24.3488C21.2732 23.6906 20.9188 22.0991 21.6919 20.7632C22.2234 19.8448 23.1275 19.3261 24.0119 19.3055C24.0371 19.3049 24.0622 19.3047 24.0873 19.305L24.0874 19.3049Z" fill="#EFEFF0"/>
</svg>
