<svg width="41" height="40" viewBox="0 0 41 40" fill="none" xmlns="http://www.w3.org/2000/svg">
<rect x="0.5" width="40" height="40" rx="20" fill="#2D2D2D"/>
<path d="M21.3519 9.95019C21.2208 9.94972 21.0906 9.95281 20.9614 9.95933C16.43 10.1867 12.6467 14.0342 10.75 18.9593C8.85337 23.884 10.7929 30.2079 14.9845 30.0912C19.1761 29.974 15.8325 25.4225 18.0542 23.2418C19.1954 22.1215 20.8129 22.5162 22.4701 22.9775L21.6451 21.9003L21.4483 21.6434C21.3836 21.6462 21.3175 21.6482 21.2486 21.6476C20.8623 21.6446 20.4133 21.6223 20.065 21.3032C19.4139 20.7065 19.39 19.8358 19.405 19.0575C19.42 18.2792 19.4575 17.54 19.2151 17.0613L18.948 16.5344L19.5383 16.517C19.5874 16.5156 19.6366 16.5147 19.686 16.5146C20.4266 16.5111 21.2002 16.6447 21.8851 16.9378C22.6156 17.2505 23.2564 17.7553 23.5798 18.4872C23.7757 18.9306 23.7516 19.4301 23.609 19.8826C23.5792 19.9765 23.544 20.0688 23.504 20.1587L26.0774 23.5187C26.3685 23.4695 26.6486 23.381 26.9139 23.2412C29.0744 22.1015 31.4754 19.5985 31.0515 17.1929C30.3559 13.2446 25.4172 9.96196 21.3512 9.94977L21.3519 9.95019ZM24.2015 11.8199C24.51 11.8335 24.8015 11.9484 25.0411 12.1509C25.2055 12.2897 25.3414 12.4663 25.4414 12.6707C25.5413 12.8751 25.6032 13.1032 25.6235 13.342C25.6438 13.5809 25.6221 13.8257 25.5597 14.0627C25.4973 14.2996 25.3954 14.524 25.2599 14.7229C25.1243 14.9219 24.9576 15.0915 24.7695 15.2222C24.5813 15.3529 24.3753 15.4421 24.1633 15.4846C23.9512 15.5271 23.7372 15.5222 23.5335 15.4701C23.3298 15.418 23.1404 15.3197 22.9761 15.1809C22.8118 15.0421 22.6758 14.8654 22.5759 14.661C22.476 14.4567 22.4141 14.2285 22.3938 13.9897C22.3735 13.7509 22.3952 13.506 22.4575 13.2691C22.5199 13.0321 22.6218 12.8078 22.7574 12.6088C22.9304 12.355 23.1533 12.1498 23.4056 12.0119C23.6579 11.8741 23.9316 11.8081 24.2015 11.8199ZM18.5835 12.0293C18.9439 12.04 19.3095 12.2165 19.6092 12.5245C19.9089 12.8325 20.1214 13.2501 20.2055 13.6962C20.2954 14.1734 20.2313 14.6456 20.0272 15.0087C19.8232 15.3719 19.4959 15.5963 19.1174 15.6326C18.93 15.6506 18.7356 15.6219 18.5454 15.5481C18.3552 15.4743 18.1729 15.3568 18.0089 15.2024C17.8449 15.048 17.7024 14.8597 17.5896 14.6482C17.4767 14.4368 17.3957 14.2063 17.3512 13.97C17.2613 13.4927 17.3255 13.0206 17.5295 12.6574C17.7336 12.2943 18.0609 12.0699 18.4394 12.0335C18.4869 12.029 18.5349 12.0274 18.5833 12.0289L18.5835 12.0293ZM14.443 15.7596C14.8683 15.7597 15.2957 15.9229 15.6312 16.2134C15.9666 16.5039 16.1826 16.898 16.2318 17.3089C16.2808 17.7197 16.1588 18.1138 15.8928 18.4043C15.6267 18.6948 15.2383 18.858 14.8131 18.8581C14.3877 18.8581 13.9603 18.6949 13.6248 18.4044C13.2893 18.1139 13.0733 17.7198 13.0241 17.3089C12.9998 17.1054 13.0172 16.9038 13.0754 16.7158C13.1335 16.5278 13.2313 16.357 13.363 16.2131C13.4948 16.0691 13.658 15.955 13.8433 15.8771C14.0286 15.7992 14.2324 15.7592 14.443 15.7592V15.7596ZM28.2464 15.9688C28.6163 15.9868 28.9535 16.145 29.2031 16.4177C29.3484 16.5764 29.4601 16.7695 29.5318 16.9861C29.6036 17.2028 29.634 17.4386 29.6213 17.6802C29.6086 17.9219 29.5531 18.1645 29.4579 18.3943C29.3627 18.6242 29.2297 18.8367 29.0665 19.0198C28.9033 19.2028 28.7131 19.3528 28.5068 19.4612C28.3004 19.5697 28.082 19.6343 27.8639 19.6516C27.6457 19.6689 27.4323 19.6384 27.2356 19.5619C27.039 19.4853 26.863 19.3643 26.7178 19.2057C26.5725 19.047 26.4608 18.8539 26.3891 18.6372C26.3174 18.4206 26.287 18.1847 26.2997 17.9431C26.3124 17.7015 26.3679 17.4589 26.4631 17.229C26.5583 16.9992 26.6913 16.7867 26.8545 16.6036C27.0417 16.3936 27.2641 16.2274 27.5052 16.1175C27.7462 16.0076 27.9997 15.9567 28.2466 15.9688H28.2464ZM20.083 17.2789C20.2228 17.8777 20.1667 18.5069 20.1556 19.073C20.1411 19.818 20.19 20.4005 20.5723 20.751C20.6281 20.8021 20.9482 20.896 21.2546 20.8984C21.4078 20.8996 21.5565 20.888 21.6633 20.8733C21.7131 20.8664 21.7511 20.8589 21.775 20.8534L22.3853 20.4145L22.3862 20.4139C22.5953 20.2653 22.795 19.9746 22.8948 19.6578C22.9947 19.3409 22.9919 19.0104 22.8948 18.791C22.6684 18.2787 22.1992 17.8882 21.5908 17.6281C21.1347 17.4326 20.6064 17.3164 20.0828 17.2789L20.083 17.2789ZM23.245 21.2074L22.5714 21.723L29.0767 30.2173L29.7499 29.7018L23.2449 21.2076L23.245 21.2074ZM13.8536 24.0274C14.3714 24.0274 14.8917 24.2637 15.3002 24.6843C15.7086 25.105 15.9716 25.6755 16.0314 26.2704C16.061 26.565 16.0398 26.8567 15.969 27.1288C15.8982 27.401 15.7792 27.6482 15.6188 27.8565C15.4584 28.0648 15.2597 28.23 15.0341 28.3428C14.8085 28.4555 14.5605 28.5135 14.304 28.5134C13.7862 28.5134 13.2659 28.2771 12.8574 27.8565C12.449 27.4358 12.186 26.8653 12.1262 26.2704C12.0967 25.9758 12.1179 25.6841 12.1887 25.412C12.2595 25.1398 12.3785 24.8926 12.5389 24.6843C12.6993 24.476 12.8979 24.3108 13.1235 24.1981C13.3491 24.0854 13.5972 24.0274 13.8536 24.0274Z" fill="#EFEFF0"/>
</svg>
