<svg width="41" height="40" viewBox="0 0 41 40" fill="none" xmlns="http://www.w3.org/2000/svg">
<rect x="0.5" width="40" height="40" rx="20" fill="#2D2D2D"/>
<path d="M20.4729 8.85997C15.2658 8.85997 10.9039 12.4401 9.70972 17.2756C9.15345 20.5896 10.236 24.0136 12.5245 26.3806C12.2885 27.7119 12.2579 29.2753 12.2579 31.0934H13.1338C13.1338 28.4209 13.2326 26.372 13.8313 24.9648C14.4302 23.5576 15.4665 22.7156 17.6467 22.3056L18.3784 22.1681L17.9027 21.5953C17.1357 20.6719 16.6268 19.3386 16.6268 17.8528C16.6268 16.4191 17.0855 15.1286 17.803 14.2125C18.5206 13.2966 19.4768 12.7598 20.5213 12.7598C21.5658 12.7598 22.5221 13.2966 23.2396 14.2125C23.9571 15.1286 24.4159 16.4191 24.4159 17.8528C24.4159 19.3093 23.9654 20.6208 23.2353 21.5348L22.7648 22.1238L23.5094 22.2409C25.8855 22.6145 26.8924 23.4593 27.4362 24.8845C27.9798 26.3097 27.9758 28.4066 27.9758 31.0933H28.8519C28.8519 29.6829 28.8631 28.4187 28.7813 27.291C30.5105 25.3359 31.5601 22.7657 31.5601 19.9472C31.5601 13.8186 26.6014 8.85983 20.4728 8.85983L20.4729 8.85997ZM20.8573 10.8967C22.2692 10.9014 23.6932 11.2365 24.9935 11.9277C29.6351 14.3953 31.2072 20.346 28.7682 24.9022C28.683 25.0612 28.5937 25.2164 28.5011 25.3686C28.4329 25.0923 28.3517 24.8269 28.2547 24.5725C28.2127 24.4625 28.1669 24.3552 28.1181 24.2501C30.1546 20.145 28.6991 14.89 24.5823 12.7014C23.4127 12.0796 22.1304 11.7786 20.8587 11.7744C18.0611 11.7651 15.315 13.1915 13.9348 15.7962C12.7204 18.0879 12.8773 20.8592 14.1797 22.9605C13.9537 23.1702 13.7526 23.3982 13.5747 23.644C11.981 21.2586 11.7543 18.04 13.1606 15.3861C14.7033 12.4748 17.751 10.8864 20.8572 10.8968L20.8573 10.8967ZM24.9193 15.5326C26.6838 17.2773 27.2737 19.9826 26.4492 22.3552C26.2095 22.2028 25.9477 22.065 25.663 21.9422C26.1401 20.4568 25.9862 18.8322 25.2828 17.4891C25.2499 16.8 25.1242 16.1413 24.9193 15.5325L24.9193 15.5326ZM15.9494 16.1395C15.8199 16.6831 15.7506 17.2581 15.7506 17.8528C15.7506 18.2024 15.7756 18.545 15.823 18.8781C15.7324 19.8659 15.9659 20.8671 16.4891 21.6943C16.1914 21.7852 15.9124 21.8889 15.6515 22.0054C14.7556 20.4705 14.6651 18.4935 15.5195 16.8391C15.6472 16.5916 15.7913 16.3584 15.9494 16.1395ZM18.783 17.5148C18.0426 17.5244 17.8811 17.7297 17.6324 17.8968C18.2175 18.4588 19.3621 18.4046 19.8706 17.8968C19.6366 17.7073 19.3845 17.507 18.783 17.5148ZM22.2841 17.5231C21.5437 17.5327 21.3822 17.7381 21.1335 17.9051C21.7186 18.4672 22.8632 18.4129 23.3717 17.9051C23.1377 17.7156 22.8856 17.5153 22.284 17.5231H22.2841Z" fill="#EFEFF0"/>
</svg>
