<svg width="40" height="40" viewBox="0 0 40 40" fill="none" xmlns="http://www.w3.org/2000/svg">
<rect width="40" height="40" rx="20" fill="#2D2D2D"/>
<path d="M25.9202 9.73297C26.5812 10.5195 27.0874 11.2189 27.439 11.833C28.0624 12.9266 28.2452 13.8125 28.0906 14.5484C27.9406 15.2891 27.4624 15.8188 26.9609 16.2313C26.4687 16.6391 25.9343 16.9672 25.5406 17.3047C25.4562 17.3891 25.4515 17.4359 25.4796 17.5531C25.5077 17.675 25.6156 17.8438 25.789 17.9844C26.1406 18.2656 26.7077 18.4203 27.3077 18.1203C28.3765 17.5859 29.1031 16.9344 29.4921 16.2313C29.8859 15.5281 29.9702 14.7781 29.7171 13.9344C29.3327 12.6538 28.1046 11.1786 25.9202 9.73297ZM14.0749 9.73297C11.8901 11.1795 10.6624 12.6542 10.279 13.9344C10.0263 14.7781 10.1088 15.5281 10.5012 16.2313C10.8935 16.9344 11.6187 17.5859 12.6874 18.1203V18.125C13.2874 18.4203 13.8499 18.2656 14.2015 17.9844C14.3749 17.8438 14.4827 17.675 14.5109 17.5531C14.539 17.4359 14.5343 17.3891 14.4499 17.3047C14.0609 16.9672 13.5265 16.6391 13.0296 16.2313C12.5295 15.8188 12.0546 15.2891 11.9023 14.5531C11.7499 13.8125 11.9323 12.9313 12.5548 11.8339C12.9031 11.2203 13.4093 10.5209 14.0749 9.73485V9.73297ZM16.1046 15.0641C15.7484 15.0688 15.3874 15.1109 15.0312 15.1906C14.5718 15.2938 14.1265 15.4625 13.7093 15.6922C14.1171 16.0109 14.5999 16.3109 15.0218 16.6813L15.0312 16.6906L15.0452 16.7C15.3312 16.9906 15.4156 17.4078 15.3312 17.7594C15.2421 18.1063 15.0218 18.4063 14.7265 18.6406C14.1406 19.1094 13.2077 19.3297 12.311 18.875C12.0579 18.7484 11.8193 18.6172 11.5952 18.4719C11.4837 18.9125 11.4223 19.4 11.4223 19.9344C11.4223 21.95 13.189 24.1531 15.2281 26.0984C16.2499 27.0734 17.3234 27.9828 18.2421 28.7984C18.9499 29.4219 19.5593 29.9797 19.9999 30.5C20.4406 29.9797 21.0499 29.4219 21.7577 28.7984C22.6765 27.9828 23.7499 27.0734 24.7718 26.0984C26.8109 24.1531 28.5781 21.95 28.5781 19.9344C28.5781 19.4 28.5171 18.9125 28.4046 18.4719C28.1796 18.6172 27.9406 18.7531 27.6827 18.8797C26.7827 19.3297 25.8499 19.1094 25.264 18.6406C24.9687 18.4063 24.7484 18.1063 24.6593 17.7594C24.5749 17.4078 24.6593 16.9906 24.9452 16.7L24.9593 16.6906L24.9687 16.6813C25.3952 16.3109 25.8781 16.0109 26.2859 15.6922C25.8734 15.4625 25.4281 15.2938 24.9687 15.1906C23.0656 14.7594 21.0499 15.4531 20.3937 17.0938L19.9999 18.0734L19.6062 17.0938C19.0765 15.7578 17.6421 15.05 16.1046 15.0641ZM15.2702 19.85C16.2359 21.1859 17.5906 22.2125 19.2499 23C16.8031 24.5891 14.3656 23.1922 15.2702 19.85ZM24.7296 19.85C25.6343 23.1922 23.1968 24.5891 20.7499 23C22.4093 22.2125 23.764 21.1859 24.7296 19.85Z" fill="#EFEFF0"/>
</svg>
