<svg width="29" height="28" viewBox="0 0 29 28" fill="none" xmlns="http://www.w3.org/2000/svg">
<g clip-path="url(#clip0_1469_1272)">
<path d="M14.5001 14.0001C17.0784 14.0001 19.1667 11.9117 19.1667 9.33342C19.1667 6.75508 17.0784 4.66675 14.5001 4.66675C11.9217 4.66675 9.83342 6.75508 9.83342 9.33342C9.83342 11.9117 11.9217 14.0001 14.5001 14.0001ZM14.5001 16.3334C11.3851 16.3334 5.16675 17.8967 5.16675 21.0001V22.1667C5.16675 22.8084 5.69175 23.3334 6.33341 23.3334H22.6667C23.3084 23.3334 23.8334 22.8084 23.8334 22.1667V21.0001C23.8334 17.8967 17.6151 16.3334 14.5001 16.3334Z" fill="currentColor"/>
</g>
<defs>
<clipPath id="clip0_1469_1272">
<rect width="28" height="28" fill="white" transform="translate(0.5)"/>
</clipPath>
</defs>
</svg>
