<svg width="20" height="20" viewBox="0 0 20 20" fill="none" xmlns="http://www.w3.org/2000/svg">
<rect width="20" height="20" rx="2.22222" fill="#F5432D"/>
<g clip-path="url(#clip0_8_90)">
<path d="M15.6185 5.28429C15.888 5.28429 16.1467 5.39064 16.3373 5.58116C16.5278 5.7717 16.6351 6.03046 16.6351 6.29991C16.6351 6.56939 16.5278 6.82808 16.3373 7.01866L8.50037 14.8556C8.103 15.2529 7.46023 15.2529 7.06287 14.8556L3.96619 11.7599C3.87183 11.6655 3.79753 11.5531 3.74646 11.4298C3.69541 11.3066 3.66934 11.1745 3.66931 11.0411C3.66931 10.7717 3.77574 10.5129 3.96619 10.3224C4.15672 10.1318 4.41548 10.0246 4.68494 10.0245C4.95447 10.0245 5.21309 10.1318 5.40369 10.3224L7.77771 12.6964L14.8998 5.58116C15.0904 5.39065 15.349 5.28429 15.6185 5.28429Z" fill="#EFEFF0" stroke="#EFEFF0" stroke-width="0.555556"/>
</g>
<defs>
<clipPath id="clip0_8_90">
<rect width="14.4444" height="11.1111" fill="white" transform="translate(3.33337 4.44444)"/>
</clipPath>
</defs>
</svg>
