<svg width="20" height="20" viewBox="0 0 20 20" fill="none" xmlns="http://www.w3.org/2000/svg">
<rect x="0.5" y="0.5" width="19" height="19" rx="1.72222" fill="#212121"/>
<rect x="0.5" y="0.5" width="19" height="19" rx="1.72222" stroke="#464646"/>
<path d="M15.6185 5.28421C15.888 5.28421 16.1467 5.39057 16.3373 5.58109C16.5278 5.77162 16.6351 6.03038 16.6351 6.29984C16.6351 6.56932 16.5278 6.828 16.3373 7.01859L8.50037 14.8555C8.103 15.2529 7.46023 15.2529 7.06287 14.8555L3.96619 11.7598C3.87183 11.6654 3.79753 11.553 3.74646 11.4297C3.69541 11.3065 3.66934 11.1744 3.66931 11.041C3.66931 10.7716 3.77574 10.5129 3.96619 10.3223C4.15672 10.1318 4.41548 10.0245 4.68494 10.0244C4.95447 10.0244 5.21309 10.1317 5.40369 10.3223L7.77771 12.6963L14.8998 5.58109C15.0904 5.39057 15.349 5.28421 15.6185 5.28421Z" fill="#464646" stroke="#464646" stroke-width="0.555556"/>
</svg>
