<svg width="28" height="28" viewBox="0 0 28 28" fill="none" xmlns="http://www.w3.org/2000/svg">
<path d="M14 25.9822C13.8353 25.9835 13.6733 25.9408 13.5306 25.8587L3.95712 20.3246C3.81649 20.2434 3.70002 20.1262 3.61969 19.9851C3.53936 19.844 3.49807 19.684 3.50007 19.5217V8.47822C3.49807 8.31585 3.53936 8.15588 3.61969 8.01476C3.70002 7.87364 3.81649 7.75646 3.95712 7.67528L13.5306 2.14121C13.6722 2.06224 13.8317 2.02078 13.9938 2.02078C14.156 2.02078 14.3154 2.06224 14.457 2.14121L24.0305 7.67528C24.1743 7.75384 24.294 7.87009 24.3767 8.01156C24.4594 8.15303 24.502 8.31436 24.4999 8.47822V19.5217C24.502 19.6855 24.4594 19.8469 24.3767 19.9883C24.294 20.1298 24.1743 20.246 24.0305 20.3246L14.457 25.8587C14.3194 25.9422 14.161 25.985 14 25.9822ZM5.353 18.9411L14 23.8822L22.647 18.9411V9.0588L14 4.11766L5.353 9.0588V18.9411Z" fill="currentColor"/>
<path d="M13.7257 20.9308C13.8091 20.9788 13.9038 21.0037 14.0001 21.003C14.0941 21.0046 14.1867 20.9796 14.2672 20.9308L19.8619 17.6967C19.9459 17.6508 20.0159 17.5829 20.0642 17.5002C20.1125 17.4175 20.1374 17.3232 20.1362 17.2275V10.7737C20.1374 10.678 20.1125 10.5837 20.0642 10.501C20.0159 10.4183 19.9459 10.3504 19.8619 10.3045L14.2672 7.07038C14.1844 7.02423 14.0912 7 13.9965 7C13.9017 7 13.8085 7.02423 13.7257 7.07038L8.13103 10.3045C8.04885 10.3519 7.98078 10.4204 7.93384 10.5029C7.88689 10.5853 7.86276 10.6788 7.86393 10.7737V17.2275C7.86276 17.3224 7.88689 17.4158 7.93384 17.4983C7.98078 17.5808 8.04885 17.6493 8.13103 17.6967L13.7257 20.9308Z" fill="currentColor"/>
</svg>
