<svg width="28" height="28" viewBox="0 0 28 28" fill="none" xmlns="http://www.w3.org/2000/svg">
<path d="M22.1667 3.49999H21V2.33332C21 1.69166 20.475 1.16666 19.8333 1.16666C19.1917 1.16666 18.6667 1.69166 18.6667 2.33332V3.49999H9.33333V2.33332C9.33333 1.69166 8.80833 1.16666 8.16667 1.16666C7.525 1.16666 7 1.69166 7 2.33332V3.49999H5.83333C4.53833 3.49999 3.51167 4.54999 3.51167 5.83332L3.5 22.1667C3.5 23.45 4.53833 24.5 5.83333 24.5H22.1667C23.45 24.5 24.5 23.45 24.5 22.1667V5.83332C24.5 4.54999 23.45 3.49999 22.1667 3.49999ZM21 22.1667H7C6.35833 22.1667 5.83333 21.6417 5.83333 21V9.33332H22.1667V21C22.1667 21.6417 21.6417 22.1667 21 22.1667ZM9.33333 11.6667H12.8333C13.475 11.6667 14 12.1917 14 12.8333V16.3333C14 16.975 13.475 17.5 12.8333 17.5H9.33333C8.69167 17.5 8.16667 16.975 8.16667 16.3333V12.8333C8.16667 12.1917 8.69167 11.6667 9.33333 11.6667Z" fill="currentColor"/>
</svg>
