<svg width="28" height="28" viewBox="0 0 28 28" fill="none" xmlns="http://www.w3.org/2000/svg">
<path d="M14.5927 15.3038V21.7844C14.5927 22.3785 15.0787 22.8645 15.6728 22.8645H22.1534C22.7475 22.8645 23.2335 22.3785 23.2335 21.7844V15.3038C23.2335 14.7097 22.7475 14.2237 22.1534 14.2237H15.6728C15.0787 14.2237 14.5927 14.7097 14.5927 15.3038ZM4.87173 22.8645H11.3524C11.9464 22.8645 12.4325 22.3785 12.4325 21.7844V15.3038C12.4325 14.7097 11.9464 14.2237 11.3524 14.2237H4.87173C4.27767 14.2237 3.79163 14.7097 3.79163 15.3038V21.7844C3.79163 22.3785 4.27767 22.8645 4.87173 22.8645ZM3.79163 4.50275V10.9834C3.79163 11.5774 4.27767 12.0635 4.87173 12.0635H11.3524C11.9464 12.0635 12.4325 11.5774 12.4325 10.9834V4.50275C12.4325 3.90869 11.9464 3.42264 11.3524 3.42264H4.87173C4.27767 3.42264 3.79163 3.90869 3.79163 4.50275ZM17.779 2.77458L13.1885 7.35422C12.7673 7.77546 12.7673 8.45593 13.1885 8.87717L17.779 13.4676C18.2002 13.8889 18.8807 13.8889 19.3019 13.4676L23.8924 8.87717C24.3136 8.45593 24.3136 7.77546 23.8924 7.35422L19.3127 2.77458C18.8915 2.35334 18.2002 2.35334 17.779 2.77458Z" fill="currentColor"/>
</svg>
