<svg width="99" height="100" viewBox="0 0 99 100" fill="none" xmlns="http://www.w3.org/2000/svg">
<g clip-path="url(#clip0_1128_3011)">
<path d="M8.55198 12.282C9.2477 11.6401 10.2332 11.4184 11.1368 11.7006L17.8138 13.7855C18.7165 14.0674 19.4003 14.8092 19.6079 15.7319L21.1447 22.5637C21.3523 23.4863 21.052 24.4496 20.357 25.0909L15.2161 29.8343C14.5204 30.4762 13.5349 30.6979 12.6313 30.4158L5.9543 28.3308C5.05161 28.049 4.36777 27.3071 4.16022 26.3845L2.62335 19.5527C2.4158 18.63 2.71605 17.6668 3.41107 17.0255L8.55198 12.282Z" fill="white"/>
<path opacity="0.2" d="M8.55222 12.282C9.24794 11.6401 10.2334 11.4184 11.137 11.7006L17.814 13.7855C18.7167 14.0674 19.4006 14.8092 19.6081 15.7319L21.145 22.5637C21.3525 23.4863 21.0523 24.4496 20.3573 25.0909L15.2163 29.8343C14.5206 30.4762 13.5351 30.6979 12.6315 30.4158L5.95454 28.3308C5.05185 28.049 4.36801 27.3071 4.16046 26.3845L2.62359 19.5527C2.41604 18.63 2.7163 17.6668 3.41132 17.0255L8.55222 12.282Z" fill="url(#paint0_linear_1128_3011)"/>
<path d="M8.55198 12.282C9.2477 11.6401 10.2332 11.4184 11.1368 11.7006L17.8138 13.7855C18.7165 14.0674 19.4003 14.8092 19.6079 15.7319L21.1447 22.5637C21.3523 23.4863 21.052 24.4496 20.357 25.0909L15.2161 29.8343C14.5204 30.4762 13.5349 30.6979 12.6313 30.4158L5.9543 28.3308C5.05161 28.049 4.36777 27.3071 4.16022 26.3845L2.62335 19.5527C2.4158 18.63 2.71605 17.6668 3.41107 17.0255L8.55198 12.282Z" fill="url(#paint1_radial_1128_3011)" fill-opacity="0.8"/>
<path d="M8.80367 12.555C9.40157 12.0034 10.2489 11.8129 11.0255 12.0552L17.7026 14.1406C18.4786 14.3829 19.0667 15.0205 19.2451 15.8136L20.782 22.6458C20.9602 23.4387 20.7019 24.267 20.1046 24.8181L14.9636 29.5611C14.3656 30.1127 13.5184 30.3034 12.7418 30.0609L6.06484 27.9765C5.28912 27.7342 4.70185 27.0961 4.52332 26.3033L2.98637 19.4711C2.80799 18.6782 3.06565 17.8502 3.66286 17.299L8.80367 12.555Z" stroke="url(#paint2_linear_1128_3011)" stroke-opacity="0.4" stroke-width="0.743646"/>
<path d="M77.0263 1.60522C76.7255 1.17929 76.2201 0.946382 75.7009 0.994321L71.8639 1.34856C71.3451 1.39645 70.8913 1.71736 70.6732 2.19048L69.0586 5.6938C68.8405 6.16691 68.8914 6.72041 69.1919 7.14591L71.4151 10.2932C71.716 10.7191 72.2213 10.9521 72.7406 10.9041L76.5776 10.5499C77.0963 10.502 77.5501 10.1811 77.7682 9.70796L79.3828 6.20463C79.6009 5.73152 79.5501 5.17803 79.2495 4.75253L77.0263 1.60522Z" fill="white"/>
<path opacity="0.2" d="M77.0263 1.60522C76.7255 1.17929 76.2201 0.946382 75.7009 0.994321L71.8639 1.34856C71.3451 1.39645 70.8913 1.71736 70.6732 2.19048L69.0586 5.6938C68.8405 6.16691 68.8914 6.72041 69.1919 7.14591L71.4151 10.2932C71.716 10.7191 72.2213 10.9521 72.7406 10.9041L76.5776 10.5499C77.0963 10.502 77.5501 10.1811 77.7682 9.70796L79.3828 6.20463C79.6009 5.73152 79.5501 5.17803 79.2495 4.75253L77.0263 1.60522Z" fill="url(#paint3_linear_1128_3011)"/>
<path d="M77.0263 1.60522C76.7255 1.17929 76.2201 0.946382 75.7009 0.994321L71.8639 1.34856C71.3451 1.39645 70.8913 1.71736 70.6732 2.19048L69.0586 5.6938C68.8405 6.16691 68.8914 6.72041 69.1919 7.1459L71.4151 10.2932C71.716 10.7191 72.2213 10.9521 72.7406 10.9041L76.5776 10.5499C77.0963 10.502 77.5501 10.1811 77.7682 9.70796L79.3828 6.20463C79.6009 5.73152 79.5501 5.17803 79.2495 4.75253L77.0263 1.60522Z" fill="url(#paint4_radial_1128_3011)" fill-opacity="0.8"/>
<path d="M76.723 1.81986C76.4988 1.50251 76.1219 1.32878 75.735 1.3645L71.8984 1.71891C71.5119 1.75459 71.1729 1.99369 71.0104 2.3462L69.3958 5.84944C69.2334 6.20191 69.2722 6.61423 69.4961 6.93121L71.7189 10.0783C71.9431 10.3956 72.32 10.5694 72.7069 10.5336L76.5434 10.1792C76.9298 10.1435 77.2677 9.9048 77.4302 9.55242L79.0448 6.04917C79.2073 5.69666 79.1697 5.28397 78.9457 4.96693L76.723 1.81986Z" stroke="url(#paint5_linear_1128_3011)" stroke-opacity="0.4" stroke-width="0.743646"/>
<path d="M85.6107 78.9971C85.3951 82.1386 83.5265 84.9293 80.7036 86.3247L56.765 98.1583C54.4048 99.325 51.6478 99.3803 49.2428 98.3091L22.1401 86.2375C19.1477 84.9046 17.136 82.0275 16.9116 78.7594L14.5437 45.1328L53.0393 57.5222L87.995 45.1328L85.6107 78.9971Z" fill="url(#paint6_linear_1128_3011)"/>
<g filter="url(#filter0_i_1128_3011)">
<path d="M85.6107 78.9971C85.3951 82.1386 83.5265 84.9293 80.7036 86.3247L56.765 98.1583C54.4048 99.325 51.6478 99.3803 49.2428 98.3091L22.1401 86.2375C19.1477 84.9046 17.136 82.0275 16.9116 78.7594L14.5437 45.1328L53.0393 57.5222L87.995 45.1328L85.6107 78.9971Z" fill="white" fill-opacity="0.1"/>
</g>
<path d="M85.6566 42.8321C87.5602 43.4228 88.8339 45.2133 88.7676 47.2053L88.517 54.7318C88.4617 56.3867 87.4869 57.8722 85.9909 58.5819L56.649 71.6151C54.3786 72.692 51.7569 72.7531 49.4389 71.7827L16.7336 58.9768C15.1362 58.308 14.0757 56.7686 14.0199 55.0377L13.7715 47.3312C13.7054 45.2807 15.0575 43.4537 17.0378 42.9176L43.9109 35.643C50.3921 33.8886 57.2385 34.0137 63.6512 36.0036L85.6566 42.8321Z" fill="url(#paint7_linear_1128_3011)"/>
<mask id="mask0_1128_3011" style="mask-type:alpha" maskUnits="userSpaceOnUse" x="13" y="34" width="76" height="40">
<path d="M85.6566 42.8321C87.5602 43.4228 88.8339 45.2133 88.7676 47.2053L88.517 54.7318C88.4617 56.3867 87.4869 57.8722 85.9909 58.5819L56.649 72.5C54.3786 73.577 51.7569 73.638 49.4389 72.6677L16.7336 58.9768C15.1362 58.308 14.0757 56.7686 14.0199 55.0377L13.7715 47.3312C13.7054 45.2807 15.0575 43.4537 17.0378 42.9176L43.9109 35.643C50.3921 33.8886 57.2385 34.0137 63.6512 36.0036L85.6566 42.8321Z" fill="url(#paint8_linear_1128_3011)"/>
</mask>
<g mask="url(#mask0_1128_3011)">
<g filter="url(#filter1_f_1128_3011)">
<path d="M44.7174 35.4245C50.6848 33.8091 56.9522 33.9246 62.8631 35.7588L86.3435 43.0451C87.1418 43.2929 87.1748 44.479 86.3916 44.7761L55.8109 56.3785C54.0205 57.0578 52.068 57.0878 50.2598 56.4637L16.4733 44.8036C15.6555 44.5213 15.6934 43.2813 16.5267 43.0557L44.7174 35.4245Z" fill="white"/>
</g>
</g>
<g filter="url(#filter2_i_1128_3011)">
<path d="M85.6566 42.8321C87.5602 43.4228 88.8339 45.2133 88.7676 47.2053L88.517 54.7318C88.4617 56.3867 87.4869 57.8722 85.9909 58.5819L56.649 71.6151C54.3786 72.692 51.7569 72.7531 49.4389 71.7827L16.7336 58.9768C15.1362 58.308 14.0757 56.7686 14.0199 55.0377L13.7715 47.3312C13.7054 45.2807 15.0575 43.4537 17.0378 42.9176L43.9109 35.643C50.3921 33.8886 57.2385 34.0137 63.6512 36.0036L85.6566 42.8321Z" fill="white" fill-opacity="0.1"/>
</g>
<path d="M69.0115 56.9048L69.4107 92.0355L77.7578 88.034C78.0649 87.8868 78.2603 87.5765 78.2603 87.236V53.0657C78.2603 50.7209 76.7222 48.6537 74.4763 47.9799L38.6749 37.2395C38.5194 37.1929 38.3542 37.1899 38.1972 37.2308L28.2603 39.8231L65.3482 51.917C67.5121 52.6226 68.9856 54.6289 69.0115 56.9048Z" fill="url(#paint9_linear_1128_3011)"/>
<path d="M36.2679 56.9828L36.6672 92.9205L28.3268 89.1674C28.0158 89.0274 27.8128 88.721 27.8053 88.38L27.0216 53.1148C26.969 50.7469 28.4911 48.6304 30.7527 47.9268L66.4898 36.8085C66.6629 36.7547 66.8483 36.7553 67.0211 36.8103L76.4902 39.8232L39.9149 51.881C37.7175 52.6054 36.2422 54.6692 36.2679 56.9828Z" fill="url(#paint10_linear_1128_3011)"/>
<g filter="url(#filter3_i_1128_3011)">
<path d="M69.0115 56.9048L69.4107 92.0355L77.7578 88.034C78.0649 87.8868 78.2603 87.5765 78.2603 87.236V53.0657C78.2603 50.7209 76.7222 48.6537 74.4763 47.9799L38.6749 37.2395C38.5194 37.1929 38.3542 37.1899 38.1972 37.2308L28.2603 39.8231L65.3482 51.917C67.5121 52.6226 68.9856 54.6289 69.0115 56.9048Z" fill="white" fill-opacity="0.05"/>
<path d="M36.2679 56.9828L36.6672 92.9205L28.3268 89.1674C28.0158 89.0274 27.8128 88.721 27.8053 88.38L27.0216 53.1148C26.969 50.7469 28.4911 48.6304 30.7527 47.9268L66.4898 36.8085C66.6629 36.7547 66.8483 36.7553 67.0211 36.8103L76.4902 39.8232L39.9149 51.881C37.7175 52.6054 36.2422 54.6692 36.2679 56.9828Z" fill="white" fill-opacity="0.05"/>
</g>
<path d="M76.5396 52.3132C79.6005 54.8673 82.256 67.3575 79.138 72.6672L85.8937 66.915C87.626 62.1952 87.3955 53.0974 85.8937 50.9858C82.9945 46.9093 72.9019 44.3486 67.1855 43.0211C62.6124 41.9592 52.1003 44.6436 49.4946 46.1185C50.2555 46.1794 55.1189 46.182 55.7527 46.1185C64.5872 45.2336 72.9584 49.3249 76.5396 52.3132Z" fill="url(#paint11_linear_1128_3011)"/>
<path d="M28.8476 52.3132C25.7867 54.8673 23.1312 67.3575 26.2492 72.6672L19.4935 66.915C17.7612 62.1952 17.9917 53.0974 19.4935 50.9858C22.3927 46.9093 32.4853 44.3486 38.2017 43.0211C42.7748 41.9592 53.2869 44.6436 55.8926 46.1185C55.1318 46.1794 50.2683 46.182 49.6345 46.1185C40.8001 45.2336 32.4288 49.3249 28.8476 52.3132Z" fill="url(#paint12_linear_1128_3011)"/>
<g filter="url(#filter4_i_1128_3011)">
<path d="M76.5396 52.3132C79.6005 54.8673 82.256 67.3575 79.138 72.6672L85.8937 66.915C87.626 62.1952 87.3955 53.0974 85.8937 50.9858C82.9945 46.9093 72.9019 44.3486 67.1855 43.0211C62.6124 41.9592 52.1003 44.6436 49.4946 46.1185C50.2555 46.1794 55.1189 46.182 55.7527 46.1185C64.5872 45.2336 72.9584 49.3249 76.5396 52.3132Z" fill="white" fill-opacity="0.15"/>
<path d="M28.8476 52.3132C25.7868 54.8673 23.1312 67.3575 26.2492 72.6672L19.4935 66.915C17.7612 62.1952 17.9917 53.0974 19.4935 50.9858C22.3927 46.9093 32.4853 44.3486 38.2017 43.0211C42.7748 41.9592 53.2869 44.6436 55.8926 46.1185C55.1318 46.1794 50.2683 46.182 49.6345 46.1185C40.8001 45.2336 32.4288 49.3249 28.8476 52.3132Z" fill="white" fill-opacity="0.15"/>
</g>
<path d="M29.7235 26.1206C19.5859 31.0112 39.561 44.9812 49.9043 46.0242C49.7376 43.7489 49.4137 41.5914 48.9471 39.5848C40.7364 39.1165 28.6314 30.2184 29.7235 26.1206Z" fill="#FFE100"/>
<path d="M29.7922 26.0866C52.8008 11.475 52.5017 33.3531 49.4761 46.1185C49.3135 43.8286 48.9976 41.6571 48.5425 39.6376C45.9527 28.1477 38.852 21.5767 29.7922 26.0866Z" fill="url(#paint13_linear_1128_3011)"/>
<path d="M77.0319 26.1206C87.9269 31.0112 66.4592 44.9812 55.3431 46.0242C55.5223 43.7489 55.8703 41.5914 56.3719 39.5848C65.196 39.1165 78.2056 30.2184 77.0319 26.1206Z" fill="#FFE100"/>
<path d="M77.1782 26.0866C52.4504 11.475 52.7718 33.3531 56.0235 46.1185C56.1983 43.8286 56.5377 41.6571 57.0269 39.6376C59.8102 28.1477 67.4415 21.5767 77.1782 26.0866Z" fill="url(#paint14_linear_1128_3011)"/>
<g filter="url(#filter5_i_1128_3011)">
<path d="M29.7235 26.1206C19.5859 31.0112 39.561 44.9812 49.9043 46.0242C49.7376 43.7489 49.4137 41.5914 48.9471 39.5848C40.7364 39.1165 28.6314 30.2184 29.7235 26.1206Z" fill="white" fill-opacity="0.05"/>
<path d="M29.7922 26.0866C52.8008 11.475 52.5017 33.3531 49.4761 46.1185C49.3135 43.8286 48.9976 41.6571 48.5425 39.6376C45.9527 28.1477 38.852 21.5767 29.7922 26.0866Z" fill="white" fill-opacity="0.05"/>
</g>
<g filter="url(#filter6_i_1128_3011)">
<path d="M77.0319 26.1206C87.9269 31.0112 66.4592 44.9812 55.3431 46.0242C55.5223 43.7489 55.8703 41.5914 56.3719 39.5848C65.196 39.1165 78.2056 30.2184 77.0319 26.1206Z" fill="white" fill-opacity="0.05"/>
<path d="M77.1782 26.0866C52.4504 11.475 52.7718 33.3531 56.0235 46.1185C56.1983 43.8286 56.5377 41.6571 57.0269 39.6376C59.8102 28.1477 67.4415 21.5767 77.1782 26.0866Z" fill="white" fill-opacity="0.05"/>
</g>
<path d="M49.0566 43.5841C49.0566 41.5069 50.7405 39.823 52.8177 39.823C54.8949 39.823 56.5788 41.5069 56.5788 43.5841V46.0177C56.5788 46.7508 55.9845 47.3451 55.2513 47.3451H50.3841C49.651 47.3451 49.0566 46.7508 49.0566 46.0177V43.5841Z" fill="url(#paint15_linear_1128_3011)"/>
<g filter="url(#filter7_i_1128_3011)">
<path d="M49.0566 43.5841C49.0566 41.5069 50.7405 39.823 52.8177 39.823C54.8949 39.823 56.5788 41.5069 56.5788 43.5841V46.0177C56.5788 46.7508 55.9845 47.3451 55.2513 47.3451H50.3841C49.651 47.3451 49.0566 46.7508 49.0566 46.0177V43.5841Z" fill="white" fill-opacity="0.05"/>
</g>
</g>
<defs>
<filter id="filter0_i_1128_3011" x="14.5437" y="45.1328" width="73.4514" height="53.9419" filterUnits="userSpaceOnUse" color-interpolation-filters="sRGB">
<feFlood flood-opacity="0" result="BackgroundImageFix"/>
<feBlend mode="normal" in="SourceGraphic" in2="BackgroundImageFix" result="shape"/>
<feColorMatrix in="SourceAlpha" type="matrix" values="0 0 0 0 0 0 0 0 0 0 0 0 0 0 0 0 0 0 127 0" result="hardAlpha"/>
<feOffset/>
<feGaussianBlur stdDeviation="12.1681"/>
<feComposite in2="hardAlpha" operator="arithmetic" k2="-1" k3="1"/>
<feColorMatrix type="matrix" values="0 0 0 0 1 0 0 0 0 1 0 0 0 0 1 0 0 0 0.8 0"/>
<feBlend mode="normal" in2="shape" result="effect1_innerShadow_1128_3011"/>
</filter>
<filter id="filter1_f_1128_3011" x="12.3405" y="30.7527" width="78.1602" height="29.6981" filterUnits="userSpaceOnUse" color-interpolation-filters="sRGB">
<feFlood flood-opacity="0" result="BackgroundImageFix"/>
<feBlend mode="normal" in="SourceGraphic" in2="BackgroundImageFix" result="shape"/>
<feGaussianBlur stdDeviation="1.76991" result="effect1_foregroundBlur_1128_3011"/>
</filter>
<filter id="filter2_i_1128_3011" x="13.7693" y="34.4133" width="75.0007" height="38.0557" filterUnits="userSpaceOnUse" color-interpolation-filters="sRGB">
<feFlood flood-opacity="0" result="BackgroundImageFix"/>
<feBlend mode="normal" in="SourceGraphic" in2="BackgroundImageFix" result="shape"/>
<feColorMatrix in="SourceAlpha" type="matrix" values="0 0 0 0 0 0 0 0 0 0 0 0 0 0 0 0 0 0 127 0" result="hardAlpha"/>
<feOffset/>
<feGaussianBlur stdDeviation="2.16814"/>
<feComposite in2="hardAlpha" operator="arithmetic" k2="-1" k3="1"/>
<feColorMatrix type="matrix" values="0 0 0 0 1 0 0 0 0 1 0 0 0 0 1 0 0 0 0.8 0"/>
<feBlend mode="normal" in2="shape" result="effect1_innerShadow_1128_3011"/>
</filter>
<filter id="filter3_i_1128_3011" x="27.0203" y="36.7686" width="51.24" height="56.1519" filterUnits="userSpaceOnUse" color-interpolation-filters="sRGB">
<feFlood flood-opacity="0" result="BackgroundImageFix"/>
<feBlend mode="normal" in="SourceGraphic" in2="BackgroundImageFix" result="shape"/>
<feColorMatrix in="SourceAlpha" type="matrix" values="0 0 0 0 0 0 0 0 0 0 0 0 0 0 0 0 0 0 127 0" result="hardAlpha"/>
<feOffset/>
<feGaussianBlur stdDeviation="1.68142"/>
<feComposite in2="hardAlpha" operator="arithmetic" k2="-1" k3="1"/>
<feColorMatrix type="matrix" values="0 0 0 0 1 0 0 0 0 1 0 0 0 0 1 0 0 0 0.8 0"/>
<feBlend mode="normal" in2="shape" result="effect1_innerShadow_1128_3011"/>
</filter>
<filter id="filter4_i_1128_3011" x="18.2791" y="42.7788" width="68.8289" height="29.8884" filterUnits="userSpaceOnUse" color-interpolation-filters="sRGB">
<feFlood flood-opacity="0" result="BackgroundImageFix"/>
<feBlend mode="normal" in="SourceGraphic" in2="BackgroundImageFix" result="shape"/>
<feColorMatrix in="SourceAlpha" type="matrix" values="0 0 0 0 0 0 0 0 0 0 0 0 0 0 0 0 0 0 127 0" result="hardAlpha"/>
<feOffset/>
<feGaussianBlur stdDeviation="1.76991"/>
<feComposite in2="hardAlpha" operator="arithmetic" k2="-1" k3="1"/>
<feColorMatrix type="matrix" values="0 0 0 0 1 0 0 0 0 1 0 0 0 0 1 0 0 0 0.8 0"/>
<feBlend mode="normal" in2="shape" result="effect1_innerShadow_1128_3011"/>
</filter>
<filter id="filter5_i_1128_3011" x="26.9331" y="21.239" width="23.9927" height="24.8796" filterUnits="userSpaceOnUse" color-interpolation-filters="sRGB">
<feFlood flood-opacity="0" result="BackgroundImageFix"/>
<feBlend mode="normal" in="SourceGraphic" in2="BackgroundImageFix" result="shape"/>
<feColorMatrix in="SourceAlpha" type="matrix" values="0 0 0 0 0 0 0 0 0 0 0 0 0 0 0 0 0 0 127 0" result="hardAlpha"/>
<feOffset/>
<feGaussianBlur stdDeviation="0.752212"/>
<feComposite in2="hardAlpha" operator="arithmetic" k2="-1" k3="1"/>
<feColorMatrix type="matrix" values="0 0 0 0 1 0 0 0 0 1 0 0 0 0 1 0 0 0 0.8 0"/>
<feBlend mode="normal" in2="shape" result="effect1_innerShadow_1128_3011"/>
</filter>
<filter id="filter6_i_1128_3011" x="54.4658" y="21.239" width="25.5649" height="24.8796" filterUnits="userSpaceOnUse" color-interpolation-filters="sRGB">
<feFlood flood-opacity="0" result="BackgroundImageFix"/>
<feBlend mode="normal" in="SourceGraphic" in2="BackgroundImageFix" result="shape"/>
<feColorMatrix in="SourceAlpha" type="matrix" values="0 0 0 0 0 0 0 0 0 0 0 0 0 0 0 0 0 0 127 0" result="hardAlpha"/>
<feOffset/>
<feGaussianBlur stdDeviation="0.752212"/>
<feComposite in2="hardAlpha" operator="arithmetic" k2="-1" k3="1"/>
<feColorMatrix type="matrix" values="0 0 0 0 1 0 0 0 0 1 0 0 0 0 1 0 0 0 0.8 0"/>
<feBlend mode="normal" in2="shape" result="effect1_innerShadow_1128_3011"/>
</filter>
<filter id="filter7_i_1128_3011" x="49.0566" y="39.823" width="7.52197" height="7.52222" filterUnits="userSpaceOnUse" color-interpolation-filters="sRGB">
<feFlood flood-opacity="0" result="BackgroundImageFix"/>
<feBlend mode="normal" in="SourceGraphic" in2="BackgroundImageFix" result="shape"/>
<feColorMatrix in="SourceAlpha" type="matrix" values="0 0 0 0 0 0 0 0 0 0 0 0 0 0 0 0 0 0 127 0" result="hardAlpha"/>
<feOffset/>
<feGaussianBlur stdDeviation="0.752212"/>
<feComposite in2="hardAlpha" operator="arithmetic" k2="-1" k3="1"/>
<feColorMatrix type="matrix" values="0 0 0 0 1 0 0 0 0 1 0 0 0 0 1 0 0 0 0.8 0"/>
<feBlend mode="normal" in2="shape" result="effect1_innerShadow_1128_3011"/>
</filter>
<linearGradient id="paint0_linear_1128_3011" x1="-0.453666" y1="12.6724" x2="24.9516" y2="26.7986" gradientUnits="userSpaceOnUse">
<stop stop-color="#FF2C7A"/>
<stop offset="0.275797" stop-color="#FF4A33"/>
<stop offset="0.648967" stop-color="#FFE100"/>
<stop offset="1" stop-color="white"/>
</linearGradient>
<radialGradient id="paint1_radial_1128_3011" cx="0" cy="0" r="1" gradientUnits="userSpaceOnUse" gradientTransform="translate(11.884 21.0582) rotate(77.3219) scale(9.64864 8.70448)">
<stop offset="0.730556" stop-color="white" stop-opacity="0"/>
<stop offset="1" stop-color="white" stop-opacity="0.5"/>
</radialGradient>
<linearGradient id="paint2_linear_1128_3011" x1="4.06492" y1="12.9274" x2="19.7032" y2="29.189" gradientUnits="userSpaceOnUse">
<stop stop-color="white"/>
<stop offset="1" stop-color="#B2B2B2"/>
</linearGradient>
<linearGradient id="paint3_linear_1128_3011" x1="81.8329" y1="2.85259" x2="66.5203" y2="7.53681" gradientUnits="userSpaceOnUse">
<stop stop-color="#D8F5FF"/>
<stop offset="0.5625" stop-color="#0084FF"/>
<stop offset="1" stop-color="#7500E9"/>
</linearGradient>
<radialGradient id="paint4_radial_1128_3011" cx="0" cy="0" r="1" gradientUnits="userSpaceOnUse" gradientTransform="translate(74.2207 5.94922) rotate(114.744) scale(5.31517 4.79506)">
<stop offset="0.730556" stop-color="white" stop-opacity="0"/>
<stop offset="1" stop-color="white" stop-opacity="0.5"/>
</radialGradient>
<linearGradient id="paint5_linear_1128_3011" x1="79.3692" y1="2.46958" x2="69.0722" y2="9.42885" gradientUnits="userSpaceOnUse">
<stop stop-color="white"/>
<stop offset="1" stop-color="#B2B2B2"/>
</linearGradient>
<linearGradient id="paint6_linear_1128_3011" x1="14.5437" y1="109.292" x2="89.7704" y2="98.8041" gradientUnits="userSpaceOnUse">
<stop stop-color="#FF2C7A"/>
<stop offset="0.275797" stop-color="#FF4A33"/>
<stop offset="0.552508" stop-color="#FFE100"/>
<stop offset="1" stop-color="white"/>
</linearGradient>
<linearGradient id="paint7_linear_1128_3011" x1="-8.4652" y1="37.6107" x2="59.6764" y2="62.3894" gradientUnits="userSpaceOnUse">
<stop stop-color="#FF2C7A"/>
<stop offset="0.275797" stop-color="#FF4A33"/>
<stop offset="0.648967" stop-color="#FFE100"/>
<stop offset="1" stop-color="white"/>
</linearGradient>
<linearGradient id="paint8_linear_1128_3011" x1="88.8799" y1="53.1555" x2="13.6587" y2="53.1555" gradientUnits="userSpaceOnUse">
<stop offset="0.417766" stop-color="white"/>
<stop offset="0.588358" stop-color="#51BADD"/>
</linearGradient>
<linearGradient id="paint9_linear_1128_3011" x1="53.039" y1="36.7257" x2="83.1275" y2="100.885" gradientUnits="userSpaceOnUse">
<stop offset="0.230769" stop-color="#FF4A33"/>
<stop offset="0.317308" stop-color="#FFB8A1"/>
<stop offset="0.519231" stop-color="#FF5900"/>
</linearGradient>
<linearGradient id="paint10_linear_1128_3011" x1="51.7115" y1="36.7258" x2="26.9327" y2="92.0356" gradientUnits="userSpaceOnUse">
<stop offset="0.230769" stop-color="#FF4A33"/>
<stop offset="0.317308" stop-color="#FFB8A1"/>
<stop offset="0.519231" stop-color="#FF5900"/>
</linearGradient>
<linearGradient id="paint11_linear_1128_3011" x1="46.2706" y1="40.8574" x2="85.4593" y2="97.5838" gradientUnits="userSpaceOnUse">
<stop stop-color="#FF2C7A"/>
<stop offset="0.275797" stop-color="#FF4A33"/>
<stop offset="0.648967" stop-color="#FFE100"/>
<stop offset="1" stop-color="white"/>
</linearGradient>
<linearGradient id="paint12_linear_1128_3011" x1="59.1166" y1="40.8574" x2="27.3267" y2="88.3458" gradientUnits="userSpaceOnUse">
<stop stop-color="#FF2C7A"/>
<stop offset="0.275797" stop-color="#FF4A33"/>
<stop offset="0.648967" stop-color="#FFE100"/>
<stop offset="1" stop-color="white"/>
</linearGradient>
<linearGradient id="paint13_linear_1128_3011" x1="40.359" y1="46.1185" x2="40.359" y2="21.239" gradientUnits="userSpaceOnUse">
<stop offset="0.350962" stop-color="#FF4A33"/>
<stop offset="1" stop-color="#FFE100"/>
</linearGradient>
<linearGradient id="paint14_linear_1128_3011" x1="65.8219" y1="46.1185" x2="65.8219" y2="21.239" gradientUnits="userSpaceOnUse">
<stop offset="0.350962" stop-color="#FF4A33"/>
<stop offset="1" stop-color="#FFE100"/>
</linearGradient>
<linearGradient id="paint15_linear_1128_3011" x1="52.8177" y1="39.823" x2="52.8177" y2="47.3451" gradientUnits="userSpaceOnUse">
<stop stop-color="#FFE100"/>
<stop offset="1" stop-color="#FF4A33"/>
</linearGradient>
<clipPath id="clip0_1128_3011">
<rect width="98.2301" height="100" fill="white" transform="translate(0.38501)"/>
</clipPath>
</defs>
</svg>
