<svg width="25" height="24" viewBox="0 0 25 24" fill="none" xmlns="http://www.w3.org/2000/svg">
<path d="M12.5001 5.98993L20.0301 18.9999H4.97012L12.5001 5.98993ZM3.24012 17.9999C2.47012 19.3299 3.43012 20.9999 4.97012 20.9999H20.0301C21.5701 20.9999 22.5301 19.3299 21.7601 17.9999L14.2301 4.98993C13.4601 3.65993 11.5401 3.65993 10.7701 4.98993L3.24012 17.9999ZM11.5001 10.9999V12.9999C11.5001 13.5499 11.9501 13.9999 12.5001 13.9999C13.0501 13.9999 13.5001 13.5499 13.5001 12.9999V10.9999C13.5001 10.4499 13.0501 9.99993 12.5001 9.99993C11.9501 9.99993 11.5001 10.4499 11.5001 10.9999ZM11.5001 15.9999H13.5001V17.9999H11.5001V15.9999Z" fill="#FF5E5E"/>
</svg>
