<svg width="28" height="28" viewBox="0 0 28 28" fill="none" xmlns="http://www.w3.org/2000/svg">
<path d="M16.5317 15.995L18.165 13.1717C18.27 12.9967 18.2234 12.775 18.0717 12.6467L16.345 11.2933C16.38 11.0367 16.4034 10.7683 16.4034 10.5C16.4034 10.2317 16.38 9.96334 16.345 9.69501L18.0717 8.34168C18.2234 8.21334 18.27 7.99168 18.165 7.81668L16.5317 4.99334C16.4267 4.81834 16.2167 4.74834 16.03 4.81834L14 5.63501C13.58 5.30834 13.125 5.04001 12.6234 4.83001L12.32 2.67168C12.285 2.48501 12.11 2.33334 11.9117 2.33334H8.64504C8.44671 2.33334 8.27171 2.48501 8.23671 2.68334L7.93338 4.84168C7.44338 5.05168 6.97671 5.32001 6.55671 5.64668L4.52671 4.83001C4.34004 4.76001 4.13004 4.83001 4.02504 5.00501L2.39171 7.82834C2.28671 8.00334 2.33338 8.22501 2.48504 8.35334L4.21171 9.70668C4.17671 9.96334 4.15338 10.2317 4.15338 10.5C4.15338 10.7683 4.17671 11.0367 4.21171 11.305L2.48504 12.6583C2.33338 12.7867 2.28671 13.0083 2.39171 13.1833L4.02504 16.0067C4.13004 16.1817 4.34004 16.2517 4.52671 16.1817L6.55671 15.365C6.97671 15.6917 7.43171 15.96 7.93338 16.17L8.23671 18.3283C8.27171 18.515 8.44671 18.6667 8.64504 18.6667H11.9117C12.11 18.6667 12.285 18.515 12.32 18.3167L12.6234 16.1583C13.1134 15.9483 13.58 15.68 14 15.3533L16.03 16.17C16.2167 16.24 16.4267 16.17 16.5317 15.995ZM10.2784 12.8333C8.99505 12.8333 7.94504 11.7833 7.94504 10.5C7.94504 9.21668 8.99505 8.16668 10.2784 8.16668C11.5617 8.16668 12.6117 9.21668 12.6117 10.5C12.6117 11.7833 11.5617 12.8333 10.2784 12.8333Z" fill="currentColor"/>
<path d="M25.5734 21.7817L24.4534 20.9183C24.4767 20.755 24.5 20.58 24.5 20.405C24.5 20.23 24.4884 20.055 24.4534 19.8917L25.5617 19.0283C25.655 18.9467 25.69 18.8067 25.62 18.69L24.57 16.8817C24.5117 16.765 24.3717 16.73 24.2434 16.765L22.9484 17.29C22.68 17.08 22.3884 16.905 22.0617 16.7767L21.8634 15.4C21.8517 15.26 21.735 15.1667 21.6184 15.1667H19.53C19.4017 15.1667 19.285 15.26 19.2734 15.3883L19.075 16.765C18.76 16.905 18.4567 17.0683 18.1884 17.2783L16.8934 16.7533C16.7767 16.7067 16.6367 16.7533 16.5667 16.87L15.5167 18.6783C15.4584 18.795 15.47 18.935 15.575 19.0167L16.6834 19.88C16.66 20.0433 16.6484 20.2183 16.6484 20.3933C16.6484 20.5683 16.66 20.7433 16.6834 20.9067L15.575 21.77C15.4817 21.8517 15.4467 21.9917 15.5167 22.1083L16.5667 23.9167C16.625 24.0333 16.765 24.0683 16.8934 24.0333L18.1884 23.5083C18.4567 23.7183 18.7484 23.8933 19.075 24.0217L19.2734 25.3983C19.2967 25.5267 19.4017 25.62 19.53 25.62H21.6184C21.7467 25.62 21.8634 25.5267 21.875 25.3983L22.0734 24.0217C22.3884 23.8817 22.6917 23.7183 22.9484 23.5083L24.255 24.0333C24.3717 24.08 24.5117 24.0333 24.5817 23.9167L25.6317 22.1083C25.7017 22.0033 25.6667 21.8633 25.5734 21.7817ZM20.5684 21.9683C19.705 21.9683 18.9934 21.2683 18.9934 20.3933C18.9934 19.5183 19.6934 18.8183 20.5684 18.8183C21.4434 18.8183 22.1434 19.5183 22.1434 20.3933C22.1434 21.2683 21.4317 21.9683 20.5684 21.9683Z" fill="currentColor"/>
</svg>
