<svg width="135" height="122" viewBox="0 0 135 122" fill="none" xmlns="http://www.w3.org/2000/svg">
<path d="M80.415 40.8356C81.1703 40.6241 81.8377 41.2087 81.5343 41.816C80.4203 44.0447 77.2671 45.1217 74.7207 44.1431L74.3669 44.0071C73.5638 43.6984 73.6893 42.7206 74.5635 42.4756L80.415 40.8356Z" fill="white"/>
<path d="M53.3413 41.714C53.0393 41.0806 53.7085 40.467 54.4635 40.6852L60.3119 42.376C61.1857 42.6286 61.3088 43.65 60.5047 43.9756L60.1507 44.119C57.6013 45.1514 54.4499 44.0384 53.3413 41.714Z" fill="white"/>
<path fill-rule="evenodd" clip-rule="evenodd" d="M63.069 11.3575C65.7711 9.79625 69.1013 9.79627 71.8035 11.3575L91.7706 22.8945C94.4701 24.4542 96.1328 27.3352 96.1329 30.4528V53.5387C96.1328 56.6564 94.4701 59.5373 91.7706 61.097L71.8035 72.6342C69.1013 74.1955 65.7711 74.1955 63.069 72.6342L43.1016 61.097C40.4022 59.5373 38.7394 56.6563 38.7393 53.5387V30.4528C38.7394 27.3352 40.4022 24.4542 43.1016 22.8945L63.069 11.3575ZM90.91 39.589C91.613 37.3683 89.9306 35.1258 88.0892 35.8292L73.825 41.2785C71.6938 42.0928 71.4546 45.7079 73.4503 46.9406L74.3295 47.4836C80.657 51.3914 88.3303 47.7378 90.91 39.589ZM46.789 35.8292C44.9477 35.1259 43.2652 37.3683 43.9682 39.589C46.5479 47.7378 54.2212 51.3913 60.5488 47.4836L61.428 46.9406C63.4238 45.708 63.1845 42.0927 61.0532 41.2785L46.789 35.8292Z" fill="white"/>
<path d="M26.4731 44.4754C27.3458 41.2186 30.184 39.1492 32.8123 39.8534C35.4406 40.5577 36.8637 43.7689 35.9911 47.0257C35.1184 50.2826 32.2802 52.352 29.6519 51.6477C27.0236 50.9433 25.6004 47.7322 26.4731 44.4754Z" fill="white"/>
<path d="M102.096 39.7567C104.724 39.0525 107.563 41.1218 108.435 44.3787C109.308 47.6355 107.885 50.8466 105.257 51.551C102.628 52.2552 99.7899 50.1859 98.9173 46.929C98.0447 43.6722 99.4678 40.4611 102.096 39.7567Z" fill="white"/>
<path d="M39.7171 0.105978C42.454 0.0370457 42.9335 0.878009 43.0431 2.43071C43.3461 6.71583 46.6062 11.7792 49.2165 15.0549C49.6124 15.5517 49.0332 16.3637 48.4377 16.1427C46.3427 15.365 43.6432 14.4777 41.4275 14.0667C38.2103 13.4701 35.3211 16.2796 34.1467 17.9263C34.0761 18.0252 33.9331 18.0392 33.8488 17.9517C31.5346 15.5515 32.4834 12.2003 33.5463 10.2598C33.7103 9.96043 33.4685 9.58414 33.1362 9.66226C29.3213 10.5594 26.5093 13.7011 25.3234 15.5625C25.23 15.709 25.0004 15.6691 24.9576 15.5007C21.7279 2.8008 36.3362 0.19119 39.7171 0.105978Z" fill="white"/>
<path d="M121.762 117.478C122.092 117.478 122.36 117.21 122.36 116.88V114.033C122.36 113.702 122.092 113.435 121.762 113.435H100.644C100.314 113.435 100.047 113.702 100.047 114.033V116.88C100.047 117.21 100.314 117.478 100.644 117.478H121.762ZM126.104 109.392C126.262 109.392 126.414 109.455 126.527 109.567L130.731 113.771C130.843 113.883 130.906 114.036 130.906 114.194V116.718C130.906 116.877 130.843 117.029 130.731 117.141L126.527 121.345C126.414 121.458 126.262 121.521 126.104 121.521H96.3024C96.1438 121.521 95.9917 121.458 95.8796 121.345L91.6751 117.141C91.563 117.029 91.5 116.877 91.5 116.718V114.194C91.5 114.036 91.563 113.883 91.6751 113.771L95.8796 109.567C95.9917 109.455 96.1438 109.392 96.3024 109.392H126.104ZM130.308 90.7634C130.638 90.7634 130.906 91.0311 130.906 91.3613V97.3706C130.906 97.4806 130.995 97.5699 131.105 97.5699H134.402C134.733 97.5699 135 97.8376 135 98.1678V99.5308C135 99.861 134.733 100.129 134.402 100.129H131.105C130.995 100.129 130.906 100.218 130.906 100.328V106.286C130.906 106.616 130.638 106.884 130.308 106.884H123.316C122.986 106.884 122.718 106.616 122.718 106.286V91.3613C122.718 91.0311 122.986 90.7634 123.316 90.7634H130.308ZM107.483 88.7163C107.814 88.7163 108.081 88.984 108.081 89.3143V91.1782C108.081 91.2883 108.171 91.3775 108.281 91.3775H117.002C117.332 91.3775 117.6 91.6452 117.6 91.9755V94.3619C117.6 94.6922 117.332 94.9599 117.002 94.9599H109.035C108.872 94.9599 108.778 95.1444 108.874 95.2762L116.605 105.935C116.891 106.33 116.609 106.884 116.121 106.884H110.324C110.136 106.884 109.96 106.796 109.847 106.646L104.658 99.7764C104.578 99.6708 104.42 99.6708 104.34 99.7764L99.1512 106.646C99.0382 106.796 98.8616 106.884 98.6741 106.884H92.8771C92.3888 106.884 92.1063 106.33 92.3931 105.935L100.124 95.2762C100.22 95.1444 100.126 94.9599 99.9628 94.9599H92.1491C91.8189 94.9599 91.5512 94.6922 91.5512 94.3619V91.9755C91.5512 91.6452 91.8189 91.3775 92.1491 91.3775H100.717C100.827 91.3775 100.917 91.2883 100.917 91.1782V89.3143C100.917 88.984 101.184 88.7163 101.514 88.7163H107.483Z" fill="white"/>
<path d="M78.1092 104.376C78.2193 104.376 78.3085 104.287 78.3085 104.177V91.4124C78.3085 91.0822 78.5762 90.8145 78.9065 90.8145H84.8753C85.2055 90.8145 85.4733 91.0822 85.4733 91.4124V120.923C85.4733 121.253 85.2055 121.521 84.8753 121.521H78.9065C78.5762 121.521 78.3085 121.253 78.3085 120.923V108.158C78.3085 108.048 78.2193 107.959 78.1092 107.959H75.949C75.8389 107.959 75.7497 108.048 75.7497 108.158V120.923C75.7497 121.253 75.482 121.521 75.1517 121.521H69.1829C68.8526 121.521 68.5849 121.253 68.5849 120.923V91.4124C68.5849 91.0822 68.8526 90.8145 69.1829 90.8145H75.1517C75.482 90.8145 75.7497 91.0822 75.7497 91.4124V104.177C75.7497 104.287 75.8389 104.376 75.949 104.376H78.1092ZM65.8726 105.058C65.8726 105.388 65.6048 105.656 65.2746 105.656H53.6359C53.5258 105.656 53.4366 105.745 53.4366 105.855V117.739C53.4366 117.849 53.5258 117.938 53.6359 117.938H65.2746C65.6048 117.938 65.8726 118.206 65.8726 118.536V120.923C65.8726 121.253 65.6048 121.521 65.2746 121.521H53.4366H50.4683H47.5863C47.256 121.521 46.9883 121.253 46.9883 120.923V117.938V94.5961C46.9883 94.4861 46.8991 94.3968 46.789 94.3968H46.6651C46.3349 94.3968 46.0671 94.1291 46.0671 93.7989V91.4124C46.0671 91.0822 46.3349 90.8145 46.6651 90.8145H46.9883H53.4366H65.2746C65.6048 90.8145 65.8726 91.0822 65.8726 91.4124V93.7989C65.8726 94.1291 65.6048 94.3968 65.2746 94.3968H53.6359C53.5258 94.3968 53.4366 94.4861 53.4366 94.5961V101.874C53.4366 101.984 53.5258 102.073 53.6359 102.073H65.2746C65.6048 102.073 65.8726 102.341 65.8726 102.671V105.058Z" fill="white"/>
<path d="M30.2616 117.478C30.5919 117.478 30.8596 117.21 30.8596 116.88V114.033C30.8596 113.702 30.5919 113.435 30.2616 113.435H9.14448C8.81424 113.435 8.54652 113.702 8.54652 114.033V116.88C8.54652 117.21 8.81424 117.478 9.14448 117.478H30.2616ZM34.6037 109.392C34.7623 109.392 34.9144 109.455 35.0265 109.567L39.231 113.771C39.3431 113.883 39.4061 114.035 39.4061 114.194V116.718C39.4061 116.877 39.3431 117.029 39.231 117.141L35.0265 121.345C34.9144 121.458 34.7623 121.521 34.6037 121.521H4.80242C4.64383 121.521 4.49174 121.458 4.3796 121.345L0.175137 117.141C0.062999 117.029 0 116.877 0 116.718V114.194C0 114.035 0.0629986 113.883 0.175137 113.771L4.3796 109.567C4.49174 109.455 4.64383 109.392 4.80241 109.392H34.6037ZM20.4665 90.8145C20.9799 90.8145 21.2546 91.4188 20.917 91.8056L16.6233 96.7246C16.5586 96.7987 16.5576 96.9088 16.621 96.984L24.1275 105.901C24.4549 106.29 24.1785 106.884 23.6701 106.884H16.8262C16.6289 106.884 16.4443 106.787 16.3328 106.624L12.7742 101.426C12.6984 101.316 12.537 101.31 12.4536 101.415L8.29749 106.657C8.18406 106.801 8.0115 106.884 7.82892 106.884H0.604284C0.0870162 106.884 -0.18623 106.272 0.159229 105.887L7.7597 97.4163L12.7238 92.0427L13.8297 90.9811C13.9411 90.8741 14.0895 90.8145 14.2438 90.8145H20.4665ZM38.1749 90.8145C38.5051 90.8145 38.7728 91.0822 38.7728 91.4124V97.3705C38.7728 97.4805 38.8621 97.5698 38.9722 97.5698H42.269C42.5993 97.5698 42.867 97.8375 42.867 98.1677V99.5307C42.867 99.8609 42.5993 100.129 42.269 100.129H38.9722C38.8621 100.129 38.7728 100.218 38.7728 100.328V106.337C38.7728 106.667 38.5051 106.935 38.1749 106.935H31.1825C30.8523 106.935 30.5845 106.667 30.5845 106.337V91.4124C30.5845 91.0822 30.8523 90.8145 31.1825 90.8145H38.1749Z" fill="white"/>
</svg>
