<svg width="24" height="24" viewBox="0 0 24 24" fill="none" xmlns="http://www.w3.org/2000/svg">
<path d="M9.06104 11.6737H10.3737L9.74438 9.72095L9.06104 11.6737Z" fill="#371C1D"/>
<path d="M12 1.5C5.37236 1.5 0 5.73693 0 10.9664C0 14.369 2.27492 17.3512 5.69184 19.0197C5.44033 19.9535 4.78323 22.4065 4.65181 22.9311C4.48867 23.5822 4.88973 23.5732 5.15483 23.3991C5.36103 23.2612 8.4426 21.1698 9.77266 20.2677C10.4955 20.374 11.2387 20.4305 12 20.4305C18.6276 20.4305 24 16.1936 24 10.9664C24 5.73919 18.6276 1.5 12 1.5ZM6.14728 13.4059C6.14728 13.9802 4.8648 13.9734 4.8648 13.3969C4.8716 12.6078 4.8648 9.22323 4.8648 9.22323H3.62991C2.90483 9.22323 2.90257 8.04305 3.62991 8.04078C3.62991 8.04078 6.52115 8.06339 7.38671 8.06339C8.15483 8.06339 8.15483 9.26845 7.38671 9.26845C6.571 9.26845 6.15861 9.26619 6.15861 9.26619L6.15408 13.4036L6.14728 13.4059ZM10.8693 13.5506C10.5702 12.7593 10.6473 12.7254 10.6473 12.7254H8.38822L8.14124 13.5868C7.8784 14.1904 6.74094 13.6976 7.00604 13.0939C7.37085 12.2574 8.46752 9.10341 8.77115 8.43644C8.89124 8.17192 9.17447 8.06565 9.4645 8.06565C9.81571 8.06565 10.176 8.2194 10.2779 8.43644C10.4977 8.90219 11.6964 12.1941 12.0453 13.1075C12.2878 13.7473 11.1163 14.1904 10.8716 13.5506H10.8693ZM15.4509 13.84C14.8708 13.84 13.5612 13.8468 12.9721 13.8468C12.3829 13.8468 12.4804 13.1595 12.4804 13.1595C12.4804 13.1595 12.4758 9.70481 12.4736 8.63314C12.4736 8.25557 12.8066 8.06791 13.142 8.06791C13.4773 8.06791 13.8082 8.25557 13.8104 8.63088C13.8104 9.40637 13.8082 12.6033 13.8082 12.6033C13.8082 12.6033 14.8663 12.6101 15.4486 12.6101C16.031 12.6101 16.031 13.8423 15.4509 13.8423V13.84ZM19.4411 13.7428L17.8119 11.5271L17.4403 11.8255C17.4403 11.8255 17.4403 12.9198 17.4403 13.4986C17.4403 13.996 16.1715 13.996 16.1715 13.4986C16.1715 13.1843 16.1986 8.93384 16.1873 8.46357C16.1805 8.20357 16.5136 8.07018 16.8399 8.07018C17.1435 8.07018 17.4426 8.18774 17.4494 8.42966C17.4675 9.06723 17.4494 10.2203 17.4494 10.2203C17.4494 10.2203 19.287 8.38444 19.5498 8.12444C19.8195 7.85539 20.6556 8.69644 20.386 8.96323C19.9237 9.42219 18.75 10.6883 18.75 10.6883L20.4789 12.9605C20.8074 13.3946 19.7719 14.1769 19.4434 13.7428H19.4411Z" fill="#371C1D"/>
</svg>
