<svg width="28" height="28" viewBox="0 0 28 28" fill="none" xmlns="http://www.w3.org/2000/svg">
<g clip-path="url(#clip0_2097_4681)">
<path d="M22.75 3.5L21 1.75L19.25 3.5L17.5 1.75L15.75 3.5L14 1.75L12.25 3.5L10.5 1.75L8.75 3.5L7 1.75V18.0833H3.5V21.5833C3.5 23.52 5.06333 25.0833 7 25.0833H21C22.9367 25.0833 24.5 23.52 24.5 21.5833V1.75L22.75 3.5ZM22.1667 21.5833C22.1667 22.225 21.6417 22.75 21 22.75C20.3583 22.75 19.8333 22.225 19.8333 21.5833V18.0833H9.33333V5.25H22.1667V21.5833Z" fill="currentColor"/>
<path d="M19.8333 7.5835H11.6666V9.91683H19.8333V7.5835Z" fill="currentColor"/>
<path d="M19.8333 11.0835H11.6666V13.4168H19.8333V11.0835Z" fill="currentColor"/>
</g>
<defs>
<clipPath id="clip0_2097_4681">
<rect width="28" height="28" fill="white"/>
</clipPath>
</defs>
</svg>
