<svg width="36" height="36" viewBox="0 0 36 36" fill="none" xmlns="http://www.w3.org/2000/svg">
<path d="M23.8513 19.9169C24.1464 19.8342 24.4072 20.0627 24.2886 20.3C23.8533 21.1709 22.6212 21.5917 21.6262 21.2093L21.4879 21.1562C21.1741 21.0356 21.2231 20.6535 21.5647 20.5577L23.8513 19.9169Z" fill="white"/>
<path d="M13.272 20.2602C13.154 20.0127 13.4155 19.7729 13.7105 19.8581L15.9958 20.5188C16.3373 20.6175 16.3854 21.0166 16.0712 21.1439L15.9328 21.1999C14.9366 21.6033 13.7052 21.1684 13.272 20.2602Z" fill="white"/>
<path fill-rule="evenodd" clip-rule="evenodd" d="M17.0732 8.39815C18.1291 7.78807 19.4303 7.78808 20.4862 8.39815L28.2885 12.9063C29.3433 13.5158 29.9931 14.6415 29.9931 15.8598V24.8807C29.9931 26.099 29.3434 27.2247 28.2885 27.8342L20.4862 32.3424C19.4304 32.9525 18.1291 32.9525 17.0732 32.3424L9.27079 27.8342C8.21599 27.2247 7.56622 26.099 7.56621 24.8807V15.8598C7.56622 14.6415 8.21599 13.5158 9.27079 12.9063L17.0732 8.39815ZM27.9522 19.4298C28.2269 18.562 27.5695 17.6857 26.85 17.9606L21.2762 20.09C20.4434 20.4081 20.3499 21.8208 21.1297 22.3025L21.4733 22.5146C23.9458 24.0417 26.9442 22.614 27.9522 19.4298ZM10.7117 17.9606C9.99215 17.6858 9.33474 18.562 9.60943 19.4298C10.6175 22.614 13.6159 24.0416 16.0884 22.5146L16.4319 22.3025C17.2118 21.8208 17.1183 20.4081 16.2855 20.09L10.7117 17.9606Z" fill="white"/>
<path d="M2.77309 21.3392C3.1141 20.0665 4.22315 19.2579 5.25019 19.5331C6.27722 19.8083 6.83331 21.0631 6.49232 22.3357C6.15131 23.6084 5.04227 24.417 4.01522 24.1418C2.98822 23.8666 2.4321 22.6118 2.77309 21.3392Z" fill="white"/>
<path d="M32.3233 19.4953C33.3503 19.2201 34.4593 20.0288 34.8004 21.3014C35.1414 22.574 34.5852 23.8288 33.5582 24.104C32.5312 24.3792 31.4221 23.5706 31.0811 22.298C30.7401 21.0253 31.2962 19.7706 32.3233 19.4953Z" fill="white"/>
<path d="M7.94827 4.00153C9.01775 3.9746 9.2051 4.30321 9.24795 4.90994C9.36633 6.58438 10.6403 8.56294 11.6602 9.84294C11.8149 10.0371 11.5886 10.3544 11.3559 10.268C10.5373 9.96411 9.48242 9.61737 8.61665 9.45678C7.35949 9.22366 6.23051 10.3215 5.77162 10.965C5.74403 11.0036 5.68815 11.0091 5.65519 10.9749C4.7509 10.037 5.12165 8.72746 5.53702 7.96919C5.60109 7.85223 5.50658 7.70519 5.37676 7.73572C3.88605 8.08627 2.78726 9.31392 2.32386 10.0413C2.28735 10.0985 2.19764 10.0829 2.1809 10.0171C0.918864 5.05455 6.62718 4.03483 7.94827 4.00153Z" fill="white"/>
</svg>
