<svg width="16" height="20" viewBox="0 0 16 20" fill="none" xmlns="http://www.w3.org/2000/svg">
<path d="M0.26001 12.7151C0.260008 4.6845 9.72886 6.6085 12.2207 0C12.8021 4.5172 11.1409 3.93164 11.307 8.19789C11.4399 11.6109 14.131 11.2372 15.46 10.6238C15.46 17.4832 11.3901 19.8255 7.48624 19.9928C3.58241 20.1601 0.26001 17.4003 0.26001 12.7151Z" fill="url(#paint0_radial_310_2667)"/>
<path d="M1.85986 13.1548C1.85986 7.37278 8.25986 8.19994 10.673 3.99994C10.673 7.59994 9.87735 6.83072 9.99975 9.90242C10.0977 12.3598 12.8806 12.4416 13.8599 11.9999C13.8599 16.9387 9.99975 18.5999 7.18445 18.3948C4.31304 18.1855 1.85986 16.5282 1.85986 13.1548Z" fill="url(#paint1_linear_310_2667)"/>
<path d="M1.85986 13.1548C1.85986 7.37278 8.25986 8.19994 10.673 3.99994C10.673 7.59994 9.87735 6.83072 9.99975 9.90242C10.0977 12.3598 12.8806 12.4416 13.8599 11.9999C13.8599 16.9387 9.99975 18.5999 7.18445 18.3948C4.31304 18.1855 1.85986 16.5282 1.85986 13.1548Z" fill="white" fill-opacity="0.3"/>
<path d="M3.05981 13.6982C3.05981 9.84662 7.32648 10.3976 8.93522 7.59985C8.25981 10.1999 8.23672 10.5999 8.48641 11.5317C8.91041 13.1141 10.407 13.2231 11.0598 12.9289C11.0598 16.2188 8.48641 17.3254 6.60954 17.1887C4.69527 17.0493 3.05981 15.9453 3.05981 13.6982Z" fill="url(#paint2_linear_310_2667)"/>
<path d="M3.05981 13.6982C3.05981 9.84662 7.32648 10.3976 8.93522 7.59985C8.25981 10.1999 8.23672 10.5999 8.48641 11.5317C8.91041 13.1141 10.407 13.2231 11.0598 12.9289C11.0598 16.2188 8.48641 17.3254 6.60954 17.1887C4.69527 17.0493 3.05981 15.9453 3.05981 13.6982Z" fill="#FF0000" fill-opacity="0.3"/>
<path d="M4.26001 14.249C4.26001 12.3232 6.39334 12.5987 7.19771 11.1998C6.86001 12.3998 6.86001 12.7998 6.97331 13.1658C7.21558 13.9482 7.9336 14.0115 8.26001 13.8644C8.26001 15.5093 6.97331 16.0626 6.03487 15.9943C5.07774 15.9246 4.26001 15.3726 4.26001 14.249Z" fill="white"/>
<path d="M4.65991 14.2871C4.65991 12.8427 6.15325 13.0493 6.71631 12.0002C6.47991 12.9002 6.47991 13.2002 6.55922 13.4746C6.72881 14.0615 7.23142 14.1089 7.45991 13.9986C7.45991 15.2323 6.55922 15.6473 5.90232 15.596C5.23232 15.5437 4.65991 15.1297 4.65991 14.2871Z" fill="#EEFB00"/>
<defs>
<radialGradient id="paint0_radial_310_2667" cx="0" cy="0" r="1" gradientUnits="userSpaceOnUse" gradientTransform="translate(7.86001 10) rotate(90) scale(10 7.6)">
<stop stop-color="white"/>
<stop offset="0.293269" stop-color="#FFE100"/>
<stop offset="0.740385" stop-color="#FF4A33"/>
<stop offset="1" stop-color="#FF2C7A"/>
</radialGradient>
<linearGradient id="paint1_linear_310_2667" x1="7.45986" y1="3.99994" x2="7.45986" y2="18.3999" gradientUnits="userSpaceOnUse">
<stop stop-color="white"/>
<stop offset="0.293269" stop-color="#FFE100"/>
<stop offset="0.740385" stop-color="#FF4A33"/>
<stop offset="1" stop-color="#FF2C7A"/>
</linearGradient>
<linearGradient id="paint2_linear_310_2667" x1="6.79315" y1="7.59985" x2="6.79315" y2="17.1922" gradientUnits="userSpaceOnUse">
<stop stop-color="white"/>
<stop offset="0.293269" stop-color="#FFE100"/>
<stop offset="0.740385" stop-color="#FF4A33"/>
<stop offset="1" stop-color="#FF2C7A"/>
</linearGradient>
</defs>
</svg>
