<svg width="46" height="52" viewBox="0 0 46 52" fill="none" xmlns="http://www.w3.org/2000/svg">
<path d="M19.5574 1.43872C21.7185 0.187093 24.3817 0.187096 26.5428 1.43872L42.5115 10.6874C44.6704 11.9377 46.0001 14.2473 46.0001 16.7466V35.2533C46.0001 37.7525 44.6704 40.0621 42.5115 41.3125L26.5428 50.5611C24.3817 51.8127 21.7185 51.8127 19.5574 50.5611L3.58871 41.3125C1.42984 40.0621 0.100098 37.7525 0.100098 35.2533L0.100098 16.7466C0.100098 14.2473 1.42984 11.9377 3.58872 10.6874L19.5574 1.43872Z" fill="#CB9873"/>
<path d="M19.5574 1.43872C21.7185 0.187093 24.3817 0.187096 26.5428 1.43872L42.5115 10.6874C44.6704 11.9377 46.0001 14.2473 46.0001 16.7466V35.2533C46.0001 37.7525 44.6704 40.0621 42.5115 41.3125L26.5428 50.5611C24.3817 51.8127 21.7185 51.8127 19.5574 50.5611L3.58871 41.3125C1.42984 40.0621 0.100098 37.7525 0.100098 35.2533L0.100098 16.7466C0.100098 14.2473 1.42984 11.9377 3.58872 10.6874L19.5574 1.43872Z" fill="url(#paint0_radial_939_10343)" fill-opacity="0.8"/>
<path d="M19.8755 1.9873C21.84 0.849631 24.2606 0.849535 26.2251 1.9873L42.1938 11.2363C44.1563 12.3731 45.3665 14.4727 45.3667 16.7461V35.2529C45.3667 37.5265 44.1565 39.6269 42.1938 40.7637L26.2251 50.0127C24.2607 51.1504 21.84 51.1503 19.8755 50.0127L3.90674 40.7637C1.94399 39.6269 0.733887 37.5266 0.733887 35.2529L0.733887 16.7461C0.734057 14.4726 1.94413 12.373 3.90674 11.2363L19.8755 1.9873Z" stroke="url(#paint1_linear_939_10343)" stroke-opacity="0.4" stroke-width="1.26771"/>
<circle cx="23.0503" cy="26" r="17" fill="url(#paint2_radial_939_10343)"/>
<mask id="path-5-inside-1_939_10343" fill="white">
<path d="M23.0503 9C32.4391 9 40.0503 16.6112 40.0503 26C40.0503 35.3888 32.4391 43 23.0503 43C13.6615 43 6.05029 35.3888 6.05029 26C6.05029 16.6112 13.6615 9 23.0503 9ZM23.0503 13.25C16.0087 13.25 10.3003 18.9584 10.3003 26C10.3003 33.0416 16.0087 38.75 23.0503 38.75C30.0919 38.7499 35.8003 33.0416 35.8003 26C35.8003 18.9584 30.0919 13.2501 23.0503 13.25Z"/>
</mask>
<path d="M23.0503 9C32.4391 9 40.0503 16.6112 40.0503 26C40.0503 35.3888 32.4391 43 23.0503 43C13.6615 43 6.05029 35.3888 6.05029 26C6.05029 16.6112 13.6615 9 23.0503 9ZM23.0503 13.25C16.0087 13.25 10.3003 18.9584 10.3003 26C10.3003 33.0416 16.0087 38.75 23.0503 38.75C30.0919 38.7499 35.8003 33.0416 35.8003 26C35.8003 18.9584 30.0919 13.2501 23.0503 13.25Z" fill="url(#paint3_linear_939_10343)"/>
<path d="M23.0503 9L23.0503 8.14591H23.0503V9ZM40.0503 26L40.9044 26V26H40.0503ZM23.0503 43L23.0503 43.8541L23.0503 43.8541L23.0503 43ZM6.05029 26L5.19621 26L5.19621 26L6.05029 26ZM23.0503 13.25L23.0503 12.3959H23.0503V13.25ZM10.3003 26L9.44621 26L9.44621 26L10.3003 26ZM23.0503 38.75L23.0503 39.6041L23.0503 39.6041L23.0503 38.75ZM35.8003 26L36.6544 26V26H35.8003ZM23.0503 9L23.0503 9.85409C31.9674 9.85409 39.1962 17.0829 39.1962 26H40.0503H40.9044C40.9044 16.1395 32.9108 8.14591 23.0503 8.14591L23.0503 9ZM40.0503 26L39.1962 26C39.1962 34.9171 31.9674 42.1459 23.0503 42.1459L23.0503 43L23.0503 43.8541C32.9108 43.8541 40.9044 35.8605 40.9044 26L40.0503 26ZM23.0503 43V42.1459C14.1332 42.1459 6.90438 34.9171 6.90438 26L6.05029 26L5.19621 26C5.19621 35.8605 13.1898 43.8541 23.0503 43.8541V43ZM6.05029 26H6.90438C6.90438 17.0829 14.1332 9.85409 23.0503 9.85409V9V8.14591C13.1898 8.14591 5.19621 16.1395 5.19621 26H6.05029ZM23.0503 13.25V12.3959C15.537 12.3959 9.44621 18.4867 9.44621 26H10.3003H11.1544C11.1544 19.4301 16.4804 14.1041 23.0503 14.1041V13.25ZM10.3003 26L9.44621 26C9.44621 33.5133 15.537 39.6041 23.0503 39.6041V38.75V37.8959C16.4804 37.8959 11.1544 32.5699 11.1544 26L10.3003 26ZM23.0503 38.75L23.0503 39.6041C30.5636 39.604 36.6544 33.5133 36.6544 26L35.8003 26L34.9462 26C34.9462 32.5699 29.6202 37.8959 23.0503 37.8959L23.0503 38.75ZM35.8003 26H36.6544C36.6544 18.4867 30.5636 12.396 23.0503 12.3959L23.0503 13.25L23.0503 14.1041C29.6202 14.1041 34.9462 19.4301 34.9462 26H35.8003Z" fill="url(#paint4_linear_939_10343)" mask="url(#path-5-inside-1_939_10343)"/>
<path d="M24.804 23.311L24.8967 23.6206L25.2209 23.6138L31.2834 23.4878L26.3049 26.9497L26.0393 27.1343L26.1458 27.4409L28.1389 33.1675L23.3079 29.5024L23.05 29.3062L22.7922 29.5024L17.9602 33.1675L19.9543 27.4409L20.0608 27.1343L19.7952 26.9497L14.8157 23.4878L20.8782 23.6138L21.2024 23.6206L21.2961 23.311L23.0491 17.5044L24.804 23.311Z" fill="url(#paint5_linear_939_10343)" stroke="url(#paint6_linear_939_10343)" stroke-width="0.854086"/>
<defs>
<radialGradient id="paint0_radial_939_10343" cx="0" cy="0" r="1" gradientUnits="userSpaceOnUse" gradientTransform="translate(23.0501 25.9999) rotate(90) scale(25.4999 22.95)">
<stop offset="0.730556" stop-color="white" stop-opacity="0"/>
<stop offset="1" stop-color="white" stop-opacity="0.5"/>
</radialGradient>
<linearGradient id="paint1_linear_939_10343" x1="7.64199" y1="0.499999" x2="38.5656" y2="51.4346" gradientUnits="userSpaceOnUse">
<stop stop-color="white"/>
<stop offset="1" stop-color="#B2B2B2"/>
</linearGradient>
<radialGradient id="paint2_radial_939_10343" cx="0" cy="0" r="1" gradientUnits="userSpaceOnUse" gradientTransform="translate(23.132 26.0817) rotate(90) scale(18.3629)">
<stop stop-color="#CB9873"/>
<stop offset="1" stop-color="#AF6B3A"/>
</radialGradient>
<linearGradient id="paint3_linear_939_10343" x1="12.883" y1="12.8434" x2="36.7974" y2="44.8716" gradientUnits="userSpaceOnUse">
<stop stop-color="#FFA869"/>
<stop offset="1" stop-color="white"/>
</linearGradient>
<linearGradient id="paint4_linear_939_10343" x1="14.5912" y1="12.4163" x2="32.954" y2="43.1635" gradientUnits="userSpaceOnUse">
<stop stop-color="#FFBF91"/>
<stop offset="1" stop-color="white"/>
</linearGradient>
<linearGradient id="paint5_linear_939_10343" x1="23.0499" y1="16.0288" x2="33.3808" y2="38.893" gradientUnits="userSpaceOnUse">
<stop offset="0.336538" stop-color="#FFDFC8"/>
<stop offset="1" stop-color="white"/>
</linearGradient>
<linearGradient id="paint6_linear_939_10343" x1="18.007" y1="18.0655" x2="28.954" y2="36.3955" gradientUnits="userSpaceOnUse">
<stop stop-color="#FFBF91"/>
<stop offset="1" stop-color="white"/>
</linearGradient>
</defs>
</svg>
