<svg width="35" height="34" viewBox="0 0 35 34" fill="none" xmlns="http://www.w3.org/2000/svg">
<circle cx="17.0503" cy="17" r="17" fill="url(#paint0_radial_1083_1994)"/>
<mask id="path-2-inside-1_1083_1994" fill="white">
<path d="M17.0503 0C26.4391 1.03081e-06 34.0503 7.61116 34.0503 17C34.0503 26.3888 26.4391 34 17.0503 34C7.66145 34 0.050294 26.3888 0.050293 17C0.050293 7.61116 7.66145 0 17.0503 0ZM17.0503 4.25C10.0088 4.25013 4.30029 9.95845 4.30029 17C4.30029 24.0415 10.0088 29.7499 17.0503 29.75C24.0919 29.75 29.8003 24.0416 29.8003 17C29.8003 9.95837 24.0919 4.25 17.0503 4.25Z"/>
</mask>
<path d="M17.0503 0C26.4391 1.03081e-06 34.0503 7.61116 34.0503 17C34.0503 26.3888 26.4391 34 17.0503 34C7.66145 34 0.050294 26.3888 0.050293 17C0.050293 7.61116 7.66145 0 17.0503 0ZM17.0503 4.25C10.0088 4.25013 4.30029 9.95845 4.30029 17C4.30029 24.0415 10.0088 29.7499 17.0503 29.75C24.0919 29.75 29.8003 24.0416 29.8003 17C29.8003 9.95837 24.0919 4.25 17.0503 4.25Z" fill="url(#paint1_linear_1083_1994)"/>
<path d="M17.0503 0L17.0503 -0.85H17.0503V0ZM34.0503 17L34.9003 17V17H34.0503ZM17.0503 34L17.0503 34.85L17.0503 34.85L17.0503 34ZM0.050293 17L-0.799707 17L-0.799707 17L0.050293 17ZM17.0503 4.25L17.0503 3.4L17.0503 3.4L17.0503 4.25ZM4.30029 17L3.45029 17L3.45029 17L4.30029 17ZM17.0503 29.75L17.0503 30.6H17.0503V29.75ZM29.8003 17L30.6503 17V17H29.8003ZM17.0503 0L17.0503 0.85C25.9697 0.850001 33.2003 8.0806 33.2003 17H34.0503H34.9003C34.9003 7.14172 26.9086 -0.849999 17.0503 -0.85L17.0503 0ZM34.0503 17L33.2003 17C33.2003 25.9194 25.9697 33.15 17.0503 33.15L17.0503 34L17.0503 34.85C26.9086 34.85 34.9003 26.8583 34.9003 17L34.0503 17ZM17.0503 34V33.15C8.1309 33.15 0.900294 25.9194 0.900293 17L0.050293 17L-0.799707 17C-0.799706 26.8583 7.19201 34.85 17.0503 34.85V34ZM0.050293 17H0.900293C0.900293 8.0806 8.1309 0.85 17.0503 0.85V0V-0.85C7.19201 -0.85 -0.799707 7.14172 -0.799707 17H0.050293ZM17.0503 4.25L17.0503 3.4C9.53935 3.40014 3.45029 9.48899 3.45029 17H4.30029H5.15029C5.15029 10.4279 10.4782 5.10012 17.0503 5.1L17.0503 4.25ZM4.30029 17L3.45029 17C3.45029 24.511 9.53935 30.5999 17.0503 30.6L17.0503 29.75L17.0503 28.9C10.4782 28.8999 5.15029 23.5721 5.15029 17L4.30029 17ZM17.0503 29.75V30.6C24.5614 30.6 30.6503 24.5111 30.6503 17L29.8003 17L28.9503 17C28.9503 23.5722 23.6225 28.9 17.0503 28.9V29.75ZM29.8003 17H30.6503C30.6503 9.48893 24.5614 3.4 17.0503 3.4V4.25V5.1C23.6225 5.1 28.9503 10.4278 28.9503 17H29.8003Z" fill="url(#paint2_linear_1083_1994)" mask="url(#path-2-inside-1_1083_1994)"/>
<path d="M17.0508 6.02881C17.0927 6.02881 17.1283 6.05965 17.1348 6.10107L18.0908 12.271L21.4736 7.02295C21.4963 6.98773 21.5418 6.97465 21.5801 6.9917C21.6181 7.00887 21.6379 7.051 21.627 7.09131L19.9893 13.1177L25.2158 9.69873C25.2509 9.67578 25.2971 9.68223 25.3252 9.71338C25.3532 9.74453 25.3546 9.79126 25.3281 9.82373L21.3818 14.6626L27.5459 13.6655C27.5873 13.6588 27.6277 13.6833 27.6406 13.7231C27.6533 13.7629 27.635 13.8059 27.5977 13.8247L22.0244 16.6401L28.0615 18.2368C28.1021 18.2475 28.1294 18.2859 28.125 18.3276C28.1206 18.3693 28.0858 18.4018 28.0439 18.4038L21.8076 18.7085L26.6738 22.6226C26.7062 22.6489 26.7142 22.6948 26.6934 22.731C26.6724 22.767 26.6288 22.7829 26.5898 22.7681L20.7676 20.5093L23.6211 26.064C23.6402 26.1012 23.6294 26.1467 23.5957 26.1714C23.5618 26.196 23.5149 26.1923 23.4854 26.1626L19.084 21.731L19.4326 27.9673C19.4349 28.009 19.407 28.0463 19.3662 28.0552C19.3253 28.0639 19.2835 28.0415 19.2686 28.0024L17.0508 22.1646L14.833 28.0024C14.818 28.0415 14.7763 28.0639 14.7354 28.0552C14.6946 28.0463 14.6667 28.009 14.6689 27.9673L15.0166 21.731L10.6162 26.1626C10.5867 26.1923 10.5398 26.196 10.5059 26.1714C10.4721 26.1467 10.4614 26.1012 10.4805 26.064L13.333 20.5093L7.51172 22.7681C7.47281 22.7829 7.42912 22.767 7.4082 22.731C7.38732 22.6948 7.39538 22.6489 7.42773 22.6226L12.293 18.7085L6.05762 18.4038C6.01578 18.4018 5.98099 18.3693 5.97656 18.3276C5.97218 18.2859 5.99951 18.2475 6.04004 18.2368L12.0762 16.6401L6.50391 13.8247C6.46661 13.8059 6.44822 13.7629 6.46094 13.7231C6.47389 13.6833 6.51428 13.6588 6.55566 13.6655L12.7188 14.6626L8.77344 9.82373C8.74697 9.79127 8.74838 9.74453 8.77637 9.71338C8.80442 9.68223 8.85066 9.67578 8.88574 9.69873L14.1113 13.1177L12.4746 7.09131C12.4637 7.051 12.4835 7.00887 12.5215 6.9917C12.5598 6.97465 12.6052 6.98773 12.6279 7.02295L16.0098 12.271L16.9668 6.10107L16.9766 6.07178C16.9913 6.04578 17.0194 6.02881 17.0508 6.02881Z" fill="url(#paint3_radial_1083_1994)" stroke="url(#paint4_radial_1083_1994)" stroke-width="0.17" stroke-linejoin="round"/>
<path d="M18.979 14.0298L19.0815 14.3687L19.4351 14.3618L26.1011 14.2222L20.6274 18.0288L20.3364 18.2319L20.4526 18.5659L22.644 24.8628L17.3325 20.8325L17.0503 20.6187L16.7681 20.8325L11.4556 24.8638L13.6479 18.5659L13.7651 18.2319L13.4741 18.0288L7.99951 14.2222L14.6655 14.3618L15.02 14.3687L15.1226 14.0298L17.0503 7.64502L18.979 14.0298Z" fill="url(#paint5_linear_1083_1994)" stroke="url(#paint6_linear_1083_1994)" stroke-width="0.933662"/>
<defs>
<radialGradient id="paint0_radial_1083_1994" cx="0" cy="0" r="1" gradientUnits="userSpaceOnUse" gradientTransform="translate(17.0503 17) rotate(90) scale(22.1813)">
<stop stop-color="#CFAA16"/>
<stop offset="1" stop-color="#CAA500"/>
</radialGradient>
<linearGradient id="paint1_linear_1083_1994" x1="7.70029" y1="2.20633" x2="29.3753" y2="34.0813" gradientUnits="userSpaceOnUse">
<stop stop-color="#FFCC00"/>
<stop offset="1" stop-color="#FFF8DC"/>
</linearGradient>
<linearGradient id="paint2_linear_1083_1994" x1="5.57529" y1="4.75633" x2="28.5253" y2="30.6813" gradientUnits="userSpaceOnUse">
<stop stop-color="#FFEEA1"/>
<stop offset="1" stop-color="#FFDC4F"/>
</linearGradient>
<radialGradient id="paint3_radial_1083_1994" cx="0" cy="0" r="1" gradientUnits="userSpaceOnUse" gradientTransform="translate(17.0508 17.1636) rotate(90) scale(11.0498)">
<stop stop-color="#FF8D4F"/>
<stop offset="1" stop-color="#FFE8BD"/>
</radialGradient>
<radialGradient id="paint4_radial_1083_1994" cx="0" cy="0" r="1" gradientUnits="userSpaceOnUse" gradientTransform="translate(17.0508 17.1636) rotate(90) scale(11.0498)">
<stop stop-color="#FF6A19"/>
<stop offset="1" stop-color="#FFC14D"/>
</radialGradient>
<linearGradient id="paint5_linear_1083_1994" x1="17.0506" y1="6.03174" x2="17.0502" y2="38.3317" gradientUnits="userSpaceOnUse">
<stop stop-color="white"/>
<stop offset="1" stop-color="#FFE368"/>
</linearGradient>
<linearGradient id="paint6_linear_1083_1994" x1="17.0506" y1="6.03174" x2="17.0506" y2="28.296" gradientUnits="userSpaceOnUse">
<stop stop-color="white"/>
<stop offset="1" stop-color="#DBD26D"/>
</linearGradient>
</defs>
</svg>
