<svg width="24" height="24" viewBox="0 0 24 24" fill="none" xmlns="http://www.w3.org/2000/svg">
<path d="M20.7862 2.95544L16.6119 4.22369L18.302 3.02862C17.235 3.28048 15.8871 3.77314 14.1929 4.56829L11.4278 7.57999L12.4092 5.47618C11.4603 6.02756 10.4545 6.75038 9.48522 7.59701L8.84178 10.3326L8.70332 8.3075C7.7463 9.22645 6.8463 10.2475 6.10104 11.3239C5.31792 12.4513 4.70584 13.6425 4.39918 14.8295L3.25402 14.0297C3.35665 15.038 3.67389 15.9144 4.19434 16.7185L2.8252 16.2803C3.13633 17.2801 3.64497 17.9267 4.50507 18.45C4.0233 19.8667 3.79728 21.3473 3.55456 22.8236L4.30389 22.9554C5.17294 13.9063 11.3056 8.13732 16.8481 5.58127L17.1291 6.32069C12.173 8.63934 8.32051 12.5534 6.30466 18.1948C7.04177 18.199 7.76259 18.1054 8.43046 17.9267L8.63001 15.3358L9.1635 17.697C9.60739 17.5268 10.0146 17.3226 10.3771 17.0844L9.53409 15.2337L10.8698 16.7142C11.1956 16.4419 11.4644 16.1356 11.668 15.7995C12.906 13.7787 14.2011 11.7706 16.7504 10.0901L14.8893 9.40088L17.7441 9.49022C18.2083 9.24347 18.697 8.9414 19.0676 8.65636L17.0436 8.48618L20.0857 7.73741C20.3219 7.49065 20.5418 7.23113 20.7414 6.97161C21.4459 6.03819 21.9224 5.06648 21.8083 4.18284C21.7554 3.74081 21.5029 3.32515 21.0916 3.09244C20.9898 3.03713 20.8798 2.9882 20.7862 2.95544Z" fill="#CBCBCC"/>
</svg>
