<svg width="24" height="24" viewBox="0 0 24 24" fill="none" xmlns="http://www.w3.org/2000/svg">
<path d="M11.9729 0.859943C6.76576 0.859943 2.40386 4.44002 1.20972 9.27555C0.653452 12.5896 1.73603 16.0136 4.02447 18.3806C3.7885 19.7119 3.75789 21.2753 3.75789 23.0934H4.63384C4.63384 20.4209 4.73256 18.372 5.33134 16.9647C5.93022 15.5576 6.96648 14.7155 9.14669 14.3056L9.8784 14.1681L9.40272 13.5953C8.63565 12.6718 8.12678 11.3386 8.12678 9.85277C8.12678 8.41905 8.58545 7.12854 9.30301 6.21246C10.0206 5.29652 10.9768 4.7598 12.0213 4.7598C13.0658 4.7598 14.0221 5.29652 14.7396 6.21246C15.4571 7.12854 15.9159 8.41905 15.9159 9.85277C15.9159 11.3093 15.4654 12.6207 14.7353 13.5348L14.2648 14.1238L15.0094 14.2408C17.3855 14.6144 18.3924 15.4593 18.9362 16.8845C19.4798 18.3097 19.4758 20.4065 19.4758 23.0933H20.3519C20.3519 21.6828 20.3631 20.4186 20.2813 19.291C22.0105 17.3359 23.0601 14.7656 23.0601 11.9471C23.0601 5.81861 18.1014 0.859802 11.9728 0.859802L11.9729 0.859943ZM12.3573 2.89666C13.7692 2.90135 15.1932 3.23651 16.4935 3.92768C21.1351 6.39527 22.7072 12.346 20.2682 16.9022C20.183 17.0612 20.0937 17.2164 20.0011 17.3686C19.9329 17.0923 19.8517 16.8268 19.7547 16.5724C19.7127 16.4624 19.6669 16.3551 19.6181 16.2501C21.6546 12.145 20.1991 6.88994 16.0823 4.70135C14.9127 4.0796 13.6304 3.77861 12.3587 3.7744C9.56106 3.76502 6.81498 5.19143 5.4348 7.79618C4.2204 10.0879 4.3773 12.8591 5.67967 14.9605C5.45373 15.1701 5.25264 15.3981 5.0747 15.644C3.48095 13.2585 3.25431 10.04 4.66061 7.38602C6.20326 4.47476 9.25098 2.8864 12.3572 2.8968L12.3573 2.89666ZM16.4193 7.5326C18.1838 9.27729 18.7737 11.9826 17.9492 14.3552C17.7095 14.2028 17.4477 14.065 17.163 13.9422C17.6401 12.4567 17.4862 10.8322 16.7828 9.48907C16.7499 8.80001 16.6242 8.14127 16.4193 7.53251L16.4193 7.5326ZM7.44939 8.13944C7.31992 8.68305 7.25064 9.25807 7.25064 9.85272C7.25064 10.2024 7.27562 10.545 7.32297 10.8781C7.2324 11.8659 7.46594 12.867 7.98906 13.6942C7.6914 13.7852 7.4124 13.8889 7.15154 14.0054C6.25562 12.4705 6.16506 10.4935 7.01945 8.83905C7.14723 8.59155 7.29133 8.35835 7.44939 8.13944ZM10.283 9.51476C9.54264 9.52436 9.38111 9.72968 9.13239 9.89679C9.71753 10.4588 10.8621 10.4045 11.3706 9.89679C11.1366 9.70727 10.8845 9.50693 10.283 9.51476ZM13.7841 9.52305C13.0437 9.53266 12.8822 9.73802 12.6335 9.90508C13.2186 10.4672 14.3632 10.4129 14.8717 9.90508C14.6377 9.71562 14.3856 9.51522 13.784 9.52305H13.7841Z" fill="#CBCBCC"/>
</svg>
