<svg width="25" height="24" viewBox="0 0 25 24" fill="none" xmlns="http://www.w3.org/2000/svg">
<path d="M18.4202 1.73297C19.0812 2.51953 19.5874 3.21891 19.939 3.83297C20.5624 4.92656 20.7452 5.8125 20.5906 6.54844C20.4406 7.28906 19.9624 7.81875 19.4609 8.23125C18.9687 8.63907 18.4343 8.96719 18.0406 9.30469C17.9562 9.38906 17.9515 9.43594 17.9796 9.55313C18.0077 9.675 18.1156 9.84375 18.289 9.98438C18.6406 10.2656 19.2077 10.4203 19.8077 10.1203C20.8765 9.58594 21.6031 8.93438 21.9921 8.23125C22.3859 7.52813 22.4702 6.77813 22.2171 5.93438C21.8327 4.65375 20.6046 3.1786 18.4202 1.73297ZM6.57494 1.73297C4.39009 3.17953 3.16244 4.65422 2.779 5.93438C2.52634 6.77813 2.60884 7.52813 3.00119 8.23125C3.39353 8.93438 4.11869 9.58594 5.18744 10.1203V10.125C5.78744 10.4203 6.34994 10.2656 6.7015 9.98438C6.87494 9.84375 6.98275 9.675 7.01087 9.55313C7.039 9.43594 7.03431 9.38906 6.94994 9.30469C6.56087 8.96719 6.0265 8.63907 5.52962 8.23125C5.02947 7.81875 4.55462 7.28906 4.40228 6.55313C4.24994 5.8125 4.43228 4.93125 5.05478 3.83391C5.40306 3.22031 5.90931 2.52094 6.57494 1.73485V1.73297ZM8.60462 7.06406C8.24837 7.06875 7.88744 7.11094 7.53119 7.19063C7.07181 7.29375 6.6265 7.4625 6.20931 7.69219C6.61712 8.01094 7.09994 8.31094 7.52181 8.68125L7.53119 8.69063L7.54525 8.7C7.83119 8.99063 7.91556 9.40781 7.83119 9.75938C7.74212 10.1063 7.52181 10.4063 7.2265 10.6406C6.64056 11.1094 5.70775 11.3297 4.81103 10.875C4.55791 10.7484 4.31931 10.6172 4.09525 10.4719C3.98369 10.9125 3.92228 11.4 3.92228 11.9344C3.92228 13.95 5.689 16.1531 7.72806 18.0984C8.74994 19.0734 9.82337 19.9828 10.7421 20.7984C11.4499 21.4219 12.0593 21.9797 12.4999 22.5C12.9406 21.9797 13.5499 21.4219 14.2577 20.7984C15.1765 19.9828 16.2499 19.0734 17.2718 18.0984C19.3109 16.1531 21.0781 13.95 21.0781 11.9344C21.0781 11.4 21.0171 10.9125 20.9046 10.4719C20.6796 10.6172 20.4406 10.7531 20.1827 10.8797C19.2827 11.3297 18.3499 11.1094 17.764 10.6406C17.4687 10.4063 17.2484 10.1063 17.1593 9.75938C17.0749 9.40781 17.1593 8.99063 17.4452 8.7L17.4593 8.69063L17.4687 8.68125C17.8952 8.31094 18.3781 8.01094 18.7859 7.69219C18.3734 7.4625 17.9281 7.29375 17.4687 7.19063C15.5656 6.75938 13.5499 7.45313 12.8937 9.09375L12.4999 10.0734L12.1062 9.09375C11.5765 7.75781 10.1421 7.05 8.60462 7.06406ZM7.77025 11.85C8.73587 13.1859 10.0906 14.2125 11.7499 15C9.30306 16.5891 6.86556 15.1922 7.77025 11.85ZM17.2296 11.85C18.1343 15.1922 15.6968 16.5891 13.2499 15C14.9093 14.2125 16.264 13.1859 17.2296 11.85Z" fill="#CBCBCC"/>
</svg>
