<svg width="24" height="24" viewBox="0 0 24 24" fill="none" xmlns="http://www.w3.org/2000/svg">
<path d="M16.5351 1.85016L14.9838 5.75832L20.1943 10.9746L22.9233 8.24269L16.5351 1.85016ZM9.01898 2.09475C4.41351 5.23416 1.19695 9.65316 1.07507 15.6372C3.99304 10.0208 8.69025 5.08603 13.0385 2.99269L9.01898 2.09475ZM4.58198 2.81981L3.19621 4.20563C3.53728 4.53188 3.87731 4.85686 4.2187 5.18264C4.63528 4.69561 5.07979 4.22874 5.54587 3.78075L4.58198 2.81981ZM21.167 2.81981L19.9541 4.03125L21.3002 5.37891C21.7179 4.98703 22.1356 4.59478 22.5527 4.20263L21.167 2.81981ZM8.79487 7.02685C8.35237 7.42772 7.9125 7.85166 7.47942 8.29542C8.66362 9.42652 9.84782 10.5606 11.0273 11.7056L12.2549 10.4809L8.79487 7.0268V7.02685ZM15.9814 7.9981L3.18745 20.7729L4.5615 22.1426C8.47462 17.6365 12.8001 13.4005 17.2089 9.22702L15.9814 7.99796L15.9814 7.9981ZM14.6572 12.8804C14.2498 13.275 13.8439 13.6703 13.4399 14.067C16.06 16.6629 18.6508 19.3335 21.1816 22.1499L22.5615 20.773L14.6572 12.8803V12.8804Z" fill="#CBCBCC"/>
</svg>
