<svg width="25" height="24" viewBox="0 0 25 24" fill="none" xmlns="http://www.w3.org/2000/svg">
<path d="M12.5 0.9375C9.5 5.4375 6.5 5.0625 3.5 5.8125C3.5 17.8125 6.5 20.8125 12.5 23.0625C18.5 20.8125 21.5 17.8125 21.5 5.8125C18.5 5.0625 15.5 5.4375 12.5 0.9375ZM12.5 2.4375C12.6119 2.4375 12.7192 2.48195 12.7983 2.56106C12.8774 2.64018 12.9219 2.74749 12.9219 2.85938C12.9219 2.97126 12.8774 3.07857 12.7983 3.15769C12.7192 3.2368 12.6119 3.28125 12.5 3.28125C12.3881 3.28125 12.2808 3.2368 12.2017 3.15769C12.1226 3.07857 12.0781 2.97126 12.0781 2.85938C12.0781 2.74749 12.1226 2.64018 12.2017 2.56106C12.2808 2.48195 12.3881 2.4375 12.5 2.4375ZM12.5136 3.85087C12.7217 4.07985 12.9381 4.30109 13.1624 4.51416C14.8006 6.17283 17.0514 6.66511 19.2882 7.15922C19.4163 7.21472 19.5986 7.18303 19.7038 7.251C19.578 10.2904 19.4449 13.422 18.189 16.2391C17.5944 17.7138 16.4893 18.9392 15.1716 19.8083C14.4473 20.3176 13.6319 20.6627 12.8333 21.0325C12.5246 21.2468 12.1913 21.0115 11.8845 20.9172C9.83848 20.0806 7.92617 18.6382 6.95998 16.5922C5.59756 13.6851 5.4155 10.413 5.28116 7.24566C7.97286 6.83278 10.5582 5.94253 12.4268 3.94481L12.5136 3.85087ZM12.5 5.8125L11.2104 9.03656C10.4013 8.86252 9.42734 8.53828 8 8.0625C8 9.5625 7.25 10.3125 6.5 11.0625C6.5 11.8125 9.5 12.5625 10.25 12.5625C10.8675 12.1508 11.315 11.8529 11.6865 11.6672C11.4777 13.005 10.7492 15.8133 9.5 17.0625C11 17.8125 11.75 18.5625 12.5 19.3125C13.25 18.5625 14 17.8125 15.5 17.0625C14.2508 15.8133 13.5223 13.005 13.3135 11.6672C13.685 11.8529 14.1325 12.1508 14.75 12.5625C15.5 12.5625 18.5 11.8125 18.5 11.0625C17.75 10.3125 17 9.5625 17 8.0625C15.5727 8.53828 14.5987 8.86256 13.7896 9.03656L12.5 5.8125ZM4.4375 6.1875C4.4929 6.1875 4.54776 6.19841 4.59894 6.21961C4.65013 6.24081 4.69664 6.27189 4.73581 6.31106C4.77499 6.35024 4.80606 6.39675 4.82726 6.44793C4.84846 6.49911 4.85938 6.55397 4.85938 6.60938C4.85938 6.66478 4.84846 6.71964 4.82726 6.77082C4.80606 6.822 4.77499 6.86851 4.73581 6.90769C4.69664 6.94686 4.65013 6.97794 4.59894 6.99914C4.54776 7.02034 4.4929 7.03125 4.4375 7.03125C4.32561 7.03125 4.21831 6.9868 4.13919 6.90769C4.06007 6.82857 4.01562 6.72126 4.01562 6.60938C4.01562 6.49749 4.06007 6.39018 4.13919 6.31106C4.21831 6.23195 4.32561 6.1875 4.4375 6.1875ZM20.5625 6.1875C20.6179 6.1875 20.6728 6.19841 20.7239 6.21961C20.7751 6.24081 20.8216 6.27189 20.8608 6.31106C20.9 6.35024 20.9311 6.39675 20.9523 6.44793C20.9735 6.49911 20.9844 6.55397 20.9844 6.60938C20.9844 6.66478 20.9735 6.71964 20.9523 6.77082C20.9311 6.822 20.9 6.86851 20.8608 6.90769C20.8216 6.94686 20.7751 6.97794 20.7239 6.99914C20.6728 7.02034 20.6179 7.03125 20.5625 7.03125C20.4506 7.03125 20.3433 6.9868 20.2642 6.90769C20.1851 6.82857 20.1406 6.72126 20.1406 6.60938C20.1406 6.49749 20.1851 6.39018 20.2642 6.31106C20.3433 6.23195 20.4506 6.1875 20.5625 6.1875ZM5 13.2188C5.0554 13.2188 5.11026 13.2297 5.16144 13.2509C5.21263 13.2721 5.25914 13.3031 5.29831 13.3423C5.33749 13.3815 5.36856 13.428 5.38976 13.4792C5.41096 13.5304 5.42188 13.5852 5.42188 13.6406C5.42188 13.696 5.41096 13.7509 5.38976 13.8021C5.36856 13.8533 5.33749 13.8998 5.29831 13.9389C5.25914 13.9781 5.21263 14.0092 5.16144 14.0304C5.11026 14.0516 5.0554 14.0625 5 14.0625C4.88811 14.0625 4.78081 14.0181 4.70169 13.9389C4.62257 13.8598 4.57812 13.7525 4.57812 13.6406C4.57812 13.5287 4.62257 13.4214 4.70169 13.3423C4.78081 13.2632 4.88811 13.2188 5 13.2188ZM20 13.2188C20.0554 13.2188 20.1103 13.2297 20.1614 13.2509C20.2126 13.2721 20.2591 13.3031 20.2983 13.3423C20.3375 13.3815 20.3686 13.428 20.3898 13.4792C20.411 13.5304 20.4219 13.5852 20.4219 13.6406C20.4219 13.696 20.411 13.7509 20.3898 13.8021C20.3686 13.8533 20.3375 13.8998 20.2983 13.9389C20.2591 13.9781 20.2126 14.0092 20.1614 14.0304C20.1103 14.0516 20.0554 14.0625 20 14.0625C19.8881 14.0625 19.7808 14.0181 19.7017 13.9389C19.6226 13.8598 19.5781 13.7525 19.5781 13.6406C19.5781 13.5287 19.6226 13.4214 19.7017 13.3423C19.7808 13.2632 19.8881 13.2188 20 13.2188ZM8 19.2188C8.11189 19.2188 8.21919 19.2632 8.29831 19.3423C8.37743 19.4214 8.42188 19.5287 8.42188 19.6406C8.42188 19.7525 8.37743 19.8598 8.29831 19.9389C8.21919 20.0181 8.11189 20.0625 8 20.0625C7.88811 20.0625 7.78081 20.0181 7.70169 19.9389C7.62257 19.8598 7.57812 19.7525 7.57812 19.6406C7.57812 19.5287 7.62257 19.4214 7.70169 19.3423C7.78081 19.2632 7.88811 19.2188 8 19.2188ZM17 19.2188C17.1119 19.2188 17.2192 19.2632 17.2983 19.3423C17.3774 19.4214 17.4219 19.5287 17.4219 19.6406C17.4219 19.7525 17.3774 19.8598 17.2983 19.9389C17.2192 20.0181 17.1119 20.0625 17 20.0625C16.8881 20.0625 16.7808 20.0181 16.7017 19.9389C16.6226 19.8598 16.5781 19.7525 16.5781 19.6406C16.5781 19.5287 16.6226 19.4214 16.7017 19.3423C16.7808 19.2632 16.8881 19.2188 17 19.2188ZM12.5 21.5625C12.6119 21.5625 12.7192 21.6069 12.7983 21.6861C12.8774 21.7652 12.9219 21.8725 12.9219 21.9844C12.9219 22.0963 12.8774 22.2036 12.7983 22.2827C12.7192 22.3618 12.6119 22.4062 12.5 22.4062C12.3881 22.4062 12.2808 22.3618 12.2017 22.2827C12.1226 22.2036 12.0781 22.0963 12.0781 21.9844C12.0781 21.8725 12.1226 21.7652 12.2017 21.6861C12.2808 21.6069 12.3881 21.5625 12.5 21.5625Z" fill="#CBCBCC"/>
</svg>
