<svg width="46" height="52" viewBox="0 0 46 52" fill="none" xmlns="http://www.w3.org/2000/svg">
<path d="M19.5584 1.43871C21.7194 0.187093 24.3825 0.187096 26.5435 1.43872L42.5118 10.6874C44.6706 11.9377 46.0003 14.2473 46.0003 16.7466V35.2532C46.0003 37.7525 44.6706 40.0621 42.5118 41.3124L26.5435 50.5611C24.3825 51.8127 21.7194 51.8127 19.5584 50.5611L3.59009 41.3124C1.43127 40.0621 0.101562 37.7525 0.101562 35.2532L0.101562 16.7466C0.101562 14.2473 1.43127 11.9377 3.59009 10.6874L19.5584 1.43871Z" fill="#CDC271"/>
<path d="M19.5572 1.43872C21.7181 0.187093 24.3813 0.187096 26.5423 1.43872L42.5106 10.6874C44.6694 11.9377 45.9991 14.2473 45.9991 16.7466V35.2532C45.9991 37.7525 44.6694 40.0621 42.5106 41.3124L26.5423 50.5611C24.3813 51.8127 21.7181 51.8127 19.5572 50.5611L3.58887 41.3124C1.43004 40.0621 0.100342 37.7525 0.100342 35.2532L0.100342 16.7466C0.100342 14.2473 1.43005 11.9377 3.58887 10.6874L19.5572 1.43872Z" fill="url(#paint0_radial_939_10337)" fill-opacity="0.8"/>
<path d="M19.8748 1.9873C21.8392 0.849524 24.2599 0.849585 26.2244 1.9873L42.1931 11.2363C44.1555 12.3731 45.3648 14.4728 45.365 16.7461V35.2529C45.365 37.5265 44.1556 39.6269 42.1931 40.7637L26.2244 50.0127C24.2599 51.1504 21.8392 51.1505 19.8748 50.0127L3.90698 40.7637C1.94429 39.6269 0.734131 37.5266 0.734131 35.2529L0.734131 16.7461C0.734298 14.4726 1.94443 12.373 3.90698 11.2363L19.8748 1.9873Z" stroke="url(#paint1_linear_939_10337)" stroke-opacity="0.4" stroke-width="1.26771"/>
<circle cx="23.0503" cy="26" r="17" fill="url(#paint2_radial_939_10337)"/>
<mask id="path-5-inside-1_939_10337" fill="white">
<path d="M23.0503 9C32.4391 9 40.0503 16.6112 40.0503 26C40.0503 35.3888 32.4391 43 23.0503 43C13.6615 43 6.05029 35.3888 6.05029 26C6.05029 16.6112 13.6615 9 23.0503 9ZM23.0503 13.25C16.0088 13.2501 10.3003 18.9585 10.3003 26C10.3003 33.0415 16.0088 38.7499 23.0503 38.75C30.0919 38.75 35.8003 33.0416 35.8003 26C35.8003 18.9584 30.0919 13.25 23.0503 13.25Z"/>
</mask>
<path d="M23.0503 9C32.4391 9 40.0503 16.6112 40.0503 26C40.0503 35.3888 32.4391 43 23.0503 43C13.6615 43 6.05029 35.3888 6.05029 26C6.05029 16.6112 13.6615 9 23.0503 9ZM23.0503 13.25C16.0088 13.2501 10.3003 18.9585 10.3003 26C10.3003 33.0415 16.0088 38.7499 23.0503 38.75C30.0919 38.75 35.8003 33.0416 35.8003 26C35.8003 18.9584 30.0919 13.25 23.0503 13.25Z" fill="url(#paint3_linear_939_10337)"/>
<path d="M23.0503 9L23.0503 8.15H23.0503V9ZM40.0503 26L40.9003 26V26H40.0503ZM23.0503 43L23.0503 43.85L23.0503 43.85L23.0503 43ZM6.05029 26L5.20029 26L5.20029 26L6.05029 26ZM23.0503 13.25L23.0503 12.4L23.0503 12.4L23.0503 13.25ZM10.3003 26L9.45029 26L9.45029 26L10.3003 26ZM23.0503 38.75L23.0503 39.6H23.0503V38.75ZM35.8003 26L36.6503 26V26H35.8003ZM23.0503 9L23.0503 9.85C31.9697 9.85 39.2003 17.0806 39.2003 26H40.0503H40.9003C40.9003 16.1417 32.9086 8.15 23.0503 8.15L23.0503 9ZM40.0503 26L39.2003 26C39.2003 34.9194 31.9697 42.15 23.0503 42.15L23.0503 43L23.0503 43.85C32.9086 43.85 40.9003 35.8583 40.9003 26L40.0503 26ZM23.0503 43V42.15C14.1309 42.15 6.90029 34.9194 6.90029 26L6.05029 26L5.20029 26C5.20029 35.8583 13.192 43.85 23.0503 43.85V43ZM6.05029 26H6.90029C6.90029 17.0806 14.1309 9.85 23.0503 9.85V9V8.15C13.192 8.15 5.20029 16.1417 5.20029 26H6.05029ZM23.0503 13.25L23.0503 12.4C15.5393 12.4001 9.45029 18.489 9.45029 26H10.3003H11.1503C11.1503 19.4279 16.4782 14.1001 23.0503 14.1L23.0503 13.25ZM10.3003 26L9.45029 26C9.45029 33.511 15.5393 39.5999 23.0503 39.6L23.0503 38.75L23.0503 37.9C16.4782 37.8999 11.1503 32.5721 11.1503 26L10.3003 26ZM23.0503 38.75V39.6C30.5614 39.6 36.6503 33.5111 36.6503 26L35.8003 26L34.9503 26C34.9503 32.5722 29.6225 37.9 23.0503 37.9V38.75ZM35.8003 26H36.6503C36.6503 18.4889 30.5614 12.4 23.0503 12.4V13.25V14.1C29.6225 14.1 34.9503 19.4278 34.9503 26H35.8003Z" fill="url(#paint4_linear_939_10337)" mask="url(#path-5-inside-1_939_10337)"/>
<path d="M23.0508 15.0288C23.0927 15.0288 23.1283 15.0596 23.1348 15.1011L24.0908 21.271L27.4736 16.0229C27.4963 15.9877 27.5418 15.9747 27.5801 15.9917C27.6181 16.0089 27.6379 16.051 27.627 16.0913L25.9893 22.1177L31.2158 18.6987C31.2509 18.6758 31.2971 18.6822 31.3252 18.7134C31.3532 18.7445 31.3546 18.7913 31.3281 18.8237L27.3818 23.6626L33.5459 22.6655C33.5873 22.6588 33.6277 22.6833 33.6406 22.7231C33.6533 22.7629 33.635 22.8059 33.5977 22.8247L28.0244 25.6401L34.0615 27.2368C34.1021 27.2475 34.1294 27.2859 34.125 27.3276C34.1206 27.3693 34.0858 27.4018 34.0439 27.4038L27.8076 27.7085L32.6738 31.6226C32.7062 31.6489 32.7142 31.6948 32.6934 31.731C32.6724 31.767 32.6288 31.7829 32.5898 31.7681L26.7676 29.5093L29.6211 35.064C29.6402 35.1012 29.6294 35.1467 29.5957 35.1714C29.5618 35.196 29.5149 35.1923 29.4854 35.1626L25.084 30.731L25.4326 36.9673C25.4349 37.009 25.407 37.0463 25.3662 37.0552C25.3253 37.0639 25.2835 37.0415 25.2686 37.0024L23.0508 31.1646L20.833 37.0024C20.818 37.0415 20.7763 37.0639 20.7354 37.0552C20.6946 37.0463 20.6667 37.009 20.6689 36.9673L21.0166 30.731L16.6162 35.1626C16.5867 35.1923 16.5398 35.196 16.5059 35.1714C16.4721 35.1467 16.4614 35.1012 16.4805 35.064L19.333 29.5093L13.5117 31.7681C13.4728 31.7829 13.4291 31.767 13.4082 31.731C13.3873 31.6948 13.3954 31.6489 13.4277 31.6226L18.293 27.7085L12.0576 27.4038C12.0158 27.4018 11.981 27.3693 11.9766 27.3276C11.9722 27.2859 11.9995 27.2475 12.04 27.2368L18.0762 25.6401L12.5039 22.8247C12.4666 22.8059 12.4482 22.7629 12.4609 22.7231C12.4739 22.6833 12.5143 22.6588 12.5557 22.6655L18.7188 23.6626L14.7734 18.8237C14.747 18.7913 14.7484 18.7445 14.7764 18.7134C14.8044 18.6822 14.8507 18.6758 14.8857 18.6987L20.1113 22.1177L18.4746 16.0913C18.4637 16.051 18.4835 16.0089 18.5215 15.9917C18.5598 15.9747 18.6052 15.9877 18.6279 16.0229L22.0098 21.271L22.9668 15.1011L22.9766 15.0718C22.9913 15.0458 23.0194 15.0288 23.0508 15.0288Z" fill="url(#paint5_radial_939_10337)" stroke="url(#paint6_radial_939_10337)" stroke-width="0.17" stroke-linejoin="round"/>
<path d="M24.979 23.0298L25.0815 23.3687L25.4351 23.3618L32.1011 23.2222L26.6274 27.0288L26.3364 27.2319L26.4526 27.5659L28.644 33.8628L23.3325 29.8325L23.0503 29.6187L22.7681 29.8325L17.4556 33.8638L19.6479 27.5659L19.7651 27.2319L19.4741 27.0288L13.9995 23.2222L20.6655 23.3618L21.02 23.3687L21.1226 23.0298L23.0503 16.645L24.979 23.0298Z" fill="url(#paint7_linear_939_10337)" stroke="url(#paint8_linear_939_10337)" stroke-width="0.933662"/>
<defs>
<radialGradient id="paint0_radial_939_10337" cx="0" cy="0" r="1" gradientUnits="userSpaceOnUse" gradientTransform="translate(23.0497 25.9999) rotate(90) scale(25.4999 22.9494)">
<stop offset="0.730556" stop-color="white" stop-opacity="0"/>
<stop offset="1" stop-color="white" stop-opacity="0.5"/>
</radialGradient>
<linearGradient id="paint1_linear_939_10337" x1="7.64204" y1="0.499999" x2="38.566" y2="51.4339" gradientUnits="userSpaceOnUse">
<stop stop-color="white"/>
<stop offset="1" stop-color="#B2B2B2"/>
</linearGradient>
<radialGradient id="paint2_radial_939_10337" cx="0" cy="0" r="1" gradientUnits="userSpaceOnUse" gradientTransform="translate(23.0503 26) rotate(90) scale(22.1813)">
<stop stop-color="#CFAA16"/>
<stop offset="1" stop-color="#CAA500"/>
</radialGradient>
<linearGradient id="paint3_linear_939_10337" x1="13.7003" y1="11.2063" x2="35.3753" y2="43.0813" gradientUnits="userSpaceOnUse">
<stop stop-color="#FFCC00"/>
<stop offset="1" stop-color="#FFF8DC"/>
</linearGradient>
<linearGradient id="paint4_linear_939_10337" x1="11.5753" y1="13.7563" x2="34.5253" y2="39.6813" gradientUnits="userSpaceOnUse">
<stop stop-color="#FFEEA1"/>
<stop offset="1" stop-color="#FFDC4F"/>
</linearGradient>
<radialGradient id="paint5_radial_939_10337" cx="0" cy="0" r="1" gradientUnits="userSpaceOnUse" gradientTransform="translate(23.0508 26.1636) rotate(90) scale(11.0498)">
<stop stop-color="#FF8D4F"/>
<stop offset="1" stop-color="#FFE8BD"/>
</radialGradient>
<radialGradient id="paint6_radial_939_10337" cx="0" cy="0" r="1" gradientUnits="userSpaceOnUse" gradientTransform="translate(23.0508 26.1636) rotate(90) scale(11.0498)">
<stop stop-color="#FF6A19"/>
<stop offset="1" stop-color="#FFC14D"/>
</radialGradient>
<linearGradient id="paint7_linear_939_10337" x1="23.0506" y1="15.0317" x2="23.0502" y2="47.3317" gradientUnits="userSpaceOnUse">
<stop stop-color="white"/>
<stop offset="1" stop-color="#FFE368"/>
</linearGradient>
<linearGradient id="paint8_linear_939_10337" x1="23.0506" y1="15.0317" x2="23.0506" y2="37.296" gradientUnits="userSpaceOnUse">
<stop stop-color="white"/>
<stop offset="1" stop-color="#DBD26D"/>
</linearGradient>
</defs>
</svg>
