<svg width="46" height="52" viewBox="0 0 46 52" fill="none" xmlns="http://www.w3.org/2000/svg">
<path d="M19.5574 1.43872C21.7185 0.187093 24.3817 0.187096 26.5428 1.43872L42.5115 10.6874C44.6704 11.9377 46.0001 14.2473 46.0001 16.7466V35.2533C46.0001 37.7525 44.6704 40.0621 42.5115 41.3125L26.5428 50.5611C24.3817 51.8127 21.7185 51.8127 19.5574 50.5611L3.58871 41.3125C1.42984 40.0621 0.100098 37.7525 0.100098 35.2533L0.100098 16.7466C0.100098 14.2473 1.42984 11.9377 3.58872 10.6874L19.5574 1.43872Z" fill="url(#paint0_linear_939_10334)"/>
<path d="M19.5574 1.43872C21.7185 0.187093 24.3817 0.187096 26.5428 1.43872L42.5115 10.6874C44.6704 11.9377 46.0001 14.2473 46.0001 16.7466V35.2533C46.0001 37.7525 44.6704 40.0621 42.5115 41.3125L26.5428 50.5611C24.3817 51.8127 21.7185 51.8127 19.5574 50.5611L3.58871 41.3125C1.42984 40.0621 0.100098 37.7525 0.100098 35.2533L0.100098 16.7466C0.100098 14.2473 1.42984 11.9377 3.58872 10.6874L19.5574 1.43872Z" fill="url(#paint1_radial_939_10334)" fill-opacity="0.8"/>
<path d="M19.8755 1.9873C21.84 0.849631 24.2606 0.849535 26.2251 1.9873L42.1938 11.2363C44.1563 12.3731 45.3665 14.4727 45.3667 16.7461V35.2529C45.3667 37.5265 44.1565 39.6269 42.1938 40.7637L26.2251 50.0127C24.2607 51.1504 21.84 51.1503 19.8755 50.0127L3.90674 40.7637C1.94399 39.6269 0.733887 37.5266 0.733887 35.2529L0.733887 16.7461C0.734057 14.4726 1.94413 12.373 3.90674 11.2363L19.8755 1.9873Z" stroke="url(#paint2_linear_939_10334)" stroke-opacity="0.4" stroke-width="1.26771"/>
<path d="M7.15759 13.2501C6.6017 17.2305 12.7621 22.745 17.7142 25.4743C14.311 24.5476 9.38791 22.781 5.94361 20.6272C6.68339 24.132 12.0348 26.5355 17.0025 28.3483C12.9221 28.2814 9.38093 27.7988 5.2002 26.5125C6.66302 29.3762 12.1807 30.8191 17.0231 31.364C14.1009 31.9545 10.9564 31.986 7.77109 31.5842C9.74966 33.4466 13.227 34.1048 16.8547 33.8223C17.9539 33.7367 18.7288 34.6595 19.2598 35.9054C18.0887 36.915 17.3457 38.3981 17.3457 40.0491C17.3457 43.0795 19.8448 45.55 22.9104 45.55C25.9759 45.55 28.4751 43.0795 28.4751 40.0491C28.4751 38.4952 27.8172 37.0894 26.7635 36.0874C27.2955 34.7503 28.091 33.7327 29.2435 33.8223C32.8711 34.1049 36.3509 33.4466 38.3292 31.5843C35.1439 31.9861 31.9996 31.9546 29.0774 31.3641C33.9198 30.8192 39.4376 29.3763 40.9002 26.5125C36.7195 27.7989 33.1783 28.2817 29.0979 28.3485C34.0658 26.5355 39.4174 24.132 40.1571 20.6272C36.7128 22.781 31.7897 24.5477 28.3866 25.4743C33.3387 22.745 39.4991 17.2305 38.9432 13.25C34.7987 17.6968 30.847 21.3686 25.6612 23.3395C23.8255 24.0373 23.8747 25.5313 25.0611 26.9461C26.5663 28.7413 26.3577 31.8116 24.4313 34.7571C23.9478 34.6209 23.4374 34.5482 22.9106 34.5482C22.4703 34.5482 22.0421 34.6002 21.6308 34.6965C19.7405 31.7693 19.5424 28.7292 21.0375 26.9462C22.2238 25.5314 22.2754 24.0373 20.4396 23.3396C15.2541 21.3686 11.3022 17.6969 7.15759 13.2501ZM22.5628 35.9076L21.6058 38.8446L18.7187 39.7165C18.8798 37.6823 20.5066 36.0722 22.5628 35.9076ZM23.2993 35.91C25.3234 36.0912 26.9208 37.6756 27.0979 39.6783L24.1766 38.75L23.2993 35.91ZM27.0979 40.4356C26.9148 42.4204 25.3348 43.9893 23.3311 44.1838L24.2722 41.2895L27.0979 40.4356ZM18.7257 40.4377L21.7013 41.3839L22.572 44.1904C20.5306 44.0315 18.9123 42.4483 18.7257 40.4377Z" fill="url(#paint3_linear_939_10334)" stroke="url(#paint4_linear_939_10334)" stroke-width="0.603444"/>
<defs>
<linearGradient id="paint0_linear_939_10334" x1="23.0501" y1="0.5" x2="23.0501" y2="51.4998" gradientUnits="userSpaceOnUse">
<stop stop-color="#EBEBEB"/>
<stop offset="0.495192" stop-color="#5291C8"/>
<stop offset="1" stop-color="#7148C1"/>
</linearGradient>
<radialGradient id="paint1_radial_939_10334" cx="0" cy="0" r="1" gradientUnits="userSpaceOnUse" gradientTransform="translate(23.0501 25.9999) rotate(90) scale(25.4999 22.95)">
<stop offset="0.730556" stop-color="white" stop-opacity="0"/>
<stop offset="1" stop-color="white" stop-opacity="0.5"/>
</radialGradient>
<linearGradient id="paint2_linear_939_10334" x1="7.64199" y1="0.499999" x2="38.5656" y2="51.4346" gradientUnits="userSpaceOnUse">
<stop stop-color="white"/>
<stop offset="1" stop-color="#B2B2B2"/>
</linearGradient>
<linearGradient id="paint3_linear_939_10334" x1="23.0502" y1="13.25" x2="23.8044" y2="45.4649" gradientUnits="userSpaceOnUse">
<stop stop-color="#B8B8B8"/>
<stop offset="1" stop-color="white"/>
</linearGradient>
<linearGradient id="paint4_linear_939_10334" x1="15.287" y1="17.8521" x2="27.4665" y2="44.8037" gradientUnits="userSpaceOnUse">
<stop stop-color="white"/>
<stop offset="1" stop-color="#878787"/>
</linearGradient>
</defs>
</svg>
