<svg width="24" height="24" viewBox="0 0 24 24" fill="none" xmlns="http://www.w3.org/2000/svg">
<path d="M4.73907 1.16626L6.35157 7.35938L10.4813 7.58438L10.3406 6.77814L10.2516 6.25313L16.0313 6.60001L16.2609 7.90313L19.8188 8.10001L18.2953 2.25845L4.73907 1.16626ZM3.85688 1.24126C2.42719 1.79907 1.24594 3.73032 1.5225 4.77188L1.67719 5.32501C1.70532 5.24063 1.73813 5.16095 1.77563 5.07657C2.23969 3.9647 3.01782 2.88188 4.13344 2.3147L3.85688 1.24126ZM4.36313 3.19126C3.58032 3.66001 2.96157 4.50845 2.58188 5.41407C2.33813 6.00001 2.20688 6.61407 2.17407 7.12501L2.9925 10.1016C3.5925 9.10782 4.40766 8.11876 5.52188 7.64532L4.36313 3.19126ZM11.2641 7.16251L12.2109 12.6656L16.2891 12.8672L15.3188 7.40626L11.2641 7.16251ZM13.4578 8.15626C13.495 8.15462 13.5325 8.15462 13.5703 8.15626C13.7204 8.16268 13.8726 8.19497 14.018 8.25127C14.1634 8.30757 14.2992 8.38678 14.4177 8.48434C14.5362 8.5819 14.6349 8.6959 14.7083 8.81979C14.7817 8.94367 14.8283 9.07501 14.8453 9.20626C14.872 9.4094 14.8271 9.60445 14.7165 9.7653C14.6059 9.92615 14.435 10.0451 14.2266 10.1063L15.2016 11.8641L12.9188 11.7609L13.4297 10.0688C13.2025 9.98838 12.9976 9.85282 12.8426 9.68024C12.6877 9.50766 12.5899 9.3063 12.5625 9.10313C12.5295 8.85576 12.6028 8.62183 12.7683 8.44683C12.9337 8.27183 13.1795 8.16826 13.4578 8.15626ZM6.57657 8.2172L7.27969 10.9172L11.0859 11.0766L10.6266 8.4422L6.57657 8.2172ZM5.7375 8.4797C4.71563 8.97657 3.885 10.1813 3.31266 11.2641L3.89672 13.3875C4.37813 12.6516 5.02032 11.85 6.40782 11.0484L5.7375 8.4797ZM16.4156 8.75626L16.8703 11.3203L20.7 11.4844L20.0391 8.95782L16.4156 8.75626ZM7.5 11.7703L8.9625 17.3766L22.5188 18.4641L20.925 12.3422L17.0203 12.1781L17.3016 13.7672L11.4984 13.4719L11.2313 11.9297L7.5 11.7703ZM6.62813 11.8969C5.12813 12.8063 4.76719 13.5797 4.20047 14.4938L5.20782 18.1547C5.22188 18.1313 5.23594 18.1031 5.25 18.0797C5.74688 17.175 6.55313 16.3125 7.64532 15.8063L6.62813 11.8969ZM7.875 16.6734C7.04532 17.1 6.4125 17.7844 6.01875 18.5016C5.80782 18.8813 5.67657 19.2656 5.61094 19.6125L6.15938 21.6L6.23438 21.6094C6.05625 20.3156 6.76875 18.7734 8.17032 17.8078L7.875 16.6734ZM9.10782 18.2672C7.57969 19.0781 6.92813 20.7234 7.14844 21.6844L20.7328 22.8328C20.4844 22.4672 20.325 21.9938 20.3297 21.4969L19.2797 21.075L21.45 20.7328L20.8172 20.1328C21.0797 19.8047 21.4594 19.5188 21.9844 19.3031L9.10782 18.2672Z" fill="#CBCBCC"/>
</svg>
