<svg width="24" height="24" viewBox="0 0 24 24" fill="none" xmlns="http://www.w3.org/2000/svg">
<path d="M9.92962 1.83093C9.22547 2.54859 9.18459 2.90109 8.82933 3.88889C8.95542 4.31732 9.07092 4.68234 9.25814 5.06625C9.49992 5.07951 9.76275 5.08828 9.9773 5.0864C9.69089 4.6079 9.58936 4.18078 9.75544 3.43293C9.957 4.3259 10.3576 4.83886 10.7493 5.04225C10.8915 5.02659 11.0286 5.00878 11.1607 4.98853C10.8675 4.50398 10.7625 4.07587 10.9304 3.32034C11.113 4.12987 11.4594 4.62703 11.8144 4.8644C12.0328 4.81551 12.2496 4.75926 12.4672 4.69875C12.2086 4.24453 12.1222 3.82256 12.2812 3.10701C12.4385 3.80432 12.7174 4.26998 13.0186 4.53745C13.2574 4.46386 13.4543 4.40161 13.6679 4.33368C13.6358 4.06265 13.6484 3.76242 13.7178 3.43767L13.806 3.02517L14.6312 3.20142L14.5431 3.61411C14.3726 4.41136 14.6051 4.75879 14.8855 4.95782C15.1658 5.15676 15.5741 5.12001 15.6369 5.0797L15.9921 4.85189L16.4477 5.56204C16.2669 5.67173 16.0774 5.81704 15.8935 5.89298C16.7677 7.19039 17.4021 8.77415 17.054 10.2781C16.9431 10.7222 16.7713 11.1333 16.5048 11.4494C17.1013 12.018 17.4993 12.4818 17.9595 13.0665C17.7854 12.9547 17.6039 12.8395 17.4114 12.7211C16.8772 12.3925 16.2943 12.0548 15.7717 11.7929C15.0211 11.4272 14.3014 10.9395 13.5344 10.8308C12.4772 10.6918 11.3655 11.0557 10.0975 11.818C10.4665 12.2268 10.7201 12.5434 11.0496 12.9565C10.7224 12.7532 10.3628 12.5314 9.96398 12.2895C8.43801 11.4701 6.89883 10.0289 5.25595 9.94622C3.82345 9.89503 2.4457 10.6472 1.05234 11.7541L0.84375 11.92V23.1562H2.34202C4.46002 22.3389 6.10547 20.4537 6.8903 18.7256L6.90201 18.6992L6.91725 18.6748C7.36083 17.9599 7.43981 17.2832 7.70428 16.578C7.96889 15.8728 8.4968 15.185 9.66759 14.7613C9.87164 14.6601 9.90525 14.695 10.0723 14.8267C11.5005 15.9522 12.7577 16.3276 13.9741 16.3431C15.5027 16.2701 16.7136 15.8799 17.9905 15.4347C17.8046 15.6 17.5794 15.7726 17.3349 15.9391C16.6166 16.4283 15.731 16.8733 15.1644 17.1016C14.4746 17.1957 13.835 17.2149 13.1972 17.1305C12.7303 17.6972 11.9984 18.0848 11.4464 18.3808C14.4427 19.0381 16.8783 18.4235 19.2926 17.3076C18.8463 17.2224 18.4016 17.1345 17.9804 17.0535C19.4632 16.8462 21.0265 16.877 22.4197 16.888C22.6111 16.8871 22.7578 16.8668 22.8275 16.8465C23.4916 14.4525 22.6356 12.2578 21.22 10.0395C19.8014 7.81645 17.8365 5.62823 16.4436 3.3345C15.4545 2.52558 14.1655 1.86004 12.8098 1.17004C11.8542 1.36926 10.8867 1.60762 9.92962 1.83093ZM13.932 5.13515C13.3846 5.3039 12.8206 5.4832 12.3452 5.60447C12.4637 5.83556 12.5203 6.10434 12.5044 6.36393C13.0213 6.40504 13.4926 6.26934 13.8621 6.066C14.0892 5.94103 14.2718 5.7825 14.3971 5.646C14.2165 5.51779 14.0568 5.34553 13.932 5.13506L13.932 5.13515ZM11.3908 5.82412C10.8396 5.8777 10.2382 5.93484 9.74737 5.92893C9.85941 6.15262 9.92456 6.49458 10.1463 6.62456C10.6703 6.67912 11.1119 6.71817 11.5483 6.54272C11.8031 6.39206 11.6335 5.83687 11.3908 5.82412ZM9.75112 15.6366C8.92645 15.9756 8.69241 16.3462 8.49427 16.8743C8.30686 17.374 8.20237 18.0498 7.81552 18.7969C9.32911 18.4978 11.0792 17.8017 12.2148 16.9177C11.4172 16.6788 10.5952 16.2684 9.75122 15.6366H9.75112ZM10.1879 18.9827C9.31026 19.322 8.27372 19.7395 7.38966 19.6419C6.73941 20.9381 5.81306 22.2202 4.30134 23.1562H8.27072C9.28153 21.7595 10.0551 20.5043 10.1879 18.9827Z" fill="#CBCBCC"/>
</svg>
