<svg width="24" height="24" viewBox="0 0 24 24" fill="none" xmlns="http://www.w3.org/2000/svg">
<path d="M15.6044 1.14655C14.2549 1.15076 12.8703 1.79778 11.9037 3.16498C10.6942 1.57405 8.79178 0.959842 7.12308 1.28684C5.26149 1.65162 3.68246 3.24744 3.74199 5.732C3.79838 8.08737 5.41294 9.64198 7.10592 11.1248C8.11435 12.0081 9.16186 12.8832 10.015 13.9022C10.5559 15.0177 10.8689 16.2107 10.9795 17.4151C9.60169 17.2839 8.27724 16.8696 7.03308 16.1798V20.4877C8.27611 19.7989 9.60924 19.3796 10.9795 19.2528C10.8525 20.6229 10.4632 21.9864 9.77447 23.2292H14.0823C13.3991 21.9812 12.9826 20.6288 12.8473 19.2528C14.2176 19.3797 15.5809 19.7989 16.8237 20.4877V16.1798C15.5825 16.8594 14.2157 17.2773 12.8473 17.4151C12.9661 16.1222 13.3326 14.8756 13.9433 13.6983C14.7953 12.8055 15.7901 12.0287 16.7402 11.2349C17.6094 10.5087 18.4383 9.76789 19.0554 8.88289C19.6726 7.99789 20.0679 6.95605 20.0387 5.71133C19.984 3.37414 18.466 1.72798 16.6501 1.27348C16.3095 1.18826 15.9582 1.14551 15.6043 1.14659L15.6044 1.14655ZM15.6035 2.01608C15.6923 2.01683 15.7808 2.02137 15.8691 2.02887C14.7763 2.3952 13.9886 3.42669 13.9886 4.64281C13.9886 6.16545 15.2229 7.39981 16.7456 7.39981C17.7868 7.39981 18.693 6.82245 19.162 5.97059C19.1373 6.91184 18.8321 7.67169 18.337 8.38184C17.8005 9.15106 17.0318 9.84983 16.1787 10.5626C14.6854 11.8102 12.925 13.101 11.8372 15.0347C10.8275 13.093 9.14363 11.745 7.6831 10.4658C6.01135 9.00153 4.66481 7.67576 4.6178 5.71105C4.56699 3.58981 5.79042 2.44067 7.29155 2.14653C7.59202 2.08765 7.90303 2.06623 8.21625 2.08231C7.19977 2.48844 6.48141 3.48144 6.48141 4.64281C6.48141 6.16545 7.71577 7.39981 9.23841 7.39981C10.7249 7.39981 11.9361 6.22325 11.9927 4.75058L12.3012 4.1773C13.0635 2.76092 14.192 2.10936 15.3214 2.02531C15.4155 2.01837 15.5096 2.01533 15.6036 2.01612L15.6035 2.01608Z" fill="#CBCBCC"/>
</svg>
