<svg width="24" height="24" viewBox="0 0 24 24" fill="none" xmlns="http://www.w3.org/2000/svg">
<path d="M4.11326 1.43999C3.87401 1.4414 3.6289 1.45452 3.37638 1.48096C3.61366 4.69686 5.43293 5.9518 9.36466 4.58643C8.12951 2.56471 6.42598 1.42625 4.11326 1.43999ZM20.2339 1.43999C17.9211 1.42621 16.219 2.56466 14.9839 4.58643C18.9156 5.9518 20.7349 4.69686 20.9721 1.48096C20.7197 1.45457 20.4731 1.4414 20.2339 1.43999ZM0.648914 6.86422C0.610195 7.07732 0.594727 7.29575 0.594727 7.51461C0.594727 9.67508 2.52551 11.579 5.47554 12.7206C6.57607 13.331 6.92773 16.6553 6.39841 18.2123C6.28263 18.5527 5.79345 19.4662 5.79345 19.8823C5.79345 20.4463 6.25048 20.9121 6.81438 20.9121C7.37843 20.9121 7.83391 20.4463 7.83391 19.8823C7.83391 19.4637 7.31594 18.5609 7.22018 18.2124C6.80909 16.7165 6.73315 13.3911 8.07129 13.4693C9.26332 13.7098 10.5486 13.8417 11.8887 13.8443H11.8931C12.7839 13.9271 13.0455 15.271 12.6357 16.4766C12.5481 16.7342 12.1949 17.4184 12.1948 17.7335C12.1948 18.1604 12.5398 18.5054 12.9668 18.5054C13.3938 18.5054 13.7388 18.1604 13.7388 17.7335C13.7388 17.4165 13.3484 16.7405 13.2759 16.4766C13.0012 15.2335 13.0595 14.6145 13.8763 14.524C14.812 14.4204 15.2336 18.151 14.6865 19.7609C14.541 20.1886 13.9365 21.3546 13.9365 21.8775C13.9365 22.5863 14.5066 23.1564 15.2152 23.1563C15.924 23.1562 16.494 22.5863 16.4941 21.8775C16.4941 21.3513 15.8425 20.1986 15.722 19.7608C15.2035 17.874 15.3973 13.6509 16.5908 13.2876C16.5917 13.2873 16.5926 13.2864 16.5937 13.2861C16.6118 13.2816 16.6298 13.2776 16.6479 13.273C16.6485 13.2725 16.6488 13.2719 16.6493 13.2715C16.7563 13.2441 16.8621 13.2157 16.9672 13.1865C19.4157 12.6349 18.6523 14.0302 19.595 14.0302C20.358 14.0302 19.863 12.4016 21.0629 11.2632C22.4443 10.2144 23.2616 8.91899 23.2616 7.51461C23.2616 7.2958 23.2447 7.07736 23.2059 6.86422C22.593 9.42768 17.7748 11.3848 11.9281 11.3848C6.0814 11.3848 1.26171 9.42772 0.648773 6.86422H0.648914ZM19.5937 16.0283C19.0308 16.0283 18.5742 16.4849 18.5742 17.0479C18.5742 17.6108 19.0308 18.0659 19.5937 18.0659C20.1567 18.0659 20.6119 17.6107 20.6119 17.0478C20.6119 16.4849 20.1567 16.0283 19.5937 16.0283Z" fill="#CBCBCC"/>
</svg>
