<svg width="24" height="24" viewBox="0 0 24 24" fill="none" xmlns="http://www.w3.org/2000/svg">
<path d="M9.3208 3.03514C9.27462 3.03514 9.22827 3.03655 9.18158 3.03955C8.43556 3.08713 7.67942 3.58021 7.41064 4.30222C5.81352 8.59278 5.01603 10.3428 4.52783 14.7495C5.21375 15.3819 6.01048 15.9894 6.8833 16.5366L9.99608 7.32725L10.8252 7.607L7.65373 16.9922C8.56826 17.502 9.54889 17.9406 10.56 18.2709L14.0947 8.82421L14.915 9.1303L11.4023 18.5185C12.3142 18.7574 13.2401 18.9029 14.1576 18.9345L17.8755 10.5703L18.6768 10.9263L15.1202 18.9258C16.143 18.8678 17.1454 18.6554 18.0938 18.2564C20.1243 15.7325 21.4985 13.1103 22.0547 10.1615C22.2934 8.8963 21.3627 7.67136 19.5132 7.59233L19.2246 7.57911L19.1221 7.30958C18.726 6.26014 18.1963 5.89897 17.6455 5.78755C17.0947 5.67617 16.4611 5.8595 15.983 6.1333L15.3706 6.48346L15.3281 5.78033C15.2817 5.01177 14.8433 4.39297 14.1884 4.11036C13.5336 3.82771 12.6386 3.86511 11.6191 4.57471L11.1298 4.91455L10.9512 4.34619C10.6457 3.37278 10.0133 3.03439 9.32084 3.0351L9.3208 3.03514ZM4.84123 8.82861C3.33481 10.9429 2.23723 14.0419 2.40969 16.8589C3.70063 17.8826 4.96953 18.4382 6.16264 18.52C6.82616 18.5655 7.47233 18.4692 8.1035 18.2182C6.44202 17.4103 4.946 16.3651 3.76316 15.2403L3.60645 15.0923L3.62989 14.8769C3.90148 12.3157 4.28361 10.5878 4.84133 8.82861H4.84123Z" fill="#CBCBCC"/>
</svg>
