<svg width="24" height="24" viewBox="0 0 24 24" fill="none" xmlns="http://www.w3.org/2000/svg">
<path d="M12.8519 1.95019C12.7208 1.94972 12.5906 1.95281 12.4614 1.95933C7.92997 2.18667 4.14669 6.03417 2.25003 10.9593C0.353373 15.884 2.29287 22.2079 6.48453 22.0912C10.6761 21.974 7.3325 17.4225 9.55419 15.2418C10.6954 14.1215 12.3129 14.5162 13.9701 14.9775L13.1451 13.9003L12.9483 13.6434C12.8836 13.6462 12.8175 13.6482 12.7486 13.6476C12.3623 13.6446 11.9133 13.6223 11.565 13.3032C10.9139 12.7065 10.89 11.8358 10.905 11.0575C10.92 10.2792 10.9575 9.53996 10.7151 9.06127L10.448 8.53439L11.0383 8.51705C11.0874 8.51564 11.1366 8.51471 11.186 8.51456C11.9266 8.51114 12.7002 8.64469 13.3851 8.93785C14.1156 9.2505 14.7564 9.75535 15.0798 10.4872C15.2757 10.9306 15.2516 11.4301 15.109 11.8826C15.0792 11.9765 15.044 12.0688 15.004 12.1587L17.5774 15.5187C17.8685 15.4695 18.1486 15.381 18.4139 15.2412C20.5744 14.1015 22.9754 11.5985 22.5515 9.19289C21.8559 5.24461 16.9172 1.96196 12.8512 1.94977L12.8519 1.95019ZM15.7015 3.81994C16.01 3.83353 16.3015 3.94839 16.5411 4.15088C16.7055 4.28969 16.8414 4.46632 16.9414 4.6707C17.0413 4.87508 17.1032 5.1032 17.1235 5.34204C17.1438 5.58087 17.1221 5.82575 17.0597 6.06268C16.9973 6.29961 16.8954 6.52395 16.7599 6.72291C16.6243 6.92187 16.4576 7.09154 16.2695 7.22223C16.0813 7.35292 15.8753 7.44208 15.6633 7.4846C15.4512 7.52713 15.2372 7.5222 15.0335 7.47008C14.8298 7.41797 14.6404 7.3197 14.4761 7.18088C14.3118 7.04207 14.1758 6.86543 14.0759 6.66104C13.976 6.45666 13.9141 6.22854 13.8938 5.98971C13.8735 5.75087 13.8952 5.506 13.9575 5.26907C14.0199 5.03214 14.1218 4.8078 14.2574 4.60885C14.4304 4.35503 14.6533 4.14977 14.9056 4.01192C15.1579 3.87408 15.4316 3.80806 15.7015 3.81994ZM10.0835 4.02933C10.4439 4.04002 10.8095 4.21649 11.1092 4.5245C11.4089 4.8325 11.6214 5.25008 11.7055 5.69621C11.7954 6.17344 11.7313 6.64557 11.5272 7.00871C11.3232 7.37186 10.9959 7.59628 10.6174 7.63261C10.43 7.65061 10.2356 7.62189 10.0454 7.54807C9.85523 7.47425 9.67292 7.35679 9.50891 7.2024C9.34491 7.048 9.20241 6.85969 9.08957 6.64823C8.97673 6.43677 8.89575 6.20629 8.85125 5.96996C8.76135 5.49272 8.82548 5.02059 9.02954 4.65745C9.2336 4.2943 9.56087 4.06988 9.93936 4.03355C9.98685 4.02899 10.0349 4.02743 10.0833 4.02886L10.0835 4.02933ZM5.94303 7.75964C6.36834 7.75965 6.79571 7.92287 7.13116 8.21339C7.4666 8.50392 7.68265 8.89796 7.73178 9.30886C7.78075 9.71974 7.6588 10.1138 7.39275 10.4043C7.12671 10.6948 6.73834 10.858 6.31306 10.8581C5.88773 10.8581 5.46031 10.6949 5.12482 10.4044C4.78933 10.1139 4.57326 9.71979 4.52412 9.30886C4.4998 9.10536 4.51721 8.90384 4.57536 8.71582C4.63351 8.5278 4.73126 8.35696 4.86302 8.21305C4.99478 8.06915 5.15797 7.955 5.34328 7.87712C5.52859 7.79924 5.73239 7.75917 5.94303 7.75917V7.75964ZM19.7464 7.96875C20.1163 7.9868 20.4535 8.14504 20.7031 8.41772C20.8484 8.57636 20.9601 8.76951 21.0318 8.98613C21.1036 9.20275 21.134 9.43861 21.1213 9.68023C21.1086 9.92185 21.0531 10.1645 20.9579 10.3943C20.8627 10.6242 20.7297 10.8367 20.5665 11.0198C20.4033 11.2028 20.2131 11.3528 20.0068 11.4612C19.8004 11.5697 19.582 11.6343 19.3639 11.6516C19.1457 11.6689 18.9323 11.6384 18.7356 11.5619C18.539 11.4853 18.363 11.3643 18.2178 11.2057C18.0725 11.047 17.9608 10.8539 17.8891 10.6372C17.8174 10.4206 17.787 10.1847 17.7997 9.94313C17.8124 9.70151 17.8679 9.45885 17.9631 9.22902C18.0583 8.99919 18.1913 8.78668 18.3545 8.60363C18.5417 8.39361 18.7641 8.22742 19.0052 8.11749C19.2462 8.00755 19.4997 7.95671 19.7466 7.96875H19.7464ZM11.583 9.27891C11.7228 9.87769 11.6667 10.5069 11.6556 11.073C11.6411 11.818 11.69 12.4005 12.0723 12.751C12.1281 12.8021 12.4482 12.896 12.7546 12.8984C12.9078 12.8996 13.0565 12.888 13.1633 12.8733C13.2131 12.8664 13.2511 12.8589 13.275 12.8534L13.8853 12.4145L13.8862 12.4139C14.0953 12.2653 14.295 11.9746 14.3948 11.6578C14.4947 11.3409 14.4919 11.0104 14.3948 10.791C14.1684 10.2787 13.6992 9.88824 13.0908 9.62808C12.6347 9.43261 12.1064 9.31636 11.5828 9.27886L11.583 9.27891ZM14.745 13.2074L14.0714 13.723L20.5767 22.2173L21.2499 21.7018L14.7449 13.2076L14.745 13.2074ZM5.35358 16.0274C5.87139 16.0274 6.39174 16.2637 6.80015 16.6843C7.20857 17.105 7.4716 17.6755 7.53139 18.2704C7.56097 18.565 7.53976 18.8567 7.46896 19.1288C7.39817 19.401 7.27917 19.6482 7.11877 19.8565C6.95837 20.0648 6.75971 20.23 6.53413 20.3428C6.30854 20.4555 6.06046 20.5135 5.80404 20.5134C5.28622 20.5134 4.76586 20.2771 4.35744 19.8565C3.94902 19.4358 3.686 18.8653 3.62623 18.2704C3.59666 17.9758 3.61788 17.6841 3.68868 17.412C3.75948 17.1398 3.87848 16.8926 4.03888 16.6843C4.19928 16.476 4.39794 16.3108 4.62352 16.1981C4.84909 16.0854 5.09717 16.0274 5.35358 16.0274Z" fill="#CBCBCC"/>
</svg>
