<svg width="25" height="24" viewBox="0 0 25 24" fill="none" xmlns="http://www.w3.org/2000/svg">
<path d="M12.5 1.17188C10.7047 1.17188 9.97345 1.80938 9.57501 2.62359C9.31251 3.15234 9.22344 3.77719 9.19063 4.35938H15.8047C15.7672 3.77953 15.6688 3.15562 15.4016 2.62641C14.9938 1.80937 14.2625 1.17188 12.5 1.17188ZM7.86407 5.20312L8.29063 6.32812H17.0797L17.2578 5.20312H7.86407ZM4.78907 5.64844C4.67891 5.65312 4.57532 5.66719 4.48204 5.69531C4.23548 5.76094 4.04141 5.89688 3.87641 6.19219C3.85251 6.24375 3.8497 6.27656 3.89516 6.38906C3.94157 6.51094 4.04985 6.67969 4.17876 6.86719C4.30766 7.05469 4.45579 7.26094 4.56641 7.50469C4.67704 7.74844 4.75157 8.05781 4.65313 8.37656C4.51954 8.80312 4.20313 9.09375 3.87126 9.29531C3.53938 9.49219 3.1761 9.62813 2.83954 9.75469C2.50345 9.88594 2.19501 10.0078 1.99016 10.1484C1.78579 10.2844 1.69673 10.3969 1.66673 10.5703C1.62079 10.8422 1.74923 11.1187 2.0272 11.4469C2.30563 11.775 2.70735 12.1125 3.0486 12.45C3.34673 12.75 3.35001 13.1391 3.33454 13.4203C3.31954 13.7062 3.29235 13.9594 3.3097 14.0578C3.31673 14.1047 3.3261 14.1047 3.32141 14.1C3.31673 14.0953 3.32798 14.1141 3.42173 14.1281C3.58345 14.1516 3.97345 14.1047 4.57907 13.9313V13.875C4.57907 11.1047 5.51141 8.58281 7.02548 6.7875C6.61298 6.34219 5.98485 5.91094 5.39423 5.7375C5.22079 5.69063 5.05673 5.6625 4.90298 5.65312C4.86454 5.64844 4.82704 5.64844 4.79001 5.64844H4.78907ZM20.0984 5.65312C19.9438 5.6625 19.7797 5.69063 19.6063 5.74219C19.0156 5.91563 18.3875 6.34219 17.975 6.7875C19.4891 8.58281 20.4219 11.1047 20.4219 13.875V13.9313C21.0266 14.1047 21.4203 14.1516 21.5797 14.1281C21.6734 14.1141 21.6828 14.0953 21.6781 14.1C21.6781 14.1047 21.6828 14.1047 21.6922 14.0578C21.7063 13.9594 21.6828 13.7062 21.6641 13.4203C21.65 13.1391 21.6547 12.75 21.95 12.45C22.2922 12.1125 22.6953 11.775 22.9719 11.4469C23.2531 11.1187 23.3797 10.8422 23.3328 10.5703C23.3047 10.3969 23.2156 10.2844 23.0094 10.1484C22.8031 10.0078 22.4984 9.88594 22.1609 9.75469C21.8234 9.62813 21.4625 9.49219 21.1297 9.29531C20.7969 9.09375 20.4828 8.80312 20.3469 8.37656C20.2484 8.05781 20.3234 7.74844 20.4359 7.50469C20.5438 7.26094 20.6938 7.05469 20.8203 6.86719C20.9516 6.67969 21.0594 6.51094 21.1063 6.38906C21.1484 6.27656 21.1484 6.24375 21.125 6.19219C20.9609 5.89688 20.7641 5.76562 20.5203 5.69531C20.4266 5.66719 20.3234 5.65312 20.2109 5.65312H20.0984ZM7.81251 7.17188C6.3547 8.80312 5.42188 11.1891 5.42188 13.875C5.42188 14.9578 5.57188 15.9938 5.85313 16.95C6.42032 16.2563 7.29688 15.8906 8.28126 15.8906C8.90001 15.8906 9.57032 16.0219 10.2594 16.275C10.3037 15.8504 10.4679 15.4472 10.7328 15.1125C10.1797 14.9391 9.82345 14.8594 9.50001 14.8594C9.03126 14.8594 8.50626 15.0234 7.38126 15.3984L6.82813 15.5859V15C6.82813 14.7422 6.8797 14.3297 6.97345 13.7906C7.07188 13.2469 7.2172 12.6 7.40938 11.9719C7.60157 11.3391 7.84532 10.725 8.15938 10.2375C8.31407 9.99844 8.49688 9.77813 8.70782 9.61406L9.50001 7.875L10.2922 9.61406C10.5031 9.77813 10.6859 9.99844 10.8406 10.2375C11.1547 10.725 11.3984 11.3391 11.5906 11.9719C11.7828 12.6 11.9281 13.2469 12.0266 13.7906C12.0594 13.9688 12.0828 14.1328 12.1063 14.2875C12.2362 14.2635 12.3679 14.2509 12.5 14.25C12.6321 14.2509 12.7639 14.2635 12.8938 14.2875C12.9172 14.1375 12.9406 13.9688 12.9734 13.7906C13.0719 13.2469 13.2172 12.6 13.4094 11.9719C13.6016 11.3391 13.8453 10.725 14.1594 10.2375C14.3141 9.99844 14.4969 9.77813 14.7078 9.61406L15.5 7.875L16.2922 9.61406C16.5031 9.77813 16.6859 9.99844 16.8406 10.2375C17.1547 10.725 17.3984 11.3391 17.5906 11.9719C17.7828 12.6 17.9281 13.2469 18.0266 13.7906C18.1203 14.3297 18.1719 14.7422 18.1719 15V15.5859L17.6188 15.3984C16.4938 15.0234 15.9688 14.8594 15.5 14.8594C15.1766 14.8594 14.825 14.9391 14.2672 15.1125C14.5304 15.4478 14.693 15.8509 14.7359 16.275C15.4297 16.0219 16.0953 15.8906 16.7188 15.8906C17.7031 15.8906 18.5797 16.2563 19.1469 16.95C19.4281 15.9938 19.5781 14.9578 19.5781 13.875C19.5781 11.1891 18.6453 8.80312 17.1875 7.17188H7.81251ZM9.50001 10.1719C9.33595 10.1719 9.11563 10.3172 8.87188 10.6922C8.62345 11.0719 8.39845 11.6297 8.21563 12.2156C8.03282 12.8063 7.89688 13.425 7.80782 13.9359C7.77501 14.1094 7.75626 14.25 7.73751 14.3953C8.24376 14.2313 8.63282 14.1141 8.99845 14.0578C8.92023 13.9875 8.85769 13.9014 8.81489 13.8053C8.77209 13.7092 8.74998 13.6052 8.75001 13.5C8.75001 13.3011 8.82903 13.1103 8.96968 12.9697C9.11033 12.829 9.3011 12.75 9.50001 12.75C9.69892 12.75 9.88969 12.829 10.0303 12.9697C10.171 13.1103 10.25 13.3011 10.25 13.5C10.25 13.6052 10.2279 13.7092 10.1851 13.8053C10.1423 13.9014 10.0798 13.9875 10.0016 14.0578C10.3672 14.1141 10.7563 14.2313 11.2625 14.3953C11.2438 14.25 11.225 14.1094 11.1922 13.9359C11.1031 13.425 10.9672 12.8063 10.7844 12.2156C10.6016 11.6297 10.3766 11.0719 10.1281 10.6922C9.88438 10.3172 9.66407 10.1719 9.50001 10.1719ZM15.5 10.1719C15.3359 10.1719 15.1156 10.3172 14.8719 10.6922C14.6234 11.0719 14.3984 11.6297 14.2156 12.2156C14.0328 12.8063 13.8969 13.425 13.8078 13.9359C13.775 14.1094 13.7563 14.25 13.7375 14.3953C14.2438 14.2313 14.6328 14.1141 14.9984 14.0578C14.9202 13.9875 14.8577 13.9014 14.8149 13.8053C14.7721 13.7092 14.75 13.6052 14.75 13.5C14.75 13.3011 14.829 13.1103 14.9697 12.9697C15.1103 12.829 15.3011 12.75 15.5 12.75C15.6989 12.75 15.8897 12.829 16.0303 12.9697C16.171 13.1103 16.25 13.3011 16.25 13.5C16.25 13.6052 16.2279 13.7092 16.1851 13.8053C16.1423 13.9014 16.0798 13.9875 16.0016 14.0578C16.3672 14.1141 16.7563 14.2313 17.2625 14.3953C17.2438 14.25 17.225 14.1094 17.1922 13.9359C17.1031 13.425 16.9672 12.8063 16.7844 12.2156C16.6016 11.6297 16.3766 11.0719 16.1281 10.6922C15.8844 10.3172 15.6641 10.1719 15.5 10.1719ZM12.5 15C12.1022 15 11.7207 15.158 11.4393 15.4393C11.158 15.7206 11 16.1022 11 16.5C11.0013 16.8171 11.103 17.1256 11.2906 17.3812C11.3268 16.8382 11.5585 16.3267 11.9429 15.9414C12.3273 15.5562 12.8383 15.3233 13.3813 15.2859C13.125 15.1 12.8166 14.9999 12.5 15ZM8.28126 16.7344C7.2547 16.7344 6.55157 17.1234 6.2047 17.9766C7.39063 20.8734 9.78594 22.8281 12.5 22.8281C15.2141 22.8281 17.6094 20.8734 18.7953 17.9766C18.4484 17.1234 17.7453 16.7344 16.7188 16.7344C16.1094 16.7344 15.3922 16.8984 14.6234 17.2313C14.4714 17.6738 14.1851 18.0579 13.8045 18.3301C13.4239 18.6023 12.9679 18.7491 12.5 18.75C12.0321 18.7491 11.5761 18.6023 11.1955 18.3301C10.8149 18.0579 10.5286 17.6738 10.3766 17.2313C9.60782 16.8984 8.89063 16.7344 8.28126 16.7344ZM8.36095 17.7844C9.42501 19.5516 10.9672 20.3906 12.5 20.3906C14.0328 20.3906 15.575 19.5516 16.6391 17.7844L17.3609 18.2156C16.175 20.1984 14.3422 21.2344 12.5 21.2344C10.6578 21.2344 8.82501 20.1984 7.63907 18.2156L8.36095 17.7844Z" fill="#CBCBCC"/>
</svg>
