<svg width="25" height="24" viewBox="0 0 25 24" fill="none" xmlns="http://www.w3.org/2000/svg">
<path d="M8.81106 2.94404C7.9603 2.95202 7.27052 3.29621 6.72152 3.86059C6.07386 4.52632 5.64195 5.5144 5.50999 6.59444C5.24611 8.75458 6.14782 11.2174 8.67386 12.2453L8.40285 12.9126C5.93138 11.9068 4.80806 9.64604 4.74999 7.47846C4.08094 7.89723 3.68598 8.52096 3.5035 9.26813C3.28274 10.1718 3.3984 11.2545 3.80819 12.2682C4.6277 14.2958 6.55877 16.001 9.14347 15.644L9.24224 16.3582C7.3617 16.6179 5.76662 15.9121 4.62107 14.7769C4.30689 15.4019 4.33187 16.0203 4.59575 16.6388C4.92226 17.404 5.65551 18.1516 6.63353 18.7043C8.44817 19.7299 11.0579 20.0746 13.3082 18.9007C13.0989 18.0917 13.206 17.1635 13.7453 16.2294C14.6206 14.7135 16.0878 14.3089 17.1513 14.7383C17.683 14.9531 18.1179 15.3764 18.3026 15.9391C18.4875 16.5018 18.4119 17.1841 18.0184 17.8781C17.5637 18.6801 16.7025 18.9525 16.0433 18.7345C15.7137 18.6254 15.4181 18.3708 15.3158 18.007C15.2136 17.6432 15.3104 17.2221 15.588 16.8002L16.189 17.1965C15.9871 17.503 15.977 17.7006 16.0083 17.8118C16.0396 17.9231 16.1177 18.0005 16.2684 18.0503C16.5699 18.15 17.0964 18.0445 17.3921 17.5228C17.7077 16.9663 17.7321 16.5137 17.6173 16.1643C17.5026 15.8149 17.2379 15.5494 16.8815 15.4055C16.1688 15.1178 15.1033 15.3179 14.3692 16.5895C13.8287 17.5256 13.8153 18.3382 14.1102 19.0343L14.2187 19.2029C14.2111 19.2079 14.2034 19.2125 14.1958 19.2174C14.2057 19.2365 14.2156 19.2562 14.2258 19.2752C14.3008 19.4126 14.3884 19.5452 14.4885 19.6714C14.4923 19.6764 14.4965 19.681 14.5005 19.6859C14.5157 19.7048 14.5317 19.7238 14.5475 19.7425C14.991 20.2688 15.6404 20.682 16.3709 20.9096C17.3059 21.2008 18.3594 21.185 19.2553 20.765C20.1513 20.3451 20.91 19.5329 21.286 18.1299C21.414 17.6518 21.4817 17.2136 21.4979 16.8075C21.4983 16.7914 21.4988 16.7754 21.4991 16.7593C21.5024 16.5628 21.4957 16.3644 21.4774 16.1656C21.476 16.1499 21.4742 16.1342 21.4726 16.1185C21.4713 16.1081 21.4703 16.0976 21.469 16.0872C21.342 15.0933 20.8592 14.3082 20.1453 13.6038C19.0032 12.4769 17.228 11.6137 15.4146 10.7471C13.6012 9.88044 11.749 9.00895 10.4478 7.75425C9.22675 6.57675 8.52367 5.0108 8.89416 2.94396C8.86641 2.94357 8.8385 2.94373 8.81106 2.94396V2.94404Z" fill="#CBCBCC"/>
</svg>
