<svg width="25" height="24" viewBox="0 0 25 24" fill="none" xmlns="http://www.w3.org/2000/svg">
<path d="M12.5168 1.9767C12.4618 1.97699 12.4069 1.9778 12.3521 1.97898C11.9808 1.98723 11.611 2.01636 11.2444 2.06578L11.8345 2.85749L13.3902 4.04275L11.3407 3.54882L10.3858 2.22019C9.36962 2.44906 8.39065 2.83677 7.48859 3.37268L7.68604 4.19082L10.1554 4.63519L10.0566 6.78356L9.3158 5.27739L7.04414 4.88219L6.78779 3.82999C6.14584 4.28899 5.55289 4.82926 5.02557 5.44626L5.61183 7.35143L7.93296 7.69712L5.04392 8.26508L4.42522 6.22346C4.26371 6.45533 4.11065 6.69587 3.96673 6.94511C3.45737 7.82743 3.09883 8.75503 2.88265 9.69818L4.96997 10.7095L7.04426 10.685L4.96997 11.5986L4.20447 11.2261V12.3147H5.48854L3.41433 13.1049V10.8418L2.73234 10.51C2.485 12.2455 2.7057 14.0048 3.34736 15.607L4.25386 14.6111L4.77687 15.0973L6.21877 14.548L5.31172 15.5945L6.00695 16.2408L4.3032 15.7222L3.70408 16.3948C4.09974 17.1779 4.60128 17.9127 5.20251 18.5759L6.93163 18.5692L5.74578 19.13C6.29712 19.6495 6.91662 20.1142 7.60148 20.5096C12.355 23.254 18.4216 21.6284 21.166 16.875C23.9105 12.1215 22.2849 6.05489 17.5315 3.31045C16.6363 2.79361 15.6945 2.43215 14.7371 2.21698L15.1264 3.30457L13.8973 2.06608C13.4375 2.00384 12.9763 1.97408 12.5169 1.97666L12.5168 1.9767ZM15.9448 7.30936C16.8397 7.31972 17.7289 7.54698 18.5421 8.0163C21.3175 9.61844 22.0924 13.3991 20.3414 16.4313C18.5906 19.4632 14.9285 20.6828 12.1531 19.0807C9.37753 17.4785 8.60273 13.6979 10.3537 10.6657C11.5574 8.58113 13.6645 7.35342 15.7657 7.31017C15.8254 7.3089 15.885 7.30864 15.9447 7.30932L15.9448 7.30936ZM15.9198 8.09874C15.8683 8.0982 15.8169 8.09858 15.7653 8.09972C14.987 8.11705 14.2039 8.32338 13.4783 8.69947L14.9248 10.959C14.6976 11.0867 14.4814 11.2407 14.281 11.4187L12.8034 9.11061C12.1135 9.59887 11.5032 10.2551 11.038 11.0609C11.0048 11.1183 10.9731 11.176 10.942 11.2339L13.5663 12.2699C13.5464 12.302 13.527 12.3344 13.5079 12.3673C13.3922 12.5672 13.2971 12.7735 13.2209 12.9831L10.6113 11.9528C10.1636 13.1145 10.0963 14.3282 10.365 15.4166L13.0034 14.519C13.023 14.7879 13.0726 15.0513 13.152 15.303L10.6121 16.1672C10.997 17.0881 11.648 17.872 12.5332 18.3874L13.8324 16.4848C14.0099 16.676 14.2145 16.8457 14.4455 16.9881L13.2583 18.7267C14.1246 19.0408 15.0611 19.0764 15.9662 18.8632L15.9793 17.4278C16.2444 17.4305 16.5099 17.3993 16.7704 17.3362L16.7587 18.6097C17.3003 18.3888 17.8183 18.076 18.2887 17.679L17.7936 16.9057C18.0157 16.7681 18.2261 16.6051 18.4197 16.4182L18.8684 17.1191C19.1614 16.796 19.427 16.4344 19.6571 16.0361C19.7378 15.8963 19.8123 15.7548 19.8809 15.6123L19.2005 15.3436C19.3192 15.1022 19.4113 14.8539 19.4755 14.6028L20.1787 14.8804C20.4091 14.1909 20.5082 13.4879 20.4852 12.8079L19.5472 13.1271C19.5052 12.8635 19.433 12.6078 19.332 12.3656L20.3994 12.0025C20.2472 11.1676 19.9026 10.3938 19.3843 9.75649L18.4272 11.158C18.3139 11.0679 18.1927 10.985 18.0635 10.9105C17.96 10.851 17.8542 10.7988 17.747 10.753L18.822 9.17893C18.6149 9.00135 18.3899 8.84081 18.1472 8.70074C17.7367 8.46375 17.3013 8.29907 16.8539 8.2025L16.8327 10.5263C16.7261 10.5172 16.6192 10.5136 16.5122 10.5158C16.3551 10.5189 16.1981 10.5342 16.0422 10.5606L16.0647 8.10259C16.0165 8.10065 15.9683 8.09929 15.92 8.09879L15.9198 8.09874ZM16.5872 11.3049C16.7152 11.306 16.8425 11.3179 16.968 11.3404C16.6571 11.6413 16.4536 12.1411 16.4536 12.7072C16.4536 13.6269 16.9905 14.3724 17.6529 14.3724C18.1676 14.3724 18.6064 13.9222 18.7766 13.2901C18.8654 13.8973 18.7489 14.5661 18.3931 15.1809C17.62 16.5168 16.0587 17.007 14.916 16.3488C13.7731 15.6906 13.4186 14.0991 14.1918 12.7632C14.7233 11.8448 15.6273 11.3261 16.5118 11.3055C16.537 11.3049 16.562 11.3047 16.5872 11.305L16.5872 11.3049Z" fill="#CBCBCC"/>
</svg>
