<svg width="25" height="24" viewBox="0 0 25 24" fill="none" xmlns="http://www.w3.org/2000/svg">
<g clip-path="url(#clip0_328_1033)">
<path d="M8.95775 1.20093L8.79369 1.78827L15.1171 3.4889L15.3234 2.87062L8.95775 1.20093ZM16.3312 2.55937L15.9281 3.76546C16.6124 4.39499 17.3156 4.4489 18.1359 4.37812L18.4171 3.0103C17.8265 2.6864 17.114 2.57671 16.3312 2.55937ZM22.3312 3.83765L20.9437 4.21687L20.7234 5.02499L21.839 6.10312L24.2812 5.55468L22.3312 3.83765ZM19.1203 3.86483L18.9843 4.52671L19.9031 4.77655L20.0812 4.11702L19.1203 3.86483ZM10.9359 4.21452C10.5937 4.22296 10.2609 4.38374 9.96557 4.68093C9.63744 5.0203 9.38432 5.53593 9.314 6.13593C9.24369 6.73593 9.37963 7.29374 9.62807 7.69687C9.88119 8.09062 10.2234 8.32968 10.6171 8.37187C11.0109 8.40937 11.3999 8.24999 11.7328 7.9078C12.0609 7.5703 12.3187 7.05468 12.389 6.44999C12.4546 5.85468 12.3187 5.29686 12.0703 4.89843C11.8171 4.49765 11.4749 4.26046 11.0859 4.22015C11.039 4.21499 10.9874 4.21312 10.9359 4.21452ZM16.2468 4.9828C16.0312 6.5578 15.6937 7.79999 15.2156 9.12187L13.9265 8.95312C13.9078 9.65624 13.814 10.3594 13.5749 11.0719C14.5406 11.0484 15.4593 10.9406 16.3546 10.5422C16.8843 8.7703 17.2171 7.01249 17.4937 5.24999C17.0765 5.23124 16.6593 5.16093 16.2468 4.9828ZM8.08588 8.58749C7.67807 8.58749 7.35932 8.6203 6.839 8.77968C5.59119 9.53905 4.69588 10.6641 4.35463 11.4937C3.96088 12.4734 3.8076 13.6969 3.82682 14.7984L5.02869 14.9484C5.18853 13.8234 5.25932 12.9937 5.53635 12.0984L7.75307 10.5047L7.61713 12.6562L7.96869 12.5484C8.81244 12.1219 9.39838 11.5781 9.90463 10.95C10.3453 10.4062 10.7156 9.80155 11.1093 9.19218C10.9171 9.22968 10.7249 9.23905 10.5234 9.2203C10.0312 9.17343 9.60463 8.94374 9.26244 8.60624C8.7515 8.60624 8.38588 8.58749 8.08588 8.58749ZM13.0593 8.81249L12.4171 8.82187C11.8124 9.61874 11.3249 10.5328 10.6406 11.4C10.9406 11.5078 11.1749 11.7937 11.1796 12.0516C11.1374 12.5344 10.6828 12.7547 10.289 12.7594C10.0031 12.7406 9.77338 12.6656 9.58588 12.4969C9.01869 12.9656 8.32963 13.3781 7.45775 13.6781C7.46713 13.7906 7.48119 13.9078 7.48588 14.0203C7.63119 13.9734 7.78119 13.95 7.94525 13.95C8.48432 13.9641 9.02807 14.2969 9.03744 14.7984C8.9765 15.3797 8.414 15.6422 7.94525 15.6469C7.77182 15.6469 7.60775 15.6187 7.46244 15.5625C7.42025 15.9141 7.34525 16.2703 7.22338 16.6266L8.489 16.7437L8.76088 18.1219L9.92807 17.0437L10.514 18.5578C10.7671 18.0797 11.0296 17.6016 11.3203 17.1328C10.7906 17.1234 10.214 16.8281 10.1999 16.35C10.2609 15.7641 10.8703 15.5672 11.3249 15.5625C11.6671 15.5812 11.9718 15.6469 12.2156 15.8531C12.5812 15.3937 12.9937 14.9578 13.4531 14.55C13.3921 14.3906 13.3124 14.2219 13.214 14.0531C13.0734 14.0906 12.914 14.1094 12.7499 14.1094C12.2718 14.0578 11.6859 13.9453 11.6765 13.4297C11.6953 13.1344 11.9062 12.9516 12.1406 12.8531C12.2015 12.8297 12.2671 12.8109 12.3328 12.7969C12.2062 12.6328 12.0937 12.4922 11.9671 12.3234L12.1406 12.0656C12.8671 10.9781 13.0499 9.94218 13.0593 8.81249ZM13.2562 15.9375C12.8812 16.3547 12.5531 16.7953 12.2437 17.2641C12.4546 17.4422 12.6843 17.6297 12.9093 17.8219C13.3499 18.1969 13.8093 18.6187 13.9265 19.2422L14.6015 22.8L15.9046 22.3125C15.7359 20.9625 15.6562 20.0203 15.3093 18.5016V18.4875L15.3046 18.4734C15.2296 18.0047 14.8218 17.5172 14.2828 16.9922C13.9499 16.6641 13.5749 16.3219 13.2562 15.9375ZM7.40619 17.5031L6.46869 19.8516C5.30854 20.1047 4.05791 19.8984 3.06369 19.6922L2.71729 20.8031C4.22807 21.0891 6.22963 21.2812 7.30307 21.0797L8.18432 19.6219L7.77182 17.5359L7.40619 17.5031Z" fill="#CBCBCC"/>
</g>
<defs>
<clipPath id="clip0_328_1033">
<rect width="24" height="24" fill="white" transform="translate(0.5)"/>
</clipPath>
</defs>
</svg>
